<?xml version="1.0" encoding="UTF-8" standalone="no"?>
<svg width="300px" height="300px" viewBox="0 0 300 300" version="1.1" xmlns="http://www.w3.org/2000/svg" xmlns:xlink="http://www.w3.org/1999/xlink" style="background: #FAFAFA;">
    <!-- Generator: Sketch 39.1 (31720) - http://www.bohemiancoding.com/sketch -->
    <title>hack_pattern_hc</title>
    <desc>Created with Sketch.</desc>
    <defs>
        <path d="M0.0173377337,5.88003928 C0.0173377337,2.84798924 7.95374947,5.01421105 7.95374947,5.01421105 C10.2968135,5.49239476 11.2629928,7.58073757 9.96194566,9.58270991 C9.96194566,9.58270991 8.49929037,13.4247969 5.28859975,13.039463 C2.07790913,12.6541292 0.0173377337,8.91208933 0.0173377337,5.88003928 Z" id="path-1"></path>
        <mask id="mask-2" maskContentUnits="userSpaceOnUse" maskUnits="objectBoundingBox" x="0" y="0" width="10.5276014" height="8.80210544" fill="white">
            <use xlink:href="#path-1"></use>
        </mask>
        <path d="M11.9182847,5.80705463 C11.9182847,2.77500459 19.786224,4.92984806 19.786224,4.92984806 C22.1671044,5.41431586 23.152877,7.52643406 21.8162356,9.57433559 C21.8162356,9.57433559 20.4002374,13.3518122 17.1895467,12.9664784 C13.9788561,12.5811446 11.9182847,8.83910468 11.9182847,5.80705463 Z" id="path-3"></path>
        <mask id="mask-4" maskContentUnits="userSpaceOnUse" maskUnits="objectBoundingBox" x="0" y="0" width="10.4991745" height="8.80674871" fill="white">
            <use xlink:href="#path-3"></use>
        </mask>
        <path d="M4.69563679,6.54955775 L4.69563679,5.67219691 C4.69563679,2.92014133 6.9300627,0.689159485 9.67950943,0.689159485 L10.4327786,0.689159485 C13.1852955,0.689159485 15.4166513,2.92644946 15.4166513,5.67377487 L15.4166513,5.67377487 C15.4166513,8.42670193 13.1945468,10.6583903 10.4270466,10.6583903 L9.80626956,10.6583903 C7.05058699,10.6583903 3.25602019,9.05804292 1.33359912,7.08671565 L0.809767226,6.54955753 L4.69563679,6.54955775 Z" id="path-5"></path>
        <mask id="mask-6" maskContentUnits="userSpaceOnUse" maskUnits="objectBoundingBox" x="0" y="0" width="14.6068841" height="9.96923077" fill="white">
            <use xlink:href="#path-5"></use>
        </mask>
        <path d="M8.99456522,16.8911675 L8.99456522,16.6289937 C8.99456522,14.2169148 10.9432379,12.2615385 13.3660802,12.2615385 L19.5288473,12.2615385 C21.9431684,12.2615385 23.9003623,14.2226198 23.9003623,16.6307692 L23.9003623,16.6307692 C23.9003623,19.0438288 21.9370591,21 19.5244536,21 L13.4915021,21 C11.0747544,21 7.74785335,19.5974649 6.05827447,17.8649033 L5.10869565,16.8911673 L8.99456522,16.8911675 Z" id="path-7"></path>
        <mask id="mask-8" maskContentUnits="userSpaceOnUse" maskUnits="objectBoundingBox" x="0" y="0" width="18.7916667" height="8.73846154" fill="white">
            <use xlink:href="#path-7"></use>
        </mask>
        <path d="M3.08612242,11.8406854 C3.0428122,9.81851279 4.10017101,-0.285612169 16.326915,1.09717495 C28.8669226,2.51539072 27.0988602,17.911797 26.5143568,18.207 C26.5143568,18.207 22.2081201,15.1365481 13.4276099,13.0934109 C4.64709976,11.0502738 3.08723208,11.8924959 3.08612242,11.8406854 Z" id="path-9"></path>
        <mask id="mask-10" maskContentUnits="userSpaceOnUse" maskUnits="objectBoundingBox" x="0" y="0" width="23.8589813" height="17.2393028" fill="white">
            <use xlink:href="#path-9"></use>
        </mask>
        <path d="M0.206267881,15.3521503 C0.258367854,11.9024128 3.02633222,9.75523569 6.38825606,10.5585952 C6.38825606,10.5585952 12.909092,12.1040828 14.2849932,12.4775541 C15.6608944,12.8510255 23.3065005,15.6263368 23.3065005,15.6263368 C23.3065005,15.6263368 18.7872329,22.9108276 16.5955147,22.9108276 C14.4037965,22.9108276 10.2356164,19.2087159 5.47584034,19.2087157 C0.716064305,19.2087155 0.983972966,21.9232041 0.488119066,21.0794159 C-0.00773483316,20.2356277 0.206267881,15.3521503 0.206267881,15.3521503 Z" id="path-11"></path>
        <mask id="mask-12" maskContentUnits="userSpaceOnUse" maskUnits="objectBoundingBox" x="0" y="0" width="23.1461636" height="12.5206988" fill="white">
            <use xlink:href="#path-11"></use>
        </mask>
        <rect id="path-13" x="1.16292135" y="8.8817842e-16" width="20.6741573" height="12.893617" rx="6.44680851"></rect>
        <mask id="mask-14" maskContentUnits="userSpaceOnUse" maskUnits="objectBoundingBox" x="0" y="0" width="20.6741573" height="12.893617" fill="white">
            <use xlink:href="#path-13"></use>
        </mask>
        <path d="M0.113827195,13.8540886 C-0.0204004651,13.3236348 0.314635933,12.893617 0.870172051,12.893617 L22.1298279,12.893617 C22.6817733,12.893617 23.0190468,13.3289844 22.8861728,13.8540886 L22.0801193,17.0395284 C21.9458917,17.5699822 21.3860426,18 20.8399211,18 L2.16007893,18 C1.609364,18 1.05275466,17.5646327 0.91988067,17.0395284 L0.113827195,13.8540886 Z" id="path-15"></path>
        <mask id="mask-16" maskContentUnits="userSpaceOnUse" maskUnits="objectBoundingBox" x="0" y="0" width="22.1575315" height="5.10638298" fill="white">
            <use xlink:href="#path-15"></use>
        </mask>
    </defs>
    <g id="Patterns" stroke="none" stroke-width="1" fill="none" fill-rule="evenodd">
        <g id="hack_pattern_hc">
            <g id="Group-2" transform="translate(36.500000, 201.000000) rotate(-315.000000) translate(-36.500000, -201.000000) translate(25.000000, 194.000000)">
                <path d="M19.4581271,1.70890976 C19.1354112,1.33645541 17.7149052,1.971224 16.6536988,1.69923241 C16.0232005,1.5376331 15.7095678,0.826185021 15.7881693,0.619272853 C15.9990669,0.0641019735 17.8886265,0.102946848 17.8886265,0.102946848 C19.3516804,0.0112797859 20.8741448,1.081235 21.2884486,2.49038635 L22.1425501,5.39540017 L21.028966,5.39540017 C21.028966,5.39540017 19.8137783,2.11937556 19.4581271,1.70890976 Z" id="Rectangle-4" fill="#DADADA"></path>
                <path d="M3.958625,1.70817842 C3.63590907,1.33572407 2.21540311,1.97049266 1.15419666,1.69850107 C0.523698351,1.53690176 0.210065707,0.825453682 0.288667234,0.618541514 C0.499564831,0.0633706349 2.38912444,0.102215509 2.38912444,0.102215509 C3.85217826,0.0105484473 5.37464274,1.08050366 5.78894652,2.48965501 L6.64304797,5.39466884 L5.52946387,5.39466884 C5.52946387,5.39466884 4.31427624,2.11864422 3.958625,1.70817842 Z" id="Rectangle-4" fill="#DADADA" transform="translate(3.459912, 2.745704) scale(-1, 1) translate(-3.459912, -2.745704) "></path>
                <rect id="Rectangle-3" fill="#DADADA" x="9.13310638" y="6.05236652" width="3.5980987" height="2.01727924" rx="1.00863962"></rect>
                <use id="Rectangle-10" stroke="#DADADA" mask="url(#mask-2)" stroke-width="2" xlink:href="#path-1"></use>
                <use id="Rectangle-10" stroke="#DADADA" mask="url(#mask-4)" stroke-width="2" transform="translate(17.167872, 8.590700) scale(-1, 1) translate(-17.167872, -8.590700) " xlink:href="#path-3"></use>
            </g>
            <g id="Group-3" transform="translate(175.500000, 233.500000) rotate(-180.000000) translate(-175.500000, -233.500000) translate(162.000000, 220.000000)">
                <rect id="Rectangle-2" fill="#DADADA" x="2.84217094e-14" y="12.5979381" width="4.36363636" height="1.07216495" rx="0.536082474"></rect>
                <rect id="Rectangle-2" fill="#DADADA" x="22.9090909" y="12.5979381" width="4.09090909" height="1.07216495" rx="0.536082474"></rect>
                <path d="M13.0909091,0.542238508 C13.0909091,0.242768449 13.3439276,-2.8434334e-14 13.6363636,-2.83763741e-14 L13.6363636,-2.83763741e-14 C13.9376099,-2.83166681e-14 14.1818182,0.239467326 14.1818182,0.542238508 L14.1818182,3.47838005 C14.1818182,3.77785011 13.9287997,4.02061856 13.6363636,4.02061856 L13.6363636,4.02061856 C13.3351174,4.02061856 13.0909091,3.78115123 13.0909091,3.47838005 L13.0909091,0.542238508 Z" id="Rectangle-2" fill="#DADADA"></path>
                <path d="M21.1956858,3.81703619 C21.1956858,3.51756613 21.4487042,3.27479768 21.7411403,3.27479768 L21.7411403,3.27479768 C22.0423865,3.27479768 22.2865948,3.51426501 22.2865948,3.81703619 L22.2865948,6.75317773 C22.2865948,7.05264779 22.0335764,7.29541624 21.7411403,7.29541624 L21.7411403,7.29541624 C21.4398941,7.29541624 21.1956858,7.05594891 21.1956858,6.75317773 L21.1956858,3.81703619 Z" id="Rectangle-2" fill="#DADADA" transform="translate(21.741140, 5.285107) rotate(45.000000) translate(-21.741140, -5.285107) "></path>
                <path d="M4.83204939,3.81703619 C4.83204939,3.51756613 5.08506785,3.27479768 5.37750393,3.27479768 L5.37750393,3.27479768 C5.67875016,3.27479768 5.92295848,3.51426501 5.92295848,3.81703619 L5.92295848,6.75317773 C5.92295848,7.05264779 5.66994001,7.29541624 5.37750393,7.29541624 L5.37750393,7.29541624 C5.07625771,7.29541624 4.83204939,7.05594891 4.83204939,6.75317773 L4.83204939,3.81703619 Z" id="Rectangle-2" fill="#DADADA" transform="translate(5.377504, 5.285107) scale(-1, 1) rotate(45.000000) translate(-5.377504, -5.285107) "></path>
                <path d="M9.60100548,19.181858 C9.78696804,19.2983079 9.94776548,20.4118938 9.94776548,20.4118938 C10.1529375,21.4832801 11.213492,22.3518103 12.3237298,22.3518103 L14.6499021,22.3518103 C15.7569389,22.3518103 16.8209377,21.4791466 17.0409131,20.3939981 C17.0409131,20.3939981 17.2309716,19.2326859 17.3726264,19.1419262 C19.3384177,17.8824222 20.6378643,15.7024072 20.6378643,13.2241051 C20.6378643,9.32544054 17.4221188,6.16494845 13.4552958,6.16494845 C9.48847272,6.16494845 6.27272727,9.32544054 6.27272727,13.2241051 C6.27272727,15.7288042 7.60000267,17.928828 9.60100548,19.181858 Z" id="Oval" stroke="#DADADA"></path>
                <rect id="Rectangle" fill="#DADADA" x="10.6363636" y="24.0515464" width="5.74605479" height="1.0588735" rx="0.52943675"></rect>
                <rect id="Rectangle" fill="#DADADA" x="11.4545455" y="25.9278351" width="4.30954109" height="1.0588735" rx="0.52943675"></rect>
            </g>
            <g id="Group-5" transform="translate(61.457320, 111.778603) rotate(42.000000) translate(-61.457320, -111.778603) translate(49.457320, 101.278603)" stroke="#DADADA" stroke-width="2">
                <use id="Rectangle-11" mask="url(#mask-6)" xlink:href="#path-5"></use>
                <use id="Rectangle-11" mask="url(#mask-8)" transform="translate(14.504529, 16.630769) scale(-1, 1) translate(-14.504529, -16.630769) " xlink:href="#path-7"></use>
            </g>
            <g id="Group-2" transform="translate(167.000000, 110.000000)">
                <use id="Rectangle-4" stroke="#DADADA" mask="url(#mask-10)" stroke-width="2" xlink:href="#path-9"></use>
                <path d="M12.1971918,1.29072473 C12.1971918,1.29072473 9.66663363,1.48104939 8.62808305,6.40479038 C7.58953246,11.3285314 7.03167743,12.0439715 7.03167743,12.0439715" id="Path-2" stroke="#DADADA"></path>
                <path d="M17.9632409,1.44007538 C17.9632409,1.44007538 19.9797676,2.53877143 19.7104448,7.28120128 C19.4411219,12.0236311 18.6634448,14.3589065 18.6634448,14.3589065" id="Path-3" stroke="#DADADA"></path>
                <use id="Rectangle-5" stroke="#DADADA" mask="url(#mask-12)" stroke-width="2" xlink:href="#path-11"></use>
                <path d="M12.260035,4.3407041 L12.1895128,11.0226872 L13.7445799,11.0226872 L13.7445799,8.38688198 C13.7445799,7.60812099 14.1481099,7.12888328 14.4925871,7.12888328 C14.7976949,7.12888328 14.8862746,7.4383911 14.8862746,7.90764428 L14.8862746,11.0226872 L16.4511838,11.0226872 L16.4511838,7.67800996 C16.4511838,6.61969363 16.0574962,5.9407741 15.0339078,5.9407741 C14.55164,5.9407741 14.0890568,6.08055149 13.7445799,6.39005931 L13.7445799,3.78420552 L12.260035,4.3407041 Z" id="path3866" fill="#DADADA" transform="translate(14.320348, 7.403446) rotate(14.000000) translate(-14.320348, -7.403446) "></path>
                <rect id="Rectangle" fill="#DADADA" transform="translate(16.031887, 0.783306) rotate(7.000000) translate(-16.031887, -0.783306) " x="14.5014678" y="0.283305896" width="3.06083777" height="0.901308199"></rect>
            </g>
            <g id="Group" transform="translate(22.166403, 59.899381) rotate(-24.000000) translate(-22.166403, -59.899381) translate(10.666403, 50.899381)">
                <use id="Rectangle" stroke="#DADADA" mask="url(#mask-14)" stroke-width="2" xlink:href="#path-13"></use>
                <use id="Rectangle" stroke="#DADADA" mask="url(#mask-16)" stroke-width="2" transform="translate(11.499877, 15.446809) scale(1, -1) translate(-11.499877, -15.446809) " xlink:href="#path-15"></use>
                <rect id="Rectangle-2" fill="#DADADA" x="4.00561798" y="14.0425532" width="2.06741573" height="1.0212766" rx="0.510638298"></rect>
                <path d="M2.20268412,14.5292631 C2.27070273,14.2604606 2.55006563,14.0425532 2.83930208,14.0425532 L2.97530466,14.0425532 C3.25888045,14.0425532 3.48876404,14.2794215 3.48876404,14.5531915 L3.48876404,14.5531915 C3.48876404,14.8352092 3.26667837,15.0638298 2.97562468,15.0638298 L2.58055509,15.0638298 C2.29715605,15.0638298 2.12222144,14.8472433 2.1905743,14.5771199 L2.20268412,14.5292631 Z" id="Rectangle-2" fill="#DADADA"></path>
                <path d="M1.81504367,16.3164972 C1.88306228,16.0476947 2.16050875,15.8297872 2.44521375,15.8297872 L5.56602221,15.8297872 C5.84603693,15.8297872 6.07303371,16.0666556 6.07303371,16.3404255 L6.07303371,16.3404255 C6.07303371,16.6224433 5.83683305,16.8510638 5.56907111,16.8510638 L2.18373788,16.8510638 C1.90540702,16.8510638 1.73458099,16.6344773 1.80293385,16.3643539 L1.81504367,16.3164972 Z" id="Rectangle-2" fill="#DADADA"></path>
                <rect id="Rectangle-2" fill="#DADADA" x="6.58988764" y="14.0425532" width="2.06741573" height="1.0212766" rx="0.510638298"></rect>
                <rect id="Rectangle-2" fill="#DADADA" x="6.58988764" y="15.8297872" width="2.06741573" height="1.0212766" rx="0.510638298"></rect>
                <rect id="Rectangle-2" fill="#DADADA" x="9.1741573" y="14.0425532" width="2.06741573" height="1.0212766" rx="0.510638298"></rect>
                <rect id="Rectangle-2" fill="#DADADA" x="9.1741573" y="15.8297872" width="4.65168539" height="1.0212766" rx="0.510638298"></rect>
                <rect id="Rectangle-2" fill="#DADADA" x="11.758427" y="14.0425532" width="2.06741573" height="1.0212766" rx="0.510638298"></rect>
                <rect id="Rectangle-2" fill="#DADADA" x="16.9269663" y="14.0425532" width="2.06741573" height="1.0212766" rx="0.510638298"></rect>
                <path d="M16.9269663,16.3404255 C16.9269663,16.0584078 17.1492728,15.8297872 17.4339778,15.8297872 L20.5547863,15.8297872 C20.834801,15.8297872 21.1166035,16.0463737 21.1849563,16.3164972 L21.1970661,16.3643539 C21.2650847,16.6331564 21.0840241,16.8510638 20.8162621,16.8510638 L17.4309289,16.8510638 C17.152598,16.8510638 16.9269663,16.6141955 16.9269663,16.3404255 L16.9269663,16.3404255 Z" id="Rectangle-2" fill="#DADADA"></path>
                <rect id="Rectangle-2" fill="#DADADA" x="14.3426966" y="14.0425532" width="2.06741573" height="1.0212766" rx="0.510638298"></rect>
                <rect id="Rectangle-2" fill="#DADADA" x="14.3426966" y="15.8297872" width="2.06741573" height="1.0212766" rx="0.510638298"></rect>
                <path d="M19.4887288,14.5531915 C19.4887288,14.2711737 19.7129517,14.0425532 20.0021882,14.0425532 L20.1381907,14.0425532 C20.4217665,14.0425532 20.7064558,14.2591397 20.7748087,14.5292631 L20.7869185,14.5771199 C20.8549371,14.8459223 20.6879914,15.0638298 20.3969377,15.0638298 L20.0018681,15.0638298 C19.7184691,15.0638298 19.4887288,14.8269614 19.4887288,14.5531915 L19.4887288,14.5531915 Z" id="Rectangle-2" fill="#DADADA"></path>
            </g>
            <path d="M104.968931,22.4717117 C105.047083,22.1736177 105.088679,21.8608652 105.088679,21.5384615 C105.088679,19.4992563 103.424588,17.8461538 101.371827,17.8461538 C100.394982,17.8461538 99.506152,18.220501 98.8427772,18.832662 C98.197375,17.1753581 96.5776067,16 94.681494,16 C92.2181812,16 90.2212717,17.983723 90.2212717,20.4307692 C90.2212717,20.854382 90.2811145,21.26411 90.3928602,21.6520658 C88.4070469,22.4212451 87,24.3396986 87,26.5846154 C87,29.5074762 89.3851975,31.8769231 92.3274878,31.8769231 C93.3312354,31.8769231 94.2701486,31.6011671 95.0716472,31.121756 C95.8078183,31.6731132 96.7239427,32 97.7169231,32 C98.8465558,32 99.8767233,31.5769511 100.655638,30.8816386 C101.471129,31.5057527 102.4929,31.8769231 103.601939,31.8769231 C106.270527,31.8769231 108.433846,29.7278899 108.433846,27.0769231 C108.433846,24.8975903 106.971807,23.0574802 104.968931,22.4717117 Z" id="Combined-Shape" stroke="#DADADA"></path>
            <g id="Group" transform="translate(67.000000, 264.000000)">
                <path d="M0,18.8961747 C0,18.8961747 3.41246968,7.04243674 3.52991045,6.86414804 C3.64751432,6.68585934 7.13000011,6.5 7.13000011,6.5 L3.73710389,18.6857107 L3,18.8961747 L0,18.8961747 Z" id="Shape" stroke="#DADADA"></path>
                <path d="M13.267496,4.26519385 C19.8923055,5.65894966 24.8795299,0.0764819692 24.9300009,0.00165875786 C24.9803481,-0.0732906309 24.2172222,2.41656844 24.2172222,2.41656844 C24.2172222,2.41656844 25.6180389,2.36849484 26.6846093,1.80334617 C27.7516744,1.23844985 23.2128746,8.81666583 17.3375838,10.1923783 C14.2219911,11.0252754 11.341311,10.8444632 9.06751966,10.2277079 C8.28719889,10.0550972 5.74558976,9.36377113 3.79738562,10.464543 L4.80940277,5.3105738 C4.80940277,5.3105738 6.64206797,2.87194276 13.267496,4.26519385 Z" id="Shape" stroke="#DADADA" stroke-width="3" fill="#DADADA"></path>
                <path d="M6.43530938,5.90042198 C6.43258791,6.26822916 6.42887681,6.90151365 6.30975048,7.72961607 C6.01669723,9.08059773 6.8598593,8.71014082 7.01226183,8.1480204 C7.1144408,7.82702504 7.21327978,7.49479988 7.21327978,7.49479988 L8.0544626,7.65466668 C8.0544626,7.65466668 8.05112261,8.03130628 8.04382411,8.34321687 C7.93372812,9.17081458 8.64366168,8.94621877 8.73693401,8.32466879 C8.77899315,8.00821582 8.96875409,6.690545 8.97481556,6.00451835 C9.07291232,5.54422311 8.41617121,5.27319401 8.26970643,6.00161627 C8.17198078,6.28551547 8.03702042,6.8693384 8.03702042,6.8693384 C8.03702042,6.8693384 7.34329201,6.7391233 7.33265352,6.71641137 C7.30110916,6.64827556 7.34811644,6.46658007 7.3171906,6.30002587 C7.07980386,5.1955949 6.43914418,5.40971798 6.43530938,5.90042198 L6.43530938,5.90042198 Z" id="Shape" stroke="#FFFFFF" stroke-width="0.25" fill="#FFFFFF"></path>
                <path d="M9.96863211,6.27323023 C10.0635126,5.81634179 10.2829623,5.69142614 10.4511989,5.66732625 C10.5250498,5.65672735 10.6586494,5.7754603 10.7703536,5.90845131 C11.2536626,6.80973663 11.2360967,8.68296664 11.1950272,8.81759795 C11.0387898,9.33126624 10.5397705,9.37454509 10.59754,8.83702928 C10.607931,8.52436162 10.6403413,8.22544731 10.6403413,8.22544731 L10.0068564,8.30922912 C9.75635715,9.38956021 9.23123641,9.10200186 9.3785671,8.62631298 C9.52305262,8.08703068 9.84344431,6.87648449 9.96863211,6.27323023 L9.96863211,6.27323023 Z M10.0765014,7.56162789 L10.7097389,7.50711925 C10.7097389,7.50711925 10.6143636,6.36647535 10.4546626,6.53895989 L10.0765014,7.56162789 L10.0765014,7.56162789 Z" id="Shape" stroke="#FFFFFF" stroke-width="0.25" fill="#FFFFFF"></path>
                <path d="M13.2694182,6.22115479 C13.2906952,5.96564551 13.0024664,5.49147075 12.426751,5.73347905 C11.5684971,5.95971517 11.6421006,7.5516957 11.6421006,7.5516957 C11.6421006,7.55156952 11.6845308,8.32074709 12.0233543,8.76173718 C12.3468386,9.19477809 12.8353431,9.06670801 12.9330688,9.05396409 C13.4539836,8.74457705 13.1671155,8.40717862 13.0716165,8.4240864 C12.9503873,8.44541038 12.7872225,8.51051793 12.6323459,8.43809209 C12.3566112,8.30926495 12.2817706,7.83572108 12.2797914,7.57100085 C12.288698,7.11625742 12.3428801,6.20563496 12.7961292,6.30392717 C13.1185001,6.5485852 13.2566768,6.36979179 13.2694182,6.22115479 L13.2694182,6.22115479 Z" id="Shape" stroke="#FFFFFF" stroke-width="0.25" fill="#FFFFFF"></path>
                <path d="M13.8434626,6.22960739 C13.8090731,6.73949036 14.113507,7.17593806 13.9560327,8.15406544 C13.9168187,8.39746168 13.7975687,8.84879832 13.7813635,8.91377969 C13.6692883,9.36751371 14.1483914,9.492177 14.4515883,8.67631379 C14.5218518,8.48427175 14.5498088,8.04731934 14.5498088,8.04731934 L14.7482289,7.96896316 C14.7482289,7.96896316 15.114762,8.71946646 15.2389602,9.03730739 C15.3631583,9.35489596 15.9780877,9.3921183 15.8277881,8.74293547 C15.7561639,8.53310241 15.6036376,8.24831997 15.3757761,7.90398178 C15.3757761,7.90398178 15.2117454,7.6546552 15.1103087,7.63648565 C15.1103087,7.63648565 15.5965865,6.83122134 15.5985658,6.559309 C15.6007925,6.2871443 15.4360196,6.12866545 15.0393029,6.68510789 C14.6430811,7.2416765 14.6199486,7.39435118 14.6199486,7.39435118 C14.6199486,7.39435118 14.6115367,6.82705749 14.4937711,6.42745359 C14.4298165,6.00551629 13.8824292,5.81852135 13.8434626,6.22960739 L13.8434626,6.22960739 Z" id="Shape" stroke="#FFFFFF" stroke-width="0.25" fill="#FFFFFF"></path>
                <path d="M16.5192304,6.12985534 C16.359282,6.39369233 16.3208103,6.82446205 16.485212,7.41964095 C16.730021,8.30755147 17.227927,8.71321188 17.8278882,8.45227697 C18.4278495,8.19108971 18.1716599,7.77659688 18.1159934,7.77154978 C18.0608217,7.76625033 18.0381839,7.72486413 17.8088379,7.88813772 C17.5792445,8.05166366 17.3507644,7.99046761 17.0948222,7.63818024 C16.9221323,7.40096669 16.7365772,6.88805547 16.8594147,6.55835386 C16.891825,6.46069254 16.9427907,6.41425925 16.9674077,6.38889759 C17.0638963,6.29098391 17.1982382,6.32114031 17.227927,6.34082399 C17.6119022,6.49665311 17.6166029,6.21161831 17.4321612,6.01490771 C17.120305,5.75069219 16.8056037,5.76305757 16.5192304,6.12985534 L16.5192304,6.12985534 Z" id="Shape" stroke="#FFFFFF" stroke-width="0.25" fill="#FFFFFF"></path>
                <path d="M18.0282738,6.05978428 C17.9444029,5.72238585 18.2206325,5.36113989 18.5359523,6.09423072 C18.8038938,6.54897415 19.2452674,7.42502399 19.2769354,7.56331444 C19.2769354,7.56331444 19.5010859,7.61315453 20.0190319,7.3528505 C20.0190319,7.3528505 20.2617378,7.26553573 20.2465223,7.43095433 C20.2315542,7.59637293 20.1037687,7.64495124 20.0745747,7.66652758 C20.0457518,7.68797774 18.8637662,8.26069706 18.7943687,8.09098842 C18.7249711,7.92102744 18.7502066,7.8267729 18.5413953,7.29114974 C18.2270651,6.62934916 18.1123921,6.39718271 18.0282738,6.05978428 L18.0282738,6.05978428 Z" id="Shape" stroke="#FFFFFF" stroke-width="0.25" fill="#FFFFFF"></path>
                <path d="M19.5035479,5.49635163 C19.416337,5.25800248 19.6320757,5.04299615 19.8371758,5.26771814 C19.9983613,5.44474506 20.3494314,6.30439184 20.6183625,6.62879399 C20.7548073,6.7516908 20.9686904,6.72418413 21.0236147,6.56318173 C21.0798997,6.31751429 20.8807373,5.82125849 20.6981512,5.41812163 C20.5977041,5.22809843 20.5457487,5.07529757 20.5288013,4.95845728 C20.4742481,4.57134495 20.8068864,4.57740146 21.0405621,4.92918412 C21.2571667,5.33030214 21.5093978,6.01948322 21.5102637,6.27410926 C21.5108822,6.52860912 21.5221392,6.83963647 21.2325497,6.99660118 C21.1578329,7.03710413 20.5238532,7.30485262 20.1189721,6.62589191 C19.7147095,5.94730974 19.5907588,5.73482696 19.5035479,5.49635163 L19.5035479,5.49635163 Z" id="Shape" stroke="#FFFFFF" stroke-width="0.25" fill="#FFFFFF"></path>
                <path d="M21.2670651,4.15643357 C21.6145478,3.80944566 21.8928804,3.64352235 22.1595848,3.66926254 C22.3236155,3.7153173 22.4645136,3.93562308 22.4817084,4.14406818 C22.4777499,4.33169401 22.44101,4.49294876 22.44101,4.49294876 C22.6855715,4.45547406 22.8138519,4.65306791 22.8138519,4.65306791 C23.3548066,5.38527549 22.9509152,5.64356067 22.4371752,5.96682723 C22.2675779,6.06183882 22.063591,6.11407628 22.0424377,6.04985197 C22.001863,5.92859547 21.1656284,4.52083397 21.1656284,4.52083397 C21.1235692,4.45067932 21.046502,4.35806509 21.2670651,4.15643357 L21.2670651,4.15643357 Z M21.4985141,4.3859503 L21.8154421,4.82000063 C21.8154421,4.82000063 22.2660934,4.4949676 22.1404108,4.23554682 C22.0153467,3.97637839 21.7429519,4.21687256 21.4985141,4.3859503 L21.4985141,4.3859503 Z M21.986029,5.1633294 C21.986029,5.1633294 22.2674541,5.72355716 22.2585475,5.68961543 C22.2498883,5.6556737 22.8606117,5.30944286 22.6149369,4.97280149 C22.3691383,4.63616013 21.986029,5.1633294 21.986029,5.1633294 L21.986029,5.1633294 Z" id="Shape" stroke="#FFFFFF" stroke-width="0.25" fill="#FFFFFF"></path>
            </g>
            <g id="Group-4" transform="translate(227.937310, 199.242405) rotate(29.000000) translate(-227.937310, -199.242405) translate(212.937310, 190.242405)">
                <path d="M4.23349489,2.79432839 C7.8448949,2.79432839 10.7725119,6.50688903 10.7725119,11.0865665 C10.7725119,11.0865665 11.3115411,12.1812792 12.2342952,12.9391369 C12.5584734,13.2053844 14.0953622,12.8986122 14.3414754,13.1007449 C14.8333992,13.5047618 15.2540869,14.3738044 15.2540869,14.3738044 C15.2540869,14.6762783 12.7052459,16.2452947 11.0340726,15.2381055 C9.26908146,14.1743738 8.20948426,10.7872007 8.15690509,11.0865665 C7.86409018,12.7537434 0.622094883,2.79432839 4.23349489,2.79432839 Z" id="Fill-3" stroke="#DADADA" fill="#DADADA" transform="translate(9.240348, 9.182797) rotate(-34.000000) translate(-9.240348, -9.182797) "></path>
                <path d="M12.8822307,6.19017172 C12.5924966,5.65159471 14.760991,3.57982748 15.8269413,3.50750389 C19.2748468,3.27356716 23.1647703,5.71482786 23.1647703,9.21301123 C23.1647703,9.21301123 23.2589924,9.39953408 24.2056523,10.1770256 C24.4969936,10.4163042 26.6295694,10.4224353 26.9594323,10.6933517 C27.1865361,10.879872 27.4805215,12.7575367 27.4805215,12.7575367 C27.4805215,13.0600106 25.0975043,14.3717394 23.4263309,13.3645502 C21.6613398,12.3008185 20.6017426,8.91364541 20.5491635,9.21301126 C20.2563486,10.8801881 14.1869017,8.61538007 12.8822307,6.19017172 Z" id="Fill-3" stroke="#DADADA" transform="translate(20.168180, 8.615380) scale(-1, -1) rotate(-34.000000) translate(-20.168180, -8.615380) "></path>
                <path d="M12.6160902,10.0086207 L14.2470677,8.76724138" id="Line" stroke="#DADADA" stroke-linecap="square"></path>
                <path d="M14.6177444,11.6049129 L16.1549528,10.2472223" id="Line" stroke="#FAFAFA" stroke-linecap="square"></path>
            </g>
            <g id="Group-6" transform="translate(156.000000, 56.000000) rotate(-34.000000) translate(-156.000000, -56.000000) translate(145.000000, 46.000000)" stroke="#DADADA">
                <path d="M11.0553471,7.69926486 L11.3843373,8.44155844 L9.63162651,8.44155844 L9.95472403,7.71256041 C8.51658082,7.45912552 7.42168675,6.13822063 7.42168675,4.10670411 C7.42168675,1.83863406 8.78640914,0 10.4698795,0 C12.1533499,0 13.5180723,1.83863406 13.5180723,4.10670411 C13.5180723,6.10498171 12.4587136,7.41571098 11.0553471,7.69926486 Z" id="Combined-Shape"></path>
                <path d="M4.52445109,13.5876936 L4.85344131,14.3299872 L3.10073046,14.3299872 L3.42382799,13.6009892 C1.98568478,13.3475543 0.890790703,12.0266494 0.890790703,9.99513285 C0.890790703,7.7270628 2.25551309,5.88842875 3.93898347,5.88842875 C5.62245386,5.88842875 6.98717624,7.7270628 6.98717624,9.99513285 C6.98717624,11.9934105 5.92781756,13.3041397 4.52445109,13.5876936 Z" id="Combined-Shape" transform="translate(3.938983, 10.109208) rotate(-13.000000) translate(-3.938983, -10.109208) "></path>
                <path d="M18.4770339,10.6955981 L18.8060241,11.4378917 L17.0533133,11.4378917 L17.3764108,10.7088936 C15.9382676,10.4554588 14.8433735,9.13455386 14.8433735,7.10303734 C14.8433735,4.83496729 16.2080959,2.99633324 17.8915663,2.99633324 C19.5750366,2.99633324 20.939759,4.83496729 20.939759,7.10303734 C20.939759,9.10131495 19.8804004,10.4120442 18.4770339,10.6955981 Z" id="Combined-Shape" transform="translate(17.891566, 7.217112) rotate(15.000000) translate(-17.891566, -7.217112) "></path>
                <path d="M5.0358412,14.0581498 C5.04492695,14.7603177 5.59489849,16.1493799 6.74886015,17.4025975 C7.73000357,18.4681321 9.33278949,19.4122263 9.43982362,20.0000001" id="Path-6"></path>
                <path d="M10.4652163,8.31385301 C10.4032963,8.65709664 9.8524351,11.3147364 10.0344209,12.0779221 C10.3206504,13.2782706 12.0848486,13.513869 12.6330012,14.5454548 C13.1811538,15.5770406 12.757504,16.4120139 12.4944081,17.4025971" id="Path-9"></path>
                <path d="M16.8271653,11.099499 C16.7946127,13.3467496 17.645275,16.8088804 15.1819958,18.1429946" id="Path-11"></path>
            </g>
            <g id="Group-7" transform="translate(102.000000, 173.000000)">
                <path d="M0.705331148,7.37369215 C0.705331148,3.77060153 3.86319589,3.14904531 7.75862031,3.14904531 C11.6540459,3.14904531 14.8119142,3.77060153 14.8119142,7.37369215 L14.8118905,10.4324238 C14.8118905,14.0355144 11.6540258,16.9563978 7.75860135,16.9563978 C3.86319589,16.9563794 0.705331148,14.035498 0.705331148,10.4324052 L0.705331148,7.37369215 Z" id="Fill-3" stroke="#DADADA" fill="#FAFAFA"></path>
                <ellipse id="Combined-Shape" fill="#DADADA" cx="5.17241579" cy="11.1427757" rx="0.822884013" ry="0.847819892"></ellipse>
                <ellipse id="Combined-Shape" fill="#DADADA" cx="10.1097199" cy="11.1427757" rx="0.822884013" ry="0.847819892"></ellipse>
                <path d="M14.8119142,7.78177543 L14.8119142,5.1352988 C14.8119142,3.65695975 13.6362257,2.45854394 12.1859355,2.45854394 L3.95627633,2.45854394 L3.9458493,0 C2.54388364,0.00181240927 1.24787835,0.745568922 0.540239245,1.95441147 C-0.18631132,3.19554302 -0.179594118,4.73311327 0.557778505,5.96786767 C1.0962815,6.86959854 1.96326646,7.50697954 2.9543874,7.7650873 L3.97897349,7.81205472 L13.6363636,7.81205472 L13.6363636,9.56825306 L14.8119142,9.56825306 L14.8119142,7.78177543 Z" id="Combined-Shape" stroke="#DADADA" fill="#DADADA"></path>
                <path d="M5.73830559,13.5651183 C5.94551761,13.5651183 9.57172796,13.5651183 9.77893988,13.5651183 C9.9861518,13.5651183 9.79222839,13.9862401 9.79222839,13.9862401 C9.35150397,14.7552026 8.6051553,15.2607581 7.75862273,15.2607581 C6.91209845,15.2607581 6.16574181,14.7552026 5.72501687,13.9862401 C5.72501687,13.9862401 5.53109357,13.5651183 5.73830559,13.5651183 Z" id="Fill-3" fill="#DADADA"></path>
            </g>
            <g id="Face" transform="translate(263.000000, 268.000000)">
                <g id="Group-8">
                    <path d="M8.32586515,1.6531152 L8.54979241,1.6531152 C12.1669692,1.6531152 15.0992685,4.61361876 15.0992685,8.26558167 C15.0992574,11.9175333 12.1669546,14.8780368 8.54977786,14.8780368 L8.32586515,14.8780255 C4.70868727,14.8780255 1.77638454,11.917522 1.77638454,8.26555906 C1.77638454,4.61361876 4.70868727,1.6531152 8.32586515,1.6531152 Z" id="Fill-5" stroke="#DADADA" fill="#FAFAFA"></path>
                    <path d="M6.10149194,11.0680349 C6.22437506,11.0680349 7.38702969,12.2159515 8.52303241,12.2159515 C9.60225347,12.2159515 10.6574204,11.0680349 10.7741613,11.0680349 C11.0137852,11.0680349 10.7895283,11.5372296 10.7895283,11.5372296 C10.2798659,12.3939725 9.41677358,12.9572394 8.4378266,12.9572394 C7.4588892,12.9572394 6.59578763,12.3939725 6.08612461,11.5372296 C6.08612461,11.5372296 5.86186787,11.0680349 6.10149194,11.0680349 Z" id="Fill-3" fill="#DADADA"></path>
                    <path d="M6.10632184,10.2493143 C6.53554,10.2493143 6.88349007,9.90392265 6.88349007,9.4778605 C6.88349007,9.05179835 6.53554,8.70640674 6.10632184,8.70640674 C5.67710368,8.70640674 5.32915361,9.05179835 5.32915361,9.4778605 C5.32915361,9.90392265 5.67710368,10.2493143 6.10632184,10.2493143 Z" id="Oval" fill="#DADADA"></path>
                    <ellipse id="Oval" fill="#DADADA" cx="10.7693312" cy="9.4778605" rx="0.777168234" ry="0.771453762"></ellipse>
                    <path d="M14.956,4.78547507 C15.8019077,5.15975183 16.5533614,6.13582414 16.5533614,6.96033356 C16.5533614,7.22139572 16.4988375,7.47009478 16.4002593,7.69630265 L16.0754363,8.16383449 L16.4664074,8.41966068 C16.7878553,8.73160903 16.9866771,9.16256625 16.9866771,9.63860061 C16.9866771,10.114635 16.7878553,10.5456109 16.4664074,10.8575791 L16.0184476,11.1506676 L16.0343685,11.1538019 C16.4332556,11.3174857 16.7131472,11.700767 16.7131472,12.1475269 C16.7131472,12.5942868 16.278155,13.3214085 16.278155,13.3214085 C16.4481883,13.4863927 16.5533503,13.7143969 16.5533503,13.9661725 C16.5533503,14.469762 16.1326803,14.878037 15.6137539,14.878037 C15.0948165,14.878037 14.6741464,14.469762 14.6741464,13.9661725 C14.6741464,13.7143969 14.7793084,13.4863927 14.9493417,13.3214085 C14.9493417,13.3214085 14.490435,12.5942868 14.490435,12.1475269 C14.490435,11.8496995 14.5189459,11.2269875 14.5189459,11.2269875 C14.4879491,11.2142652 14.4574019,11.2007132 14.4273339,11.1863602 C14.6424462,10.7459606 14.810429,10.2778877 14.9246342,9.7888539 C15.0388394,9.29982005 15.0992669,8.78982522 15.0992685,8.26558167 C15.0992685,8.21881511 15.0987877,8.17216195 15.0978307,8.12562694 C14.199492,8.07206299 12.4404394,7.94312164 11.5464999,7.71453766 C9.9536633,7.30724287 7.17940576,5.98828088 7.17940576,5.98828088 C7.17940576,5.98828088 3.56550242,8.62121951 2.02164995,8.89499853 L1.80722863,8.91143009 C1.88564835,9.72818622 2.11124181,10.5014533 2.45690003,11.2038615 C2.43957122,11.2118492 2.42208735,11.2195597 2.40445415,11.2269875 C2.40445415,11.2269875 2.43222571,11.8496995 2.43222571,12.1475269 C2.43222571,12.5942868 1.98508307,13.3214085 1.98508307,13.3214085 C2.15075758,13.4863927 2.2532261,13.7143969 2.2532261,13.9661725 C2.2532261,14.469762 1.84334202,14.878037 1.33771415,14.878037 C0.832085384,14.878037 0.422201195,14.469762 0.422201195,13.9661725 C0.422201195,13.7143969 0.524669828,13.4863927 0.690344442,13.3214085 C0.690344442,13.3214085 0.266512526,12.5942868 0.266512526,12.1475269 C0.266512526,11.700767 0.539221859,11.3174857 0.927877586,11.1538019 L0.943398524,11.1506676 L0.506923413,10.8575791 C0.193723504,10.5456109 0,10.114635 0,9.63860061 C0,9.16256625 0.193723504,8.73160903 0.506923413,8.41966068 L0.887876182,8.16383449 L0.571386076,7.69630265 C0.475325307,7.47009478 0.422201195,7.22139572 0.422201195,6.96033356 C0.422201195,6.15667648 1.12287908,5.20902578 1.92364972,4.81501468 C2.07842096,4.41063663 2.2699913,4.00842626 2.49908771,3.61453639 C3.79493913,1.38656691 5.92337422,0.0575945337 7.84712428,0.071359473 L8.72760371,0.00206088362 C11.7302914,0.190193656 14.3017218,2.09402052 14.956,4.78547507 Z" id="Combined-Shape" stroke="#DADADA" fill="#DADADA"></path>
                </g>
            </g>
            <path d="M256.889729,106.471247 C252.959994,106.471247 251.388101,109.165922 251.388101,111.860597 C251.388101,114.555272 252.174048,116.576278 255.317835,119.944622 C258.461623,123.312965 262.391357,125.333972 262.391357,125.333972 C262.391357,125.333972 266.321091,123.312965 269.464879,119.944622 C272.608666,116.576278 273.394613,114.555272 273.394613,111.860597 C273.394613,109.165922 271.822719,106.471247 267.892985,106.471247 C263.967578,106.471247 262.391357,109.165922 262.391357,109.165922 C262.391357,109.165922 260.819463,106.471247 256.889729,106.471247 Z" id="Shape" stroke="#DADADA" transform="translate(262.391357, 115.902609) rotate(-33.000000) translate(-262.391357, -115.902609) "></path>
            <path d="M250.041258,37.8219053 L244.055088,34.1198199 L244.055088,32.7952205 L250.041258,29.1101172 L250.041258,31.0205971 L245.906131,33.4575202 L250.041258,35.9114254 L250.041258,37.8219053 Z M257.886962,27.1826554 L253.259355,39.5965287 L251.085654,39.5965287 L255.713261,27.1826554 L257.886962,27.1826554 Z M258.888903,35.9114254 L263.049503,33.4575202 L258.888903,31.0205971 L258.888903,29.1101172 L264.875073,32.7952205 L264.875073,34.1198199 L258.888903,37.8219053 L258.888903,35.9114254 Z" id="&lt;/&gt;" fill="#DADADA" transform="translate(254.465080, 33.389592) rotate(39.000000) translate(-254.465080, -33.389592) "></path>
        </g>
    </g>
</svg>