<?xml version="1.0" encoding="UTF-8" standalone="no"?>
<svg width="96px" height="100px" viewBox="0 0 96 100" version="1.1" xmlns="http://www.w3.org/2000/svg" xmlns:xlink="http://www.w3.org/1999/xlink" xmlns:sketch="http://www.bohemiancoding.com/sketch/ns">
    <title>Untitled 7</title>
    <description>Created with Sketch (http://www.bohemiancoding.com/sketch)</description>
    <defs></defs>
    <g id="Page-1" stroke="none" stroke-width="1" fill="none" fill-rule="evenodd" sketch:type="MSPage">
        <g id="books" sketch:type="MSLayerGroup" fill="#FFFFFF">
            <rect id="Rectangle" sketch:type="MSShapeGroup" x="21" y="31" width="17.327" height="4.553"></rect>
            <path d="M88.293,32.85 L88.293,26.243 L61.328,26.243 L61.328,6.607 L53.781,6.607 L53.781,0 L6.556,0 C3.029,0 0.16,2.871 0.16,6.399 L0.16,73.794 L0.166,73.794 C0.295,77.208 3.111,79.945 6.556,79.945 L7.262,79.945 C9.067,79.945 25.966,79.941 39.978,79.938 L39.978,93.848 L39.984,93.848 C40.113,97.262 42.929,99.999 46.374,99.999 L47.08,99.999 C50.214,99.999 93.565,99.988 93.565,99.988 L95.841,99.987 L95.841,32.85 L88.293,32.85 L88.293,32.85 Z M44.53,87.208 L44.53,32.642 C44.53,31.624 45.357,30.796 46.373,30.796 L83.74,30.796 L83.74,87.209 L44.53,87.208 L44.53,87.208 Z M56.776,11.16 L56.776,26.243 L53.782,26.243 L53.782,11.16 L56.776,11.16 L56.776,11.16 Z M4.713,6.399 C4.713,5.381 5.54,4.552 6.556,4.552 L49.229,4.552 L49.229,26.242 L46.373,26.242 C45.732,26.242 45.114,26.338 44.53,26.514 L44.53,24.115 L14.348,24.115 L14.348,43.18 L39.977,43.18 L39.977,67.152 L4.713,67.152 L4.713,6.399 L4.713,6.399 Z M39.977,28.669 L39.977,38.629 L18.901,38.629 L18.901,28.669 C18.901,28.669 39.977,28.669 39.977,28.669 L39.977,28.669 Z M7.262,75.393 L6.556,75.393 C5.539,75.393 4.713,74.567 4.713,73.551 C4.713,72.534 5.54,71.706 6.556,71.706 L39.978,71.706 L39.978,75.386 C25.966,75.389 9.066,75.393 7.262,75.393 L7.262,75.393 Z M91.287,95.437 C82.318,95.439 49.778,95.448 47.079,95.448 L46.373,95.448 C45.357,95.448 44.53,94.622 44.53,93.606 C44.53,92.589 45.357,91.761 46.373,91.761 L88.293,91.761 L88.293,37.402 L91.287,37.402 L91.287,95.437 L91.287,95.437 Z" id="Shape" sketch:type="MSShapeGroup"></path>
            <rect id="Rectangle" sketch:type="MSShapeGroup" x="54" y="39" width="17.79" height="4.553"></rect>
            <rect id="Rectangle" sketch:type="MSShapeGroup" x="62" y="67" width="16.072" height="4.553"></rect>
            <rect id="Rectangle" sketch:type="MSShapeGroup" x="62" y="75" width="9.798" height="4.553"></rect>
            <rect id="Rectangle" sketch:type="MSShapeGroup" x="54" y="46" width="11.559" height="4.553"></rect>
        </g>
    </g>
</svg>