<?xml version="1.0" encoding="UTF-8" standalone="no"?>
<svg width="28px" height="24px" viewBox="0 0 28 24" version="1.1" xmlns="http://www.w3.org/2000/svg" xmlns:xlink="http://www.w3.org/1999/xlink" xmlns:sketch="http://www.bohemiancoding.com/sketch/ns">
    <title>Untitled 9</title>
    <description>Created with Sketch (http://www.bohemiancoding.com/sketch)</description>
    <defs></defs>
    <g id="Page-1" stroke="none" stroke-width="1" fill="none" fill-rule="evenodd" sketch:type="MSPage">
        <g id="icon_5040" sketch:type="MSLayerGroup" fill="#FFFFFF">
            <path d="M19.566,17.167 C20.793,16.484 20.628,13.855 19.212,11.293 C18.602,10.189 17.854,9.295 17.104,8.67 C16.229,9.312 15.166,9.701 14.002,9.701 C12.837,9.701 11.771,9.31 10.898,8.67 C10.148,9.295 9.4,10.19 8.787,11.293 C7.365,13.855 7.209,16.484 8.437,17.167 C8.986,17.479 9.564,17.245 10.16,16.671 C10.055,17.253 9.994,17.884 9.994,18.544 C9.994,21.482 11.133,23.856 12.537,23.856 C13.383,23.856 13.802,23.002 14.003,21.668 C14.203,22.982 14.623,23.856 15.463,23.856 C16.859,23.856 18.008,21.481 18.008,18.544 C18.008,17.884 17.946,17.253 17.84,16.671 C18.439,17.245 19.016,17.482 19.566,17.167 L19.566,17.167 Z M14,8.701 C16.361,8.701 18.277,6.785 18.277,4.422 C18.277,2.06 16.361,0.145 14,0.145 C11.637,0.145 9.72,2.061 9.72,4.423 C9.721,6.786 11.638,8.701 14,8.701 L14,8.701 Z M22.594,11.414 C24.532,11.414 26.106,9.841 26.106,7.901 C26.106,5.961 24.544,4.388 22.594,4.388 C20.655,4.388 19.081,5.96 19.081,7.901 C19.081,9.841 20.652,11.414 22.594,11.414 L22.594,11.414 Z M26.874,13.543 C26.372,12.636 25.758,11.902 25.143,11.39 C24.424,11.915 23.548,12.236 22.596,12.236 C21.84,12.236 21.137,12.029 20.52,11.686 C21.016,12.778 21.332,13.885 21.381,14.875 C21.475,16.391 21,17.516 20.052,18.04 C19.848,18.157 19.626,18.223 19.399,18.264 C19.343,18.66 19.305,19.065 19.305,19.495 C19.305,21.907 20.243,23.855 21.393,23.855 C22.086,23.855 22.432,23.146 22.596,22.06 C22.759,23.138 23.104,23.855 23.795,23.855 C24.941,23.855 25.885,21.906 25.885,19.495 C25.885,18.953 25.833,18.435 25.746,17.957 C26.238,18.43 26.712,18.624 27.164,18.364 C28.171,17.805 28.041,15.646 26.874,13.543 L26.874,13.543 Z M5.406,11.414 C7.345,11.414 8.918,9.841 8.918,7.901 C8.918,5.961 7.346,4.389 5.406,4.389 C3.466,4.389 1.892,5.961 1.892,7.902 C1.893,9.841 3.466,11.414 5.406,11.414 L5.406,11.414 Z M7.941,18.036 C6.348,17.15 6.202,14.512 7.484,11.682 C6.865,12.028 6.162,12.235 5.406,12.235 C4.45,12.235 3.574,11.914 2.857,11.389 C2.241,11.902 1.628,12.635 1.124,13.542 C-0.043,15.646 -0.171,17.804 0.837,18.363 C1.288,18.62 1.762,18.425 2.251,17.956 C2.165,18.435 2.115,18.952 2.115,19.494 C2.115,21.906 3.05,23.854 4.203,23.854 C4.897,23.854 5.242,23.145 5.407,22.059 C5.572,23.137 5.916,23.854 6.608,23.854 C7.754,23.854 8.697,21.905 8.697,19.494 C8.697,19.061 8.657,18.653 8.6,18.261 C8.375,18.221 8.151,18.156 7.941,18.036 L7.941,18.036 Z" id="people" sketch:type="MSShapeGroup"></path>
        </g>
    </g>
</svg>