<svg version="1.1"
	 xmlns="http://www.w3.org/2000/svg" xmlns:xlink="http://www.w3.org/1999/xlink" xmlns:a="http://ns.adobe.com/AdobeSVGViewerExtensions/3.0/"
	 x="0px" y="0px" width="276.2px" height="74.3px" viewBox="0 0 276.2 74.3" enable-background="new 0 0 276.2 74.3"
	 xml:space="preserve">
<defs>
</defs>
<g>
	<path fill="#50B1E0" d="M50,35.3v39.1c-0.9,0-1.6-0.3-2.2-0.9c-0.1-0.1-0.1-0.1-0.2-0.2L30,55.7c-0.1-0.1-0.1-0.1-0.1-0.2
		c0,0,0,0,0,0L50,35.3z"/>
	<path fill="#019CDB" d="M50,35.3L29.8,55.5c0-0.1,0-0.2,0-0.3V16.8c0-0.6,0.8-1,1.2-0.5L50,35.3z"/>
	<path fill="#288DC1" d="M70.2,55.5C70.2,55.5,70.2,55.5,70.2,55.5c-0.1,0.1-0.1,0.2-0.2,0.3L52.5,73.3c0,0,0,0,0,0l-0.2,0.2
		c0,0,0,0,0,0c-0.6,0.5-1.4,0.9-2.2,0.9V35.3L70.2,55.5z"/>
	<path fill="#019CDB" d="M69,1.2L50.5,19.7c-0.1,0.1-0.3,0.2-0.5,0.2V0h18.5C69.1,0,69.4,0.8,69,1.2z"/>
	<path fill="#50B1E0" d="M50,0v19.9h0c-0.2,0-0.4-0.1-0.5-0.2L31,1.2C30.6,0.8,30.9,0,31.5,0H50z"/>
	<path fill="#50B1E0" d="M19.1,5.4v37.4c0,0.7-0.8,1-1.2,0.5L1.1,26.6C1,26.5,1,26.5,0.9,26.4C0.3,25.8,0,25,0,24.1
		c0-0.9,0.4-1.7,1-2.3L17.8,4.9C18.3,4.4,19.1,4.8,19.1,5.4z"/>
	<path fill="#288FC0" d="M80.9,5.4v37.4c0,0.7,0.8,1,1.2,0.5l16.7-16.7c0.1-0.1,0.1-0.1,0.2-0.2c0.6-0.6,0.9-1.4,0.9-2.3
		c0-0.9-0.4-1.7-1-2.3L82.2,4.9C81.7,4.4,80.9,4.8,80.9,5.4z"/>
	<path fill="#50B1E0" d="M70.2,16.8v38.4c0,0.1,0,0.2,0,0.3L50,35.3l19-19C69.4,15.8,70.2,16.2,70.2,16.8z"/>
	<g>
		<path fill="#298DC1" d="M139.9,33.7l-9.4-13v17.6c0,1.3-0.8,2.1-1.9,2.1h-2.8c-1.2,0-1.9-0.8-1.9-2.1V10.2c0-1.3,0.8-2.1,1.9-2.1
			h2.3c1.3,0,1.9,0.4,2.7,1.5l11.3,15.7l11.4-15.7c0.8-1.1,1.3-1.5,2.7-1.5h2.3c1.2,0,1.9,0.9,1.9,2.1v28.1c0,1.3-0.8,2.1-1.9,2.1
			h-2.8c-1.2,0-1.9-0.8-1.9-2.1V20.7l-9.4,13c-0.6,0.7-1.1,1.3-2.2,1.3C141.1,35,140.5,34.5,139.9,33.7z"/>
		<path fill="#298DC1" d="M185.9,8c1.1,0,1.8,0.4,2.2,1.3l13.2,28.1c0.2,0.4,0.3,0.8,0.3,1.1c0,1-0.6,1.8-1.8,1.8h-3.1
			c-1.1,0-1.8-0.4-2.2-1.3l-2.2-5H176l-2.2,5c-0.4,0.9-1.1,1.3-2.2,1.3h-3.1c-1.2,0-1.8-0.8-1.8-1.8c0-0.3,0.1-0.7,0.3-1.1
			l13.2-28.1c0.4-0.9,1.1-1.3,2.2-1.3H185.9z M178.9,27.5h10.4l-5.2-11.7L178.9,27.5z"/>
		<path fill="#298DC1" d="M220.5,25.1l-6.1,5v8.2c0,1.3-0.8,2.1-1.9,2.1h-2.8c-1.2,0-1.9-0.8-1.9-2.1V10.2c0-1.3,0.8-2.1,1.9-2.1
			h2.8c1.2,0,1.9,0.9,1.9,2.1v11.7L229.9,9c0.6-0.5,1.2-1,2.3-1h5.4c0.9,0,1.4,0.5,1.4,1.2c0,0.6-0.2,1-0.6,1.3L225.7,21l13.4,16.8
			c0.3,0.4,0.6,0.7,0.6,1.3c0,0.7-0.5,1.2-1.4,1.2h-4.7c-1.1,0-1.8-0.4-2.3-1L220.5,25.1z"/>
		<path fill="#298DC1" d="M246.6,38.3V10.2c0-1.3,0.8-2.1,1.9-2.1h25.7c1.2,0,1.9,0.9,1.9,2.1v2.3c0,1.3-0.8,2.1-1.9,2.1h-20.9v6.2
			h14.9c1.2,0,1.9,0.9,1.9,2.1v2.3c0,1.3-0.8,2.1-1.9,2.1h-14.9v6.5h20.9c1.2,0,1.9,0.9,1.9,2.1v2.3c0,1.3-0.8,2.1-1.9,2.1h-25.7
			C247.4,40.4,246.6,39.6,246.6,38.3z"/>
	</g>
	<g>
		<g>
			<path fill="#4BB1E4" d="M131.4,65.2c2,0,3.8-0.6,3.8-1.9c0-1.1-1.2-1.5-4-1.7c-4.4-0.3-6.9-1.4-6.9-4.2c0-2.9,2.6-4.9,6.8-4.9
				c3.1,0,5.2,1.1,6,1.8c0.4,0.3,0.6,0.6,0.6,1.1c0,0.3-0.1,0.6-0.3,0.9l-0.5,0.6c-0.2,0.2-0.4,0.3-0.7,0.3c-0.2,0-0.5-0.1-0.7-0.2
				c-1.4-1-2.9-1.5-4.5-1.5c-1.8,0-3.6,0.6-3.6,1.7c0,1,1.6,1.2,3.7,1.4c4.3,0.3,7.2,1.2,7.2,4.5c0,3.3-2.9,5.2-7.1,5.2
				c-2.9,0-5.4-0.9-6.9-2.3c-0.3-0.3-0.5-0.6-0.5-1c0-0.4,0.1-0.7,0.3-1l0.5-0.6c0.2-0.2,0.4-0.3,0.6-0.3s0.5,0.1,0.7,0.2
				C127.6,64.5,129.4,65.2,131.4,65.2z"/>
		</g>
		<g>
			<path fill="#4BB1E4" d="M157.2,65c2.1,0,3.9-1.2,5.1-2.7c0.2-0.2,0.4-0.3,0.7-0.3c0.2,0,0.4,0.1,0.5,0.2l0.5,0.5
				c0.4,0.4,0.6,0.8,0.6,1.2c0,0.2-0.1,0.5-0.4,1c-1.2,1.7-4,3.2-7,3.2c-4.4,0-7.9-3.3-7.9-7.9c0-4.6,3.5-7.9,8-7.9
				c3.2,0,5.9,1.7,7,3.2c0.3,0.4,0.4,0.7,0.4,1c0,0.4-0.2,0.8-0.6,1.2l-0.5,0.5c-0.2,0.2-0.4,0.2-0.5,0.2c-0.2,0-0.5-0.1-0.7-0.3
				c-1.2-1.4-3-2.7-5.1-2.7c-2.7,0-4.7,2.1-4.7,4.7C152.4,62.9,154.5,65,157.2,65z"/>
		</g>
		<g>
			<path fill="#4BB1E4" d="M188.9,66.9v-5.1h-8v5.1c0,0.6-0.4,1-0.9,1h-1.3c-0.5,0-0.9-0.4-0.9-1V53.7c0-0.6,0.4-1,0.9-1h1.3
				c0.6,0,0.9,0.4,0.9,1v5h8v-5c0-0.6,0.4-1,0.9-1h1.3c0.6,0,0.9,0.4,0.9,1v13.2c0,0.6-0.4,1-0.9,1h-1.3
				C189.3,67.9,188.9,67.5,188.9,66.9z"/>
		</g>
		<g>
			<path fill="#4BB1E4" d="M221.3,60.3c0,4.4-3.4,7.9-8.1,7.9c-4.8,0-8.1-3.5-8.1-7.9c0-4.4,3.4-7.9,8.1-7.9
				C218,52.5,221.3,56,221.3,60.3z M208.3,60.3c0,2.6,2,4.7,4.9,4.7c2.8,0,4.9-2.1,4.9-4.7c0-2.6-2-4.7-4.9-4.7
				C210.4,55.6,208.3,57.7,208.3,60.3z"/>
		</g>
		<g>
			<path fill="#4BB1E4" d="M249.5,60.3c0,4.4-3.4,7.9-8.1,7.9c-4.8,0-8.1-3.5-8.1-7.9c0-4.4,3.4-7.9,8.1-7.9
				C246.1,52.5,249.5,56,249.5,60.3z M236.5,60.3c0,2.6,2,4.7,4.9,4.7c2.8,0,4.9-2.1,4.9-4.7c0-2.6-2-4.7-4.9-4.7
				C238.5,55.6,236.5,57.7,236.5,60.3z"/>
		</g>
		<g>
			<path fill="#4BB1E4" d="M262.5,66.9V53.7c0-0.6,0.4-1,0.9-1h1.3c0.6,0,0.9,0.4,0.9,1v11.1h9.6c0.6,0,0.9,0.4,0.9,1v1.1
				c0,0.6-0.4,1-0.9,1h-11.9C262.8,67.9,262.5,67.5,262.5,66.9z"/>
		</g>
	</g>
</g>
</svg>
