<?xml version="1.0" encoding="UTF-8" standalone="no"?>
<svg
   xmlns:dc="http://purl.org/dc/elements/1.1/"
   xmlns:cc="http://creativecommons.org/ns#"
   xmlns:rdf="http://www.w3.org/1999/02/22-rdf-syntax-ns#"
   xmlns:svg="http://www.w3.org/2000/svg"
   xmlns="http://www.w3.org/2000/svg"
   xmlns:sodipodi="http://sodipodi.sourceforge.net/DTD/sodipodi-0.dtd"
   xmlns:inkscape="http://www.inkscape.org/namespaces/inkscape"
   viewBox="0 0 800.00001 234.16251"
   height="234.16251"
   width="800"
   xml:space="preserve"
   version="1.1"
   id="svg3390"
   inkscape:version="0.91 r13725"
   sodipodi:docname="stripe.svg"><sodipodi:namedview
     pagecolor="#ffffff"
     bordercolor="#666666"
     borderopacity="1"
     objecttolerance="10"
     gridtolerance="10"
     guidetolerance="10"
     inkscape:pageopacity="0"
     inkscape:pageshadow="2"
     inkscape:window-width="1276"
     inkscape:window-height="1401"
     id="namedview3454"
     showgrid="false"
     inkscape:zoom="0.54906131"
     inkscape:cx="282.29999"
     inkscape:cy="117.08125"
     inkscape:window-x="2720"
     inkscape:window-y="18"
     inkscape:window-maximized="0"
     inkscape:current-layer="svg3390" /><metadata
     id="metadata3396"><rdf:RDF><cc:Work
         rdf:about=""><dc:format>image/svg+xml</dc:format><dc:type
           rdf:resource="http://purl.org/dc/dcmitype/StillImage" /><dc:title></dc:title></cc:Work></rdf:RDF></metadata><defs
     id="defs3394" /><g
     transform="matrix(1.25,0,0,-1.25,116,234.1625)"
     id="g3398"><g
       transform="scale(0.1,0.1)"
       id="g3400"><path
         id="path3402"
         style="fill:#231f20;fill-opacity:1;fill-rule:nonzero;stroke:none"
         d="m 472,1030.66 c -97.332,36 -150.664,64 -150.664,108 0,37.34 30.664,58.67 85.332,58.67 100,0 202.668,-38.67 273.332,-73.33 l 40,246.66 c -56,26.67 -170.664,70.67 -329.332,70.67 -112,0 -205.332,-29.33 -272,-84 C 49.3359,1300 13.3359,1217.33 13.3359,1117.33 13.3359,935.996 124,858.66 304,793.328 420,752 458.668,722.66 458.668,677.328 458.668,633.328 421.336,608 353.336,608 269.336,608 130.668,649.328 40,702.66 L 0,453.328 C 77.3359,409.328 221.336,364 370.668,364 489.336,364 588,392 654.668,445.328 729.336,504 768,590.66 768,702.66 c 0,185.336 -113.332,262.668 -296,328 l 0,0 z m 947.17,145.34 40,245.33 -211.17,0 0,297.82 -283.926,-46.72 -40.992,-251.1 -99.859,-16.2 -37.379,-229.13 136.824,0 0,-481.34 c 0,-125.332 32,-212 97.332,-265.332 54.67,-44 133.33,-65.328 244,-65.328 85.33,0 137.33,14.66 173.33,24 l 0,260 c -20,-5.34 -65.33,-14.672 -96,-14.672 -65.33,0 -93.33,33.332 -93.33,109.332 l 0,433.34 171.17,0 z m 634.16,259.66 c -93.33,0 -168,-49 -197.33,-137 l -20,122.67 -289.33,0 0,-1037.33 330.66,0 0,673.33 c 41.34,50.67 100,68.99 180,68.99 17.34,0 36,0 58.67,-4 l 0,305.34 c -22.67,5.33 -42.67,8 -62.67,8 z m 309.34,88.34 c 96,0 173.33,78.66 173.33,174.66 0,97.34 -77.33,174.67 -173.33,174.67 -97.34,0 -174.67,-77.33 -174.67,-174.67 0,-96 77.33,-174.66 174.67,-174.66 z M 2196,1421.33 l 332,0 0,-1037.33 -332,0 0,1037.33 z M 3468.83,1328 c -58.67,76 -140,113.33 -244,113.33 -96,0 -180,-40 -258.67,-124 l -17.33,104 -290.67,0 0,-1421.33 330.67,54.6602 0,333.3398 c 50.66,-16 102.66,-24 149.33,-24 82.67,0 202.67,21.328 296,122.66 89.33,97.34 134.67,248 134.67,446.668 0,176.002 -33.34,309.332 -100,394.672 z M 3194.16,688 c -26.67,-50.672 -68,-77.34 -116,-77.34 -33.33,0 -62.67,6.668 -89.33,20 l 0,493.34 c 56,58.66 106.66,65.33 125.33,65.33 84,0 125.33,-90.67 125.33,-268.002 0,-101.328 -14.66,-180 -45.33,-233.328 z m 1322.67,223.996 c 0,165.334 -36,296.004 -106.67,388.004 -72,93.33 -180,141.33 -317.33,141.33 -281.34,0 -456,-208 -456,-541.334 0,-186.668 46.66,-326.668 138.66,-415.996 82.67,-80 201.34,-120 354.67,-120 141.33,0 272,33.328 354.67,88 l -36,226.66 c -81.34,-44 -176,-68 -282.67,-68 -64,0 -108,13.34 -140,41.34 -34.67,29.328 -54.67,77.328 -61.33,145.328 l 548,0 c 1.33,16 4,90.668 4,114.668 z m -554.67,88 c 9.33,148.004 49.33,217.334 125.33,217.334 74.67,0 113.34,-70.67 118.67,-217.334 l -244,0"
         inkscape:connector-curvature="0" /></g></g></svg>