<?xml version="1.0" encoding="UTF-8" standalone="no"?>
<!-- Created with Inkscape (http://www.inkscape.org/) -->

<svg
   xmlns:dc="http://purl.org/dc/elements/1.1/"
   xmlns:cc="http://creativecommons.org/ns#"
   xmlns:rdf="http://www.w3.org/1999/02/22-rdf-syntax-ns#"
   xmlns:svg="http://www.w3.org/2000/svg"
   xmlns="http://www.w3.org/2000/svg"
   xmlns:inkscape="http://www.inkscape.org/namespaces/inkscape"
   version="1.1"
   width="682.83752"
   height="103.0875"
   id="svg2"
   xml:space="preserve"><metadata
     id="metadata8"><rdf:RDF><cc:Work
         rdf:about=""><dc:format>image/svg+xml</dc:format><dc:type
           rdf:resource="http://purl.org/dc/dcmitype/StillImage" /></cc:Work></rdf:RDF></metadata><defs
     id="defs6"><clipPath
       id="clipPath18"><path
         d="M 0,824.707 0,0 l 5462.66,0 0,824.707 -5462.66,0 z"
         inkscape:connector-curvature="0"
         id="path20" /></clipPath></defs><g
     transform="matrix(1.25,0,0,-1.25,0,103.0875)"
     id="g10"><g
       transform="scale(0.1,0.1)"
       id="g12"><g
         id="g14"><g
           clip-path="url(#clipPath18)"
           id="g16"><path
             d="m 1785.12,522.289 -121.44,0 0,-321.605 -116.03,0 0,321.605 -122.18,0 0,101.258 359.65,0 0,-101.258"
             inkscape:connector-curvature="0"
             id="path22"
             style="fill:#201d1c;fill-opacity:1;fill-rule:nonzero;stroke:none" /><path
             d="m 2073.35,502.766 -39.26,-141.836 76.92,0 -37.66,141.836 z m -204.88,-302.082 157.94,422.863 94.07,0 157.22,-422.863 -122.71,0 -25.6,82.839 -112.66,0 -24.89,-82.839 -123.37,0"
             inkscape:connector-curvature="0"
             id="path24"
             style="fill:#201d1c;fill-opacity:1;fill-rule:nonzero;stroke:none" /><path
             d="m 2544.4,431.812 61.46,0 c 7.07,0 13.76,3.278 19.93,9.825 6.18,6.543 9.29,18.363 9.29,35.465 0,17.386 -3.63,29.343 -10.67,35.664 -7.18,6.433 -14.42,9.523 -21.55,9.523 l -58.46,0 0,-90.477 z m -116.06,-231.128 0,422.863 182.31,0 c 20.56,0 39.7,-4.211 57.07,-12.848 17.5,-8.547 32.51,-19.664 45.01,-33.351 12.5,-13.688 22.46,-29.395 29.51,-47.012 7.12,-17.57 10.68,-35.461 10.68,-53.234 0,-18.668 -3.38,-36.852 -10.14,-54.52 -6.77,-17.687 -16.16,-33.41 -28.23,-47.074 -12.19,-13.711 -26.87,-24.629 -44.19,-32.742 -17.12,-8.157 -36.16,-12.161 -56.72,-12.161 l -69.24,0 0,-129.921 -116.06,0"
             inkscape:connector-curvature="0"
             id="path26"
             style="fill:#201d1c;fill-opacity:1;fill-rule:nonzero;stroke:none" /><path
             d="m 2916.79,200.684 0,422.863 116.04,0 0,-321.633 191.76,0 0,-101.23 -307.8,0"
             inkscape:connector-curvature="0"
             id="path28"
             style="fill:#201d1c;fill-opacity:1;fill-rule:nonzero;stroke:none" /><path
             d="m 3412.82,623.547 75.63,-182.867 77.48,182.867 126.28,0 -146.09,-282.777 0,-140.086 -115.46,0 0,141.203 -143.39,281.66 125.55,0"
             inkscape:connector-curvature="0"
             id="path30"
             style="fill:#201d1c;fill-opacity:1;fill-rule:nonzero;stroke:none" /><path
             d="m 4168.01,522.289 -121.49,0 0,-321.605 -116.16,0 0,321.605 -122.08,0 0,101.258 359.73,0 0,-101.258"
             inkscape:connector-curvature="0"
             id="path32"
             style="fill:#201d1c;fill-opacity:1;fill-rule:nonzero;stroke:none" /><path
             d="m 4329.41,200.684 116.082,0 0,422.863 -116.082,0 0,-422.863 z"
             inkscape:connector-curvature="0"
             id="path34"
             style="fill:#201d1c;fill-opacity:1;fill-rule:nonzero;stroke:none" /><path
             d="m 4614.08,415.648 c 0,25.872 4.43,51.332 13.63,76.383 9.06,24.985 22.51,47.379 40.25,67.223 17.5,19.848 39.12,35.965 64.26,48.191 25.23,12.344 53.94,18.371 86.09,18.371 37.76,0 70.74,-8.296 98.71,-25.234 28.39,-16.867 49.28,-39.164 62.68,-66.926 l -88.68,-63.265 c -3.65,10.433 -8.29,18.933 -14.14,25.757 -5.65,6.684 -11.97,12.137 -18.68,16.004 -6.7,3.957 -13.88,6.868 -21.33,8.391 -7.65,1.543 -14.6,2.363 -20.83,2.363 -14.85,0 -27.37,-3.226 -37.88,-9.82 -10.49,-6.527 -19.32,-15.121 -26.21,-25.574 -7,-10.547 -12.16,-22.395 -15.25,-35.739 -3.12,-13.433 -4.71,-26.484 -4.71,-39.601 0,-14.75 1.92,-28.871 5.64,-42.375 3.71,-13.508 9.24,-25.371 16.62,-35.625 7.39,-10.383 16.37,-18.613 26.8,-24.758 10.57,-6.152 22.64,-9.297 36.1,-9.297 6.82,0 13.64,1.028 20.83,2.703 7,1.828 14.07,4.875 20.61,8.938 6.46,4.226 12.4,9.597 17.83,16.094 5.39,6.523 9.59,14.55 12.77,24.191 l 94.62,-56.535 C 4977.8,280 4968.9,266.113 4956.59,253.77 c -11.97,-12.415 -25.68,-22.579 -41.23,-31.055 -15.39,-8.25 -31.94,-14.602 -49.49,-19.024 -17.44,-4.367 -34.48,-6.55 -51.12,-6.55 -29.43,0 -56.27,6.226 -81.03,18.828 -24.62,12.429 -45.81,29.051 -63.43,49.715 -17.58,20.546 -31.48,44.035 -41.33,70.214 -9.93,26.282 -14.88,52.864 -14.88,79.75"
             inkscape:connector-curvature="0"
             id="path36"
             style="fill:#201d1c;fill-opacity:1;fill-rule:nonzero;stroke:none" /><path
             d="m 5402.46,485.352 c -11.84,7.203 -24.24,13.543 -36.87,19.16 -10.69,4.73 -22.72,9.183 -35.97,13.3 -13.32,4.184 -26.39,6.344 -38.99,6.344 -10.42,0 -18.66,-1.551 -24.75,-4.844 -6.21,-3.203 -9.32,-8.5 -9.32,-16.136 0,-5.574 1.89,-10.074 5.38,-13.551 3.73,-3.684 8.82,-6.914 15.49,-9.891 6.77,-3.023 15,-5.886 24.73,-8.64 9.69,-2.75 20.78,-6.137 33.01,-10.094 19.58,-6 37.08,-12.547 52.81,-19.73 15.68,-7.208 29.1,-15.458 40.1,-25.278 11.26,-9.683 19.64,-21.512 25.69,-35.418 5.98,-13.914 8.89,-30.777 8.89,-50.601 0,-25.395 -4.55,-46.743 -14.06,-64.043 -9.22,-17.278 -21.61,-31.164 -36.86,-41.399 -15.26,-10.32 -32.54,-17.683 -51.72,-22.363 -19.28,-4.531 -38.58,-6.777 -58.02,-6.777 -15.59,0 -31.48,1.132 -47.76,3.562 -16.28,2.324 -32.37,5.715 -48.61,10.149 -16.02,4.367 -31.48,9.5 -46.37,15.429 -14.82,5.938 -28.66,12.688 -41.37,20.235 l 50.08,101.914 c 13.75,-8.821 28.3,-16.535 43.3,-23.262 12.78,-6.016 27.22,-11.34 43.24,-16.066 16.12,-4.774 32.44,-7.235 49.22,-7.235 12.62,0 21.52,1.66 26.42,5.098 5.02,3.43 7.45,7.89 7.45,13.387 0,5.929 -2.43,10.941 -7.45,15.277 -4.9,4.121 -11.78,7.801 -20.51,11.004 -8.75,3.137 -18.78,6.25 -30.03,9.504 -11.32,3.133 -23.46,6.929 -36.06,11.343 -18.71,6.29 -34.75,13.223 -48.21,20.547 -13.62,7.278 -24.67,15.735 -33.4,24.961 -8.8,9.231 -15.13,19.985 -19.41,31.899 -4.07,11.863 -6.32,25.508 -6.32,41.051 0,23.464 4.28,44.152 12.86,61.996 8.63,17.82 20.31,32.687 34.97,44.578 14.64,11.957 31.42,21.031 50.35,27.168 18.89,6.156 38.72,9.254 59.77,9.254 15.48,0 30.55,-1.414 45.3,-4.571 14.64,-2.867 28.74,-6.683 42.51,-11.207 13.78,-4.687 26.45,-9.594 38.4,-14.918 11.98,-5.453 22.58,-10.519 32.15,-15.203 l -50.06,-95.933"
             inkscape:connector-curvature="0"
             id="path38"
             style="fill:#201d1c;fill-opacity:1;fill-rule:nonzero;stroke:none" /><path
             d="m 200.98,623.75 0,-116.148 153.395,0 0,-306.579 115.996,0 0,422.727 -269.391,0"
             inkscape:connector-curvature="0"
             id="path40"
             style="fill:#201d1c;fill-opacity:1;fill-rule:nonzero;stroke:none" /><path
             d="m 702.699,317.168 0,306.582 -116.097,0 0,-422.727 269.421,0 0,116.145 -153.324,0"
             inkscape:connector-curvature="0"
             id="path42"
             style="fill:#201d1c;fill-opacity:1;fill-rule:nonzero;stroke:none" /><path
             d="m 1019.51,38.7109 -980.7834,0 0,747.2621 980.7834,0 0,-747.2621 z M 0,824.707 0,0 l 1057.04,0 0,824.707 -1057.04,0"
             inkscape:connector-curvature="0"
             id="path44"
             style="fill:#201d1c;fill-opacity:1;fill-rule:nonzero;stroke:none" /></g></g></g></g></svg>
