<?xml version="1.0" encoding="UTF-8" standalone="no"?>
<svg
   xmlns:dc="http://purl.org/dc/elements/1.1/"
   xmlns:cc="http://creativecommons.org/ns#"
   xmlns:rdf="http://www.w3.org/1999/02/22-rdf-syntax-ns#"
   xmlns:svg="http://www.w3.org/2000/svg"
   xmlns="http://www.w3.org/2000/svg"
   xmlns:sodipodi="http://sodipodi.sourceforge.net/DTD/sodipodi-0.dtd"
   xmlns:inkscape="http://www.inkscape.org/namespaces/inkscape"
   viewBox="0 0 850 285.89999"
   height="285.89999"
   width="850"
   xml:space="preserve"
   version="1.1"
   id="svg3355"
   inkscape:version="0.91 r13725"
   sodipodi:docname="zapier.svg"><sodipodi:namedview
     pagecolor="#ffffff"
     bordercolor="#666666"
     borderopacity="1"
     objecttolerance="10"
     gridtolerance="10"
     guidetolerance="10"
     inkscape:pageopacity="0"
     inkscape:pageshadow="2"
     inkscape:window-width="2556"
     inkscape:window-height="1401"
     id="namedview3400"
     showgrid="false"
     fit-margin-top="0"
     fit-margin-left="0"
     fit-margin-right="0"
     fit-margin-bottom="0"
     inkscape:zoom="1.337846"
     inkscape:cx="595.77299"
     inkscape:cy="75.492367"
     inkscape:window-x="1440"
     inkscape:window-y="18"
     inkscape:window-maximized="0"
     inkscape:current-layer="svg3355" /><metadata
     id="metadata3361"><rdf:RDF><cc:Work
         rdf:about=""><dc:format>image/svg+xml</dc:format><dc:type
           rdf:resource="http://purl.org/dc/dcmitype/StillImage" /><dc:title></dc:title></cc:Work></rdf:RDF></metadata><defs
     id="defs3359" /><g
     transform="matrix(1.25,0,0,-1.25,110,285.9)"
     id="g3363"><g
       transform="scale(0.1,0.1)"
       id="g3365"><path
         id="path3367"
         style="fill:#ff4a00;fill-opacity:1;fill-rule:nonzero;stroke:none"
         d="m 0,486.941 517.637,805.239 -456.2854,0 c -3.8282,23 -5.7422,48.54 -5.7422,76.67 0,26.83 1.914,51.78 5.7422,74.79 l 738.1054,0 9.586,-24.96 -521.465,-807.121 488.871,0 c 3.832,-25.571 5.762,-51.75 5.762,-78.579 0,-25.601 -1.93,-49.871 -5.762,-72.871 l -766.85916,0 L 0,486.941"
         inkscape:connector-curvature="0" /><path
         id="path3369"
         style="fill:#ff4a00;fill-opacity:1;fill-rule:nonzero;stroke:none"
         d="m 1493.46,922.172 c -19.17,2.527 -43.46,5.058 -72.85,7.648 -29.41,2.532 -54.35,3.828 -74.77,3.828 -79.26,0 -139.65,-14.699 -181.16,-44.089 -41.56,-29.43 -62.31,-74.137 -62.31,-134.2 0,-38.347 7.01,-68.39 21.09,-90.097 14.04,-21.774 31.63,-38.352 52.72,-49.864 21.09,-11.5 44.39,-18.539 69.97,-21.097 25.55,-2.551 49.85,-3.821 72.85,-3.821 29.38,0 59.74,1.59 91.06,4.801 31.31,3.168 59.11,7.981 83.4,14.367 l 0,312.524 z m 0,185.938 c 0,75.41 -19.17,127.81 -57.51,157.21 -38.35,29.39 -93.94,44.09 -166.8,44.09 -44.76,0 -86.59,-3.53 -125.56,-10.55 -39.01,-7.04 -77.03,-16.28 -114.08,-27.77 -24.3,42.18 -36.42,92.63 -36.42,151.46 43.43,14.04 91.35,24.91 143.78,32.57 52.39,7.68 102.87,11.52 151.46,11.52 127.79,0 224.93,-29.1 291.41,-87.25 66.43,-58.17 99.68,-151.15 99.68,-278.94 l 0,-615.419 c -44.75,-10.222 -99.05,-20.761 -162.95,-31.633 -63.93,-10.839 -129.12,-16.289 -195.55,-16.289 -62.63,0 -119.19,5.743 -169.67,17.25 -50.5,11.532 -93.32,30.02 -128.46,55.621 -35.161,25.54 -62.294,58.141 -81.466,97.75 -19.176,39.622 -28.761,87.54 -28.761,143.801 0,54.93 11.175,103.18 33.546,144.75 22.36,41.489 52.723,76.008 91.071,103.52 38.34,27.449 82.43,47.929 132.28,61.329 49.86,13.43 102.24,20.15 157.21,20.15 40.89,0 74.44,-0.98 100.65,-2.89 26.18,-1.92 48.24,-4.15 66.14,-6.71 l 0,36.43"
         inkscape:connector-curvature="0" /><path
         id="path3371"
         style="fill:#ff4a00;fill-opacity:1;fill-rule:nonzero;stroke:none"
         d="m 2076.26,621.172 c 24.26,-8.961 49.21,-15.352 74.78,-19.184 25.56,-3.828 58.76,-5.738 99.7,-5.738 46.01,0 88.16,7.328 126.51,22.031 38.35,14.668 71.25,37.379 98.73,68.071 27.48,30.66 49.19,69.296 65.18,115.988 15.97,46.629 23.98,101.89 23.98,165.832 0,102.238 -18.88,183.388 -56.56,243.478 -37.73,60.06 -99.41,90.1 -185,90.1 -31.95,0 -62.65,-5.74 -92.01,-17.26 -29.43,-11.48 -55.61,-28.75 -78.62,-51.75 -23,-23.01 -41.53,-52.11 -55.58,-87.24 -14.09,-35.18 -21.11,-77.01 -21.11,-125.58 l 0,-398.748 z m -189.79,822.468 c 12.76,2.52 25.88,4.45 39.3,5.74 13.43,1.25 27.14,1.91 41.22,1.91 12.77,0 26.18,-0.66 40.27,-1.91 14.04,-1.29 27.46,-3.22 40.26,-5.74 1.25,-2.6 2.87,-10.55 4.78,-23.98 1.92,-13.43 3.83,-27.81 5.76,-43.12 1.92,-15.35 3.83,-30.08 5.75,-44.09 1.91,-14.09 2.87,-23.04 2.87,-26.87 12.75,20.44 28.1,40.27 46.01,59.44 17.88,19.18 39.32,36.43 64.24,51.75 24.92,15.35 53.02,27.48 84.35,36.44 31.29,8.92 66.13,13.43 104.48,13.43 57.5,0 110.87,-9.6 160.09,-28.78 49.19,-19.18 91.34,-48.86 126.5,-89.13 35.14,-40.27 62.62,-91.4 82.44,-153.37 19.83,-62.03 29.72,-135.18 29.72,-219.528 0,-168.711 -45.71,-300.711 -137.08,-395.902 -91.39,-95.231 -220.78,-142.821 -388.21,-142.821 -28.13,0 -56.87,1.911 -86.27,5.743 -29.42,3.859 -54.96,8.976 -76.69,15.339 l 0,-450.54256 C 2060.94,5.12109 2044.63,3.21094 2027.39,1.91016 2010.13,0.648438 1994.46,0 1980.41,0 c -14.08,0 -29.71,0.648438 -46.97,1.91016 -17.26,1.30078 -32.91,3.21093 -46.97,5.73828 l 0,1435.99156"
         inkscape:connector-curvature="0" /><path
         id="path3373"
         style="fill:#ff4a00;fill-opacity:1;fill-rule:nonzero;stroke:none"
         d="m 3000.33,1294.09 -124.63,0 c -2.56,10.22 -4.47,22.04 -5.74,35.47 -1.29,13.4 -1.91,26.51 -1.91,39.29 0,12.76 0.62,25.89 1.91,39.32 1.27,13.4 3.18,25.21 5.74,35.47 l 310.61,0 0,-983.531 c -14.08,-2.531 -29.73,-4.449 -46.98,-5.75 -17.26,-1.257 -32.93,-1.91 -46.99,-1.91 -12.78,0 -27.8,0.653 -45.03,1.91 -17.26,1.301 -32.93,3.219 -46.98,5.75 l 0,833.981"
         inkscape:connector-curvature="0" /><path
         id="path3375"
         style="fill:#ff4a00;fill-opacity:1;fill-rule:nonzero;stroke:none"
         d="m 4081.61,1046.76 c 0,35.79 -4.8,69.98 -14.37,102.59 -9.61,32.58 -23.69,61 -42.18,85.31 -18.57,24.26 -42.19,43.77 -70.96,58.46 -28.75,14.7 -62.95,22.06 -102.57,22.06 -77.96,0 -137.72,-23.68 -179.25,-70.95 -41.54,-47.28 -66.77,-113.11 -75.73,-197.47 l 485.06,0 z M 3594.64,904.898 c 2.56,-107.359 30.36,-185.976 83.41,-235.808 53.01,-49.828 131.31,-74.789 234.84,-74.789 90.75,0 177.02,16 258.82,47.949 10.22,-19.172 18.52,-42.5 24.92,-69.98 6.39,-27.508 10.22,-54.641 11.51,-81.469 -42.17,-17.942 -88.54,-31.313 -138.99,-40.27 -50.52,-8.922 -106.43,-13.422 -167.74,-13.422 -89.49,0 -166.19,12.461 -230.07,37.371 -63.92,24.95 -116.64,60.09 -158.18,105.45 -41.53,45.359 -71.89,99.05 -91.07,161.05 -19.14,61.981 -28.75,130.051 -28.75,204.18 0,72.85 9.25,140.92 27.8,204.19 18.51,63.24 46.99,118.21 85.31,164.86 38.34,46.66 86.57,83.71 144.74,111.19 58.14,27.48 126.83,41.24 206.1,41.24 67.74,0 127.17,-11.52 178.31,-34.52 51.1,-23.01 93.93,-54.64 128.45,-94.91 34.49,-40.26 60.68,-88.18 78.59,-143.76 17.88,-55.62 26.86,-116 26.86,-181.19 0,-17.908 -0.68,-36.748 -1.95,-56.549 -1.26,-19.852 -2.56,-36.762 -3.83,-50.813 l -669.08,0"
         inkscape:connector-curvature="0" /><path
         id="path3377"
         style="fill:#ff4a00;fill-opacity:1;fill-rule:nonzero;stroke:none"
         d="m 4478.54,1443.64 c 14.05,2.52 27.48,4.45 40.26,5.74 12.75,1.25 26.19,1.91 40.26,1.91 14.06,0 28.11,-0.66 42.18,-1.91 14.05,-1.29 26.84,-3.22 38.35,-5.74 3.84,-19.18 7.67,-44.45 11.49,-75.73 3.83,-31.34 5.78,-57.86 5.78,-79.59 26.83,43.45 62.29,81.18 106.38,113.13 44.09,31.93 100.65,47.93 169.66,47.93 10.23,0 20.77,-0.33 31.64,-0.97 10.83,-0.65 20.15,-1.61 27.8,-2.86 2.53,-11.52 4.48,-23.68 5.75,-36.44 1.27,-12.78 1.91,-26.21 1.91,-40.26 0,-15.35 -0.95,-31.34 -2.86,-47.92 -1.92,-16.62 -4.18,-32.61 -6.71,-47.92 -10.25,2.52 -20.8,3.82 -31.64,3.82 -10.87,0 -19.49,0 -25.89,0 -34.49,0 -67.42,-4.8 -98.73,-14.37 -31.34,-9.6 -59.44,-26.54 -84.36,-50.81 -24.92,-24.3 -44.74,-57.53 -59.41,-99.71 -14.73,-42.18 -22.06,-96.49 -22.06,-162.952 l 0,-488.879 c -14.08,-2.531 -29.72,-4.449 -46.98,-5.75 -17.23,-1.257 -32.9,-1.91 -46.95,-1.91 -14.08,0 -29.72,0.653 -46.98,1.91 -17.26,1.301 -33.54,3.219 -48.89,5.75 l 0,983.531"
         inkscape:connector-curvature="0" /><path
         id="path3379"
         style="fill:#ff4a00;fill-opacity:1;fill-rule:nonzero;stroke:none"
         d="m 3132.99,1968.8 c -0.01,-23.64 -4.34,-46.27 -12.22,-67.17 -20.9,-7.89 -43.55,-12.22 -67.21,-12.25 l -0.27,0 c -23.64,0.03 -46.29,4.35 -67.19,12.23 -7.88,20.9 -12.22,43.55 -12.23,67.19 l 0,0.29 c 0.01,23.64 4.34,46.29 12.21,67.18 20.9,7.89 43.56,12.23 67.21,12.24 l 0.27,0 c 23.66,-0.01 46.31,-4.35 67.21,-12.24 7.88,-20.89 12.21,-43.54 12.22,-67.18 l 0,-0.29 z m 234.27,53.19 -185.77,0 131.35,131.36 c -10.32,14.5 -21.83,28.1 -34.38,40.65 l 0,0.01 c -12.55,12.54 -26.15,24.03 -40.64,34.35 L 3106.46,2097 l 0,185.77 c -17.19,2.89 -34.85,4.42 -52.87,4.43 l -0.33,0 c -18.02,-0.01 -35.67,-1.54 -52.87,-4.43 l 0,-185.77 -131.36,131.36 c -14.5,-10.32 -28.09,-21.82 -40.62,-34.37 l -0.07,-0.05 c -12.53,-12.53 -24.01,-26.1 -34.33,-40.59 l 131.37,-131.36 -185.77,0 c 0,0 -4.43,-34.89 -4.43,-52.92 l 0,-0.23 c 0,-18.04 1.53,-35.72 4.43,-52.93 l 185.77,0 -131.37,-131.36 c 20.66,-28.99 46.03,-54.37 75.02,-75.01 l 131.36,131.35 0,-185.76 c 17.19,-2.89 34.82,-4.42 52.81,-4.43 l 0.45,0 c 18,0.01 35.65,1.54 52.81,4.43 l 0,185.77 131.37,-131.36 c 14.49,10.31 28.08,21.82 40.63,34.35 l 0.03,0.04 c 12.53,12.54 24.04,26.14 34.35,40.62 l -131.37,131.36 185.79,0 c 2.89,17.18 4.4,34.82 4.42,52.81 l 0,0.46 c -0.02,18 -1.53,35.63 -4.42,52.81"
         inkscape:connector-curvature="0" /></g></g></svg>