<?xml version="1.0" encoding="UTF-8" standalone="no"?>
<svg width="180px" height="335px" viewBox="0 0 180 335" version="1.1" xmlns="http://www.w3.org/2000/svg" xmlns:xlink="http://www.w3.org/1999/xlink">
    <!-- Generator: Sketch 39.1 (31720) - http://www.bohemiancoding.com/sketch -->
    <title>Person 4</title>
    <desc>Created with Sketch.</desc>
    <defs></defs>
    <g id="People" stroke="none" stroke-width="1" fill="none" fill-rule="evenodd">
        <g id="Person-4">
            <g id="Body" transform="translate(40.000000, 149.000000)" stroke="#4A4A4A" stroke-width="4" fill="#AE742A">
                <path d="M40,20.0930546 C17.1775937,25.1559359 0,47.2070972 0,73.6428564 L0,134.357197 C0,164.535585 22.3857576,189 50,189 C77.6142424,189 100,164.535585 100,134.357197 L100,73.6428564 C100,47.2070972 82.8224063,25.1559359 60,20.0930546 L60,7.99845994 C60,3.58493529 56.4224178,0 52.0092465,0 L47.9907535,0 C43.5755992,0 40,3.58103249 40,7.99845994 L40,20.0930546 Z" id="Combined-Shape"></path>
            </g>
            <path d="M57.6,222.642855 L36,218.642856 C36,202.140002 43.2297059,191.046805 54.658999,180.756509 C64.1302135,172.229157 77.5653213,188 91.08,188 C104.63925,188 115.951269,172.263706 125.434615,180.840987 C136.809758,191.129315 144,202.185105 144,218.642856 L122.4,222.642855 L122.4,338.357197 C122.4,338.357197 119.823382,338 90,338 C60.1766182,338 57.6,338.357197 57.6,338.357197 L57.6,222.642855 Z" id="Fill-3" stroke="#4A4A4A" stroke-width="4" fill="#E2527B"></path>
            <g id="Face" transform="translate(19.000000, 25.000000)">
                <path d="M0.999997462,145.666394 C22.0000006,160.129724 34.84808,160.129724 70.9999975,160.129724 C107.487438,160.129724 120.999997,160.129724 141.000004,145.666394 C142.626435,144.490213 141,75.0936185 141,72.8331968 C141,32.6085329 109.659932,0 71,0 C32.3400675,0 1,32.6085329 1,72.8331968 C1,75.4427218 -0.890530934,144.36433 0.999997462,145.666394 Z" id="Oval-2" stroke="#4A4A4A" stroke-width="4" fill="#FFEE5E"></path>
                <path d="M11,87.8806724 C11,67.5477979 23.5490617,58.714784 42.0733773,55.1602053 C46.8199678,54.2493955 55.5793734,60.3223471 61,60 C65.3759576,59.739776 66.3150126,53 70.9999798,53 C76.9808644,53 75.5489486,59.5510796 81,60 C85.5707002,60.3764192 97.1209984,54.5670241 101.162706,55.4071598 C119.00698,59.116387 131,68.0033816 131,87.8806724 L130.999798,81.1350003 C130.999798,110.883812 104.136896,135 70.9998185,135 C37.8629028,134.999848 11,110.883676 11,81.1348464 L11,87.8806724 Z" id="Fill-3" stroke="#4A4A4A" stroke-width="4" fill="#AE742A"></path>
                <circle id="Combined-Shape" fill="#4A4A4A" cx="49" cy="86" r="7"></circle>
                <circle id="Combined-Shape" fill="#4A4A4A" cx="91" cy="86" r="7"></circle>
                <path d="M53.8138359,102 C55.5765195,102 86.4234822,102 88.186165,102 C89.9488477,102 88.2992058,105.47698 88.2992058,105.47698 C84.5501102,111.825896 78.2011708,116 71.0000004,116 C63.7989005,116 57.4498933,111.825896 53.7007932,105.47698 C53.7007932,105.47698 52.0511523,102 53.8138359,102 Z" id="Fill-3" fill="#4A4A4A"></path>
            </g>
        </g>
    </g>
</svg>