<?xml version="1.0" encoding="UTF-8" standalone="no"?>
<svg width="180px" height="335px" viewBox="0 0 180 335" version="1.1" xmlns="http://www.w3.org/2000/svg" xmlns:xlink="http://www.w3.org/1999/xlink">
    <!-- Generator: Sketch 39.1 (31720) - http://www.bohemiancoding.com/sketch -->
    <title>Person 4 Holding</title>
    <desc>Created with Sketch.</desc>
    <defs></defs>
    <g id="People" stroke="none" stroke-width="1" fill="none" fill-rule="evenodd">
        <g id="Person-4-Holding">
            <g id="Body" transform="translate(36.000000, 149.000000)" stroke="#4A4A4A" stroke-width="4">
                <path d="M44,20.0930546 C21.1775937,25.1559359 4,47.2070972 4,73.6428564 L4,134.357197 C4,164.535585 26.3857576,189 54,189 C67.1369602,189 81.7610174,84.6289505 84,73.6428566 C84.4020419,71.6701437 92.5041557,93.9903921 106,101 C118.778475,107.637013 137,98.9931935 137,97 C137,97 129.477098,91.6753485 125.715647,89.0130228 C118.477098,83.889634 104,73.6428564 104,73.6428564 C104,47.2070972 86.8224063,25.1559359 64,20.0930546 L64,7.99845994 C64,3.58493529 60.4224178,0 56.0092465,0 L51.9907535,0 C47.5755992,0 44,3.58103249 44,7.99845994 L44,20.0930546 Z" id="Combined-Shape" fill="#AE742A"></path>
                <path d="M21.6,73.6428554 L0,69.6428564 C0,53.1400023 7.22970587,42.0468051 18.658999,31.756509 C28.1302135,23.2291574 41.5653213,39 55.08,39 C68.6392503,39 79.9512686,23.2637059 89.4346154,31.8409865 C100.809758,42.1293149 108,53.1851045 108,69.6428564 L86.4,73.6428554 L86.4,189.357197 C86.4,189.357197 83.8233818,189 54,189 C24.1766182,189 21.6,189.357197 21.6,189.357197 L21.6,73.6428554 Z" id="Fill-3" fill="#E73568"></path>
            </g>
            <g id="Face" transform="translate(19.000000, 25.000000)">
                <path d="M0.999997462,145.666394 C22.0000006,160.129724 34.84808,160.129724 70.9999975,160.129724 C107.487438,160.129724 120.999997,160.129724 141.000004,145.666394 C142.626435,144.490213 141,75.0936185 141,72.8331968 C141,32.6085329 109.659932,0 71,0 C32.3400675,0 1,32.6085329 1,72.8331968 C1,75.4427218 -0.890530934,144.36433 0.999997462,145.666394 Z" id="Oval-2" stroke="#4A4A4A" stroke-width="4" fill="#FFED5E"></path>
                <path d="M11,87.8806724 C11,67.5477979 23.5490617,58.714784 42.0733773,55.1602053 C46.8199678,54.2493955 55.5793734,60.3223471 61,60 C65.3759576,59.739776 66.3150126,53 70.9999798,53 C76.9808644,53 75.5489486,59.5510796 81,60 C85.5707002,60.3764192 97.1209984,54.5670241 101.162706,55.4071598 C119.00698,59.116387 131,68.0033816 131,87.8806724 L130.999798,81.1350003 C130.999798,110.883812 104.136896,135 70.9998185,135 C37.8629028,134.999848 11,110.883676 11,81.1348464 L11,87.8806724 Z" id="Fill-3" stroke="#4A4A4A" stroke-width="4" fill="#AE742A"></path>
                <path d="M49,93 C52.8659932,93 56,89.8659932 56,86 C56,82.1340068 52.8659932,79 49,79 C45.1340068,79 42,82.1340068 42,86 C42,89.8659932 45.1340068,93 49,93 Z" id="Combined-Shape" fill="#4A4A4A"></path>
                <circle id="Combined-Shape" fill="#4A4A4A" cx="91" cy="86" r="7"></circle>
                <path d="M53.8138359,102 C55.5765195,102 86.4234822,102 88.186165,102 C89.9488477,102 88.2992058,105.47698 88.2992058,105.47698 C84.5501102,111.825896 78.2011708,116 71.0000004,116 C63.7989005,116 57.4498933,111.825896 53.7007932,105.47698 C53.7007932,105.47698 52.0511523,102 53.8138359,102 Z" id="Fill-3" fill="#4A4A4A"></path>
            </g>
        </g>
    </g>
</svg>