<?xml version="1.0" encoding="UTF-8" standalone="no"?>
<svg
   xmlns:dc="http://purl.org/dc/elements/1.1/"
   xmlns:cc="http://creativecommons.org/ns#"
   xmlns:rdf="http://www.w3.org/1999/02/22-rdf-syntax-ns#"
   xmlns:svg="http://www.w3.org/2000/svg"
   xmlns="http://www.w3.org/2000/svg"
   id="svg2"
   version="1.1"
   xml:space="preserve"
   width="773.23505"
   height="130.17734"
   viewBox="0 0 773.23503 130.17734"><metadata
     id="metadata8"><rdf:RDF><cc:Work
         rdf:about=""><dc:format>image/svg+xml</dc:format><dc:type
           rdf:resource="http://purl.org/dc/dcmitype/StillImage" /><dc:title></dc:title></cc:Work></rdf:RDF></metadata><defs
     id="defs6"><clipPath
       clipPathUnits="userSpaceOnUse"
       id="clipPath16"><path
         d="m 0,595.276 841.89,0 L 841.89,0 0,0 0,595.276 Z"
         id="path18" /></clipPath></defs><g
     id="g10"
     transform="matrix(1.3333333,0,0,-1.3333333,-174.64226,461.93852)"><g
       id="g12"><g
         id="g14"
         clip-path="url(#clipPath16)"><g
           id="g20"
           transform="translate(225.8037,255.5029)"><path
             d="m 0,0 c 18.169,0 32.897,14.729 32.897,32.897 0,18.169 -14.728,32.898 -32.897,32.898 -0.306,0 -0.611,-0.005 -0.916,-0.014 -3.476,14.441 -16.475,25.17 -31.981,25.17 -18.169,0 -32.898,-14.728 -32.898,-32.897 -16.031,0 -29.027,-12.995 -29.027,-29.027 C -94.822,12.996 -81.826,0 -65.795,0 L 0,0 Z"
             style="fill:#373535;fill-opacity:1;fill-rule:nonzero;stroke:none"
             id="path22" /></g><g
           id="g24"
           transform="translate(338.2988,314.541)"><path
             d="m 0,0 c -0.852,1.368 -1.915,2.568 -3.192,3.604 -1.278,1.033 -2.722,1.838 -4.333,2.417 -1.612,0.577 -3.299,0.866 -5.062,0.866 -3.225,0 -5.961,-0.624 -8.21,-1.869 -2.25,-1.247 -4.074,-2.919 -5.473,-5.018 -1.399,-2.098 -2.417,-4.484 -3.055,-7.16 -0.639,-2.677 -0.958,-5.443 -0.958,-8.301 0,-2.736 0.319,-5.397 0.958,-7.981 0.638,-2.585 1.656,-4.912 3.055,-6.978 1.399,-2.068 3.223,-3.726 5.473,-4.971 2.249,-1.247 4.985,-1.87 8.21,-1.87 4.378,0 7.799,1.337 10.261,4.014 2.463,2.675 3.969,6.202 4.515,10.58 l 13.865,0 c -0.365,-4.074 -1.308,-7.753 -2.827,-11.036 -1.521,-3.284 -3.528,-6.082 -6.021,-8.393 -2.494,-2.311 -5.413,-4.074 -8.757,-5.29 -3.345,-1.216 -7.023,-1.824 -11.036,-1.824 -4.987,0 -9.473,0.866 -13.455,2.6 -3.983,1.732 -7.343,4.119 -10.079,7.16 -2.736,3.04 -4.834,6.613 -6.294,10.718 -1.459,4.104 -2.189,8.528 -2.189,13.271 0,4.864 0.73,9.38 2.189,13.546 1.46,4.164 3.558,7.799 6.294,10.9 2.736,3.101 6.096,5.533 10.079,7.297 3.982,1.763 8.468,2.646 13.455,2.646 3.587,0 6.978,-0.518 10.17,-1.551 3.192,-1.035 6.05,-2.54 8.574,-4.516 2.523,-1.976 4.607,-4.423 6.248,-7.342 1.643,-2.919 2.676,-6.264 3.102,-10.034 l -13.864,0 C 1.398,-2.873 0.852,-1.368 0,0"
             style="fill:#373535;fill-opacity:1;fill-rule:nonzero;stroke:none"
             id="path26" /></g><path
           d="m 376.063,266.79 -12.953,0 0,65.128 12.953,0 0,-65.128 z"
           style="fill:#373535;fill-opacity:1;fill-rule:nonzero;stroke:none"
           id="path28" /><g
           id="g30"
           transform="translate(398.3174,284.8057)"><path
             d="m 0,0 c 0.365,-1.795 0.988,-3.406 1.87,-4.835 0.881,-1.43 2.053,-2.569 3.512,-3.42 1.46,-0.852 3.284,-1.277 5.473,-1.277 2.189,0 4.028,0.425 5.519,1.277 1.489,0.851 2.675,1.99 3.557,3.42 0.881,1.429 1.506,3.04 1.871,4.835 0.364,1.793 0.547,3.633 0.547,5.519 0,1.883 -0.183,3.739 -0.547,5.563 -0.365,1.824 -0.99,3.435 -1.871,4.835 -0.882,1.397 -2.068,2.538 -3.557,3.42 -1.491,0.881 -3.33,1.323 -5.519,1.323 -2.189,0 -4.013,-0.442 -5.473,-1.323 C 3.923,18.455 2.751,17.314 1.87,15.917 0.988,14.517 0.365,12.906 0,11.082 -0.364,9.258 -0.547,7.402 -0.547,5.519 -0.547,3.633 -0.364,1.793 0,0 m -11.767,15.78 c 1.155,3.07 2.797,5.685 4.926,7.844 2.128,2.158 4.682,3.831 7.662,5.018 2.979,1.185 6.325,1.778 10.034,1.778 3.708,0 7.07,-0.593 10.08,-1.778 3.009,-1.187 5.578,-2.86 7.707,-5.018 2.129,-2.159 3.769,-4.774 4.925,-7.844 1.155,-3.072 1.735,-6.492 1.735,-10.261 0,-3.772 -0.58,-7.177 -1.735,-10.217 -1.156,-3.041 -2.796,-5.641 -4.925,-7.799 -2.129,-2.159 -4.698,-3.816 -7.707,-4.971 -3.01,-1.154 -6.372,-1.733 -10.08,-1.733 -3.709,0 -7.055,0.579 -10.034,1.733 -2.98,1.155 -5.534,2.812 -7.662,4.971 -2.129,2.158 -3.771,4.758 -4.926,7.799 -1.155,3.04 -1.732,6.445 -1.732,10.217 0,3.769 0.577,7.189 1.732,10.261"
             style="fill:#373535;fill-opacity:1;fill-rule:nonzero;stroke:none"
             id="path32" /></g><g
           id="g34"
           transform="translate(473.9346,266.79)"><path
             d="m 0,0 0,6.567 -0.273,0 C -1.915,3.831 -4.045,1.854 -6.658,0.639 c -2.615,-1.216 -5.291,-1.825 -8.028,-1.825 -3.465,0 -6.309,0.457 -8.528,1.369 -2.221,0.912 -3.968,2.203 -5.245,3.877 -1.276,1.671 -2.175,3.708 -2.69,6.111 -0.518,2.401 -0.776,5.062 -0.776,7.981 l 0,29.006 12.952,0 0,-26.635 c 0,-3.892 0.608,-6.794 1.825,-8.71 1.215,-1.916 3.375,-2.874 6.476,-2.874 3.526,0 6.08,1.049 7.662,3.147 1.581,2.099 2.371,5.549 2.371,10.353 l 0,24.719 12.953,0 L 12.314,0 0,0 Z"
             style="fill:#373535;fill-opacity:1;fill-rule:nonzero;stroke:none"
             id="path36" /></g><g
           id="g38"
           transform="translate(529.0283,296.1162)"><path
             d="m 0,0 c -0.365,1.793 -0.989,3.375 -1.87,4.743 -0.882,1.368 -2.023,2.477 -3.421,3.329 -1.399,0.851 -3.162,1.278 -5.29,1.278 -2.13,0 -3.923,-0.427 -5.382,-1.278 -1.459,-0.852 -2.631,-1.976 -3.512,-3.375 -0.881,-1.399 -1.52,-2.996 -1.916,-4.789 -0.395,-1.794 -0.592,-3.664 -0.592,-5.609 0,-1.824 0.212,-3.649 0.638,-5.473 0.425,-1.824 1.11,-3.452 2.053,-4.88 0.941,-1.429 2.128,-2.586 3.558,-3.467 1.427,-0.881 3.146,-1.322 5.153,-1.322 2.128,0 3.906,0.425 5.336,1.278 1.428,0.85 2.568,1.99 3.421,3.419 0.85,1.429 1.459,3.056 1.824,4.88 0.364,1.825 0.547,3.709 0.547,5.656 C 0.547,-3.665 0.364,-1.795 0,0 m 0.547,-23.306 c -1.521,-2.553 -3.512,-4.394 -5.975,-5.518 -2.463,-1.125 -5.245,-1.688 -8.345,-1.688 -3.528,0 -6.629,0.685 -9.305,2.053 -2.676,1.368 -4.88,3.222 -6.612,5.563 -1.734,2.341 -3.042,5.032 -3.923,8.074 -0.882,3.04 -1.323,6.202 -1.323,9.486 0,3.161 0.441,6.217 1.323,9.167 0.881,2.948 2.189,5.548 3.923,7.799 1.732,2.249 3.906,4.058 6.521,5.427 2.614,1.368 5.655,2.052 9.122,2.052 2.796,0 5.457,-0.592 7.981,-1.778 2.523,-1.186 4.515,-2.935 5.974,-5.245 l 0.183,0 0,23.716 12.953,0 0,-65.128 -12.315,0 0,6.02 -0.182,0 z"
             style="fill:#373535;fill-opacity:1;fill-rule:nonzero;stroke:none"
             id="path40" /></g><g
           id="g42"
           transform="translate(587.3135,293.6992)"><path
             d="m 0,0 -10.854,30.374 -0.183,0 L -22.074,0 0,0 Z m -6.021,38.219 25.45,-65.128 -9.577,0 -7.116,19.611 -27.547,0 -7.296,-19.611 -8.848,0 25.357,65.128 9.577,0 z"
             style="fill:#373535;fill-opacity:1;fill-rule:nonzero;stroke:none"
             id="path44" /></g><g
           id="g46"
           transform="translate(647.7422,297.2109)"><path
             d="m 0,0 c -0.578,2.098 -1.459,3.968 -2.645,5.609 -1.186,1.642 -2.707,2.95 -4.56,3.922 -1.857,0.973 -4.029,1.46 -6.523,1.46 -2.615,0 -4.834,-0.517 -6.658,-1.551 -1.824,-1.035 -3.315,-2.387 -4.469,-4.059 -1.157,-1.673 -1.994,-3.572 -2.509,-5.7 -0.518,-2.13 -0.776,-4.287 -0.776,-6.477 0,-2.311 0.274,-4.547 0.822,-6.704 0.547,-2.159 1.414,-4.06 2.599,-5.701 1.186,-1.642 2.721,-2.965 4.607,-3.968 1.883,-1.004 4.164,-1.505 6.841,-1.505 2.675,0 4.91,0.516 6.704,1.551 1.793,1.033 3.238,2.401 4.333,4.104 1.094,1.702 1.883,3.649 2.372,5.838 0.485,2.189 0.729,4.438 0.729,6.75 C 0.867,-4.242 0.578,-2.099 0,0 m -27.866,16.737 0,-6.384 0.182,0 c 1.278,2.614 3.285,4.514 6.021,5.701 2.736,1.185 5.746,1.778 9.03,1.778 3.649,0 6.825,-0.67 9.532,-2.007 2.705,-1.338 4.955,-3.146 6.75,-5.427 1.793,-2.28 3.147,-4.912 4.059,-7.89 0.912,-2.981 1.368,-6.143 1.368,-9.487 0,-3.344 -0.441,-6.507 -1.322,-9.486 -0.883,-2.98 -2.221,-5.58 -4.014,-7.799 -1.794,-2.22 -4.045,-3.967 -6.75,-5.245 -2.706,-1.276 -5.853,-1.915 -9.44,-1.915 -1.156,0 -2.449,0.122 -3.877,0.364 -1.43,0.245 -2.843,0.639 -4.241,1.187 -1.4,0.547 -2.723,1.291 -3.968,2.234 -1.247,0.943 -2.296,2.113 -3.148,3.512 l -0.182,0 0,-24.263 -7.753,0 0,65.127 7.753,0 z"
             style="fill:#373535;fill-opacity:1;fill-rule:nonzero;stroke:none"
             id="path48" /></g><g
           id="g50"
           transform="translate(701.832,297.2109)"><path
             d="m 0,0 c -0.578,2.098 -1.459,3.968 -2.645,5.609 -1.186,1.642 -2.707,2.95 -4.56,3.922 -1.857,0.973 -4.029,1.46 -6.523,1.46 -2.615,0 -4.834,-0.517 -6.658,-1.551 -1.824,-1.035 -3.315,-2.387 -4.469,-4.059 -1.157,-1.673 -1.994,-3.572 -2.509,-5.7 -0.518,-2.13 -0.776,-4.287 -0.776,-6.477 0,-2.311 0.274,-4.547 0.822,-6.704 0.547,-2.159 1.414,-4.06 2.599,-5.701 1.186,-1.642 2.721,-2.965 4.607,-3.968 1.883,-1.004 4.164,-1.505 6.841,-1.505 2.675,0 4.91,0.516 6.704,1.551 1.793,1.033 3.238,2.401 4.333,4.104 1.094,1.702 1.883,3.649 2.372,5.838 0.485,2.189 0.729,4.438 0.729,6.75 C 0.867,-4.242 0.578,-2.099 0,0 m -27.866,16.737 0,-6.384 0.182,0 c 1.278,2.614 3.285,4.514 6.021,5.701 2.736,1.185 5.746,1.778 9.03,1.778 3.649,0 6.825,-0.67 9.532,-2.007 2.705,-1.338 4.955,-3.146 6.75,-5.427 1.793,-2.28 3.147,-4.912 4.059,-7.89 0.912,-2.981 1.368,-6.143 1.368,-9.487 0,-3.344 -0.441,-6.507 -1.322,-9.486 -0.883,-2.98 -2.221,-5.58 -4.014,-7.799 -1.794,-2.22 -4.045,-3.967 -6.75,-5.245 -2.706,-1.276 -5.853,-1.915 -9.44,-1.915 -1.156,0 -2.449,0.122 -3.877,0.364 -1.43,0.245 -2.843,0.639 -4.241,1.187 -1.4,0.547 -2.723,1.291 -3.968,2.234 -1.247,0.943 -2.296,2.113 -3.148,3.512 l -0.182,0 0,-24.263 -7.753,0 0,65.127 7.753,0 z"
             style="fill:#373535;fill-opacity:1;fill-rule:nonzero;stroke:none"
             id="path52" /></g></g></g></g></svg>