<?xml version="1.0" encoding="UTF-8" standalone="no"?>
<svg
   xmlns:dc="http://purl.org/dc/elements/1.1/"
   xmlns:cc="http://creativecommons.org/ns#"
   xmlns:rdf="http://www.w3.org/1999/02/22-rdf-syntax-ns#"
   xmlns:svg="http://www.w3.org/2000/svg"
   xmlns="http://www.w3.org/2000/svg"
   version="1.1"
   id="svg3589"
   viewBox="0 0 765.08503 253.70475"
   height="71.60112mm"
   width="215.924mm">
  <defs
     id="defs3591" />
  <metadata
     id="metadata3594">
    <rdf:RDF>
      <cc:Work
         rdf:about="">
        <dc:format>image/svg+xml</dc:format>
        <dc:type
           rdf:resource="http://purl.org/dc/dcmitype/StillImage" />
        <dc:title></dc:title>
      </cc:Work>
    </rdf:RDF>
  </metadata>
  <g
     transform="translate(8.2567829,-422.65268)"
     id="layer1">
    <path
       id="path3498"
       style="fill:#33b440;fill-opacity:1;fill-rule:nonzero;stroke:none"
       d="m 70.620217,636.91656 c 0,21.77975 -17.65875,39.44087 -39.4395,39.44087 -21.7787499,0 -39.4374999,-17.66112 -39.4374999,-39.44087 0,-21.77638 17.65875,-39.43763 39.4374999,-39.43763 21.78075,0 39.4395,17.66125 39.4395,39.43763" />
    <path
       id="path3500"
       style="fill:#232221;fill-opacity:1;fill-rule:nonzero;stroke:none"
       d="m 301.84071,522.78018 7.49875,-6.47875 45.69625,0 5.45,6.47875 -4.43125,22.07375 -5.455,4.77125 -53.88,0 5.12125,-26.845 z m 65.46625,69.46875 36.41751,-30.62375 8.5225,-51.45125 -27.88375,-34.88375 -90.71251,0 -42.10875,35.47875 -20.97125,126.6925 27.60125,36.67637 101.32875,0.0249 31.53251,-36.686 5.03625,-30.44775 -51.71126,0 -1.46375,9.8825 -8.85,6.48362 -45.505,-0.0937 -5.67625,-6.40487 3.93,-24.76375 80.51375,0.11625" />
    <path
       id="path3502"
       style="fill:#232221;fill-opacity:1;fill-rule:nonzero;stroke:none"
       d="m 571.12072,606.98268 -53.765,0.12375 -1.97875,12.2525 -8.845,6.48638 -44.81375,0 -5.63625,-6.39113 14.5175,-90.19775 8.835,-6.47625 45.69125,0 4.1275,6.47625 -1.13,11.84125 54.36125,0.10125 5.12625,-30.9775 -24.205,-34.93125 -97.55,0 -39.91375,34.88375 -21.0725,127.2875 28.42,36.67638 101.43375,0 31.93125,-36.67638 5.33875,-30.47875 -0.8725,0.005 0,-0.005" />
    <path
       id="path3504"
       style="fill:#232221;fill-opacity:1;fill-rule:nonzero;stroke:none"
       d="m 170.62447,617.07518 -7.47875,6.484 -20.1225,0 -5.475,-6.484 3.49625,-22.8275 12.20625,-71.57875 48.69874,0 7.6,-47.17 -45.14249,0 9.08375,-52.84625 -52.8525,0 -9.08737,52.84625 -24.861883,0 -7.5995,47.17 25.780253,0 -18.978003,114.59475 26.566883,35.74175 75.49836,0 -1.03375,0 29.51875,-35.544 5.05625,-30.27375 -49.41624,0 -1.4575,9.8875" />
    <path
       id="path3506"
       style="fill:#232221;fill-opacity:1;fill-rule:nonzero;stroke:none"
       d="m 730.34697,475.28518 -56.89375,0 -11.525,9.39 -7.4325,5.4525 3.805,-23.82875 7.095,-43.64625 -49.5775,0 -41.64,251.48512 50.61125,0 21.39,-132.93512 17.09625,-11.8625 33.08125,0 7.30625,14.025 -21.1025,130.77262 48.01875,0 26.24875,-163.91637 -26.48125,-34.93625" />
  </g>
</svg>
