<?xml version="1.0" encoding="UTF-8" standalone="no"?>
<svg
   xmlns:dc="http://purl.org/dc/elements/1.1/"
   xmlns:cc="http://creativecommons.org/ns#"
   xmlns:rdf="http://www.w3.org/1999/02/22-rdf-syntax-ns#"
   xmlns:svg="http://www.w3.org/2000/svg"
   xmlns="http://www.w3.org/2000/svg"
   viewBox="0 0 237.53775 56.328126"
   height="56.328125"
   width="237.53775"
   xml:space="preserve"
   version="1.1"
   id="svg3355"><metadata
     id="metadata3361"><rdf:RDF><cc:Work
         rdf:about=""><dc:format>image/svg+xml</dc:format><dc:type
           rdf:resource="http://purl.org/dc/dcmitype/StillImage" /><dc:title></dc:title></cc:Work></rdf:RDF></metadata><defs
     id="defs3359" /><g
     transform="matrix(1.25,0,0,-1.25,-28.6685,85.49075)"
     id="g3363"><g
       transform="scale(0.1,0.1)"
       id="g3365"><path
         id="path3367"
         style="fill:#a3987a;fill-opacity:1;fill-rule:nonzero;stroke:none"
         d="m 322.355,389.18 c 24.813,0 40.997,10.39 43.7,58.769 l -87.84,0 c 2.848,-48.222 19.765,-58.769 44.14,-58.769" /><path
         id="path3369"
         style="fill:#a3987a;fill-opacity:1;fill-rule:nonzero;stroke:none"
         d="m 311.848,470.938 c 7.195,7.187 7.195,18.808 0,26.015 -7.18,7.149 -18.813,7.149 -25.996,0 -6.477,-6.504 -7.102,-16.601 -1.887,-23.789 l -3.992,-8.086 8.086,3.985 c 7.183,-5.235 17.312,-4.61 23.789,1.875" /><path
         id="path3371"
         style="fill:#a3987a;fill-opacity:1;fill-rule:nonzero;stroke:none"
         d="m 267.996,522.09 c -5.047,5.039 -13.223,5.039 -18.269,0 -5.039,-5.059 -5.039,-13.242 0,-18.301 4.55,-4.531 11.652,-4.961 16.687,-1.309 l 5.676,-2.832 -2.793,5.723 c 3.691,5.059 3.254,12.168 -1.301,16.719" /><path
         id="path3373"
         style="fill:#a3987a;fill-opacity:1;fill-rule:nonzero;stroke:none"
         d="m 291.484,549.766 c 3.204,3.222 3.204,8.457 0,11.699 -3.242,3.183 -8.457,3.183 -11.671,0 -2.911,-2.93 -3.18,-7.461 -0.868,-10.684 l -1.789,-3.613 3.645,1.758 c 3.23,-2.344 7.754,-2.071 10.683,0.84" /><path
         id="path3375"
         style="fill:#f68313;fill-opacity:1;fill-rule:nonzero;stroke:none"
         d="m 381.809,580.176 0,-28.008 c -5.754,7.461 -11.692,13.047 -17.844,17.441 L 343.34,548.984 c 32.683,-10.8 37.976,-48.222 37.976,-85.722 0,-44.434 -7.261,-88.887 -58.961,-88.887 -51.679,0 -59.425,44.453 -59.425,88.887 0,1.797 0.039,3.574 0.058,5.39 l -33.64,-33.672 c 2.586,-27.812 10.015,-52.949 27.769,-70.742 12.578,-12.578 33.352,-21.269 57.512,-21.269 25.605,0 47.351,6.269 66.687,30.918 l 0,-37.207 c 0,-40.586 -19.336,-72.93 -65.23,-72.93 -27.551,0 -39.602,8.184 -57.016,23.652 l -22.683,-22.207 c 25.097,-22.695 44.902,-31.894 80.664,-31.894 62.324,0 99.035,43.008 99.035,101.933 l 0,244.942 -34.277,0" /><path
         id="path3377"
         style="fill:#f68313;fill-opacity:1;fill-rule:nonzero;stroke:none"
         d="m 636.395,451.113 -66.227,0 c -35.527,0 -52.813,-14.414 -52.813,-41.758 0,-27.382 16.793,-40.332 54.239,-40.332 20.176,0 37.926,1.426 52.808,15.84 8.164,7.676 11.993,21.133 11.993,40.801 l 0,25.449 z m 0,-108.984 0,22.578 c -19.2,-19.219 -36.485,-25.449 -68.165,-25.449 -32.632,0 -51.835,6.23 -66.714,21.601 -11.528,11.524 -17.754,29.278 -17.754,48.008 0,41.27 28.789,68.164 81.597,68.164 l 71.036,0 0,22.559 c 0,34.57 -17.262,51.836 -60.489,51.836 -30.23,0 -45.586,-7.188 -59.511,-26.875 l -23.536,21.601 c 21.133,27.364 45.137,35.039 83.536,35.039 63.363,0 94.574,-27.343 94.574,-78.711 l 0,-160.351 -34.574,0" /><path
         id="path3379"
         style="fill:#f68313;fill-opacity:1;fill-rule:nonzero;stroke:none"
         d="m 809.602,342.129 c -41.289,0 -60,26.894 -60,62.891 l 0,278.906 34.57,0 0,-277.461 c 0,-23.047 7.676,-34.57 31.68,-34.57 l 18.711,0 0,-29.766 -24.961,0" /><path
         id="path3381"
         style="fill:#f68313;fill-opacity:1;fill-rule:nonzero;stroke:none"
         d="m 979.133,342.129 -30.703,0 -86.41,236.191 37.421,0 64.336,-189.629 64.803,189.629 37.46,0 -86.907,-236.191" /><path
         id="path3383"
         style="fill:#f68313;fill-opacity:1;fill-rule:nonzero;stroke:none"
         d="m 1248.63,451.113 -66.24,0 c -35.52,0 -52.81,-14.414 -52.81,-41.758 0,-27.382 16.8,-40.332 54.24,-40.332 20.16,0 37.94,1.426 52.82,15.84 8.16,7.676 11.99,21.133 11.99,40.801 l 0,25.449 z m 0,-108.984 0,22.578 c -19.22,-19.219 -36.48,-25.449 -68.17,-25.449 -32.64,0 -51.84,6.23 -66.72,21.601 -11.52,11.524 -17.77,29.278 -17.77,48.008 0,41.27 28.81,68.164 81.62,68.164 l 71.04,0 0,22.559 c 0,34.57 -17.26,51.836 -60.5,51.836 -30.23,0 -45.58,-7.188 -59.51,-26.875 l -23.53,21.601 c 21.13,27.364 45.13,35.039 83.53,35.039 63.37,0 94.58,-27.343 94.58,-78.711 l 0,-160.351 -34.57,0" /><path
         id="path3385"
         style="fill:#f68313;fill-opacity:1;fill-rule:nonzero;stroke:none"
         d="m 1508.36,342.129 0,145.469 c 0,41.757 -22.58,62.89 -58.09,62.89 -35.5,0 -58.55,-21.601 -58.55,-62.89 l 0,-145.469 -34.57,0 0,236.191 34.57,0 0,-25.918 c 16.8,19.2 39.84,28.789 66.21,28.789 25.47,0 46.09,-7.675 60.51,-22.07 16.79,-16.328 24.49,-38.398 24.49,-65.781 l 0,-151.211 -34.57,0" /><path
         id="path3387"
         style="fill:#f68313;fill-opacity:1;fill-rule:nonzero;stroke:none"
         d="m 1618.16,342.129 34.5703,0 0,236.191 -34.5703,0 0,-236.191 z" /><path
         id="path3389"
         style="fill:#f68313;fill-opacity:1;fill-rule:nonzero;stroke:none"
         d="m 1720.39,342.129 0,29.766 131.52,175.703 -124.33,0 0,30.722 164.18,0 0,-29.277 -132.03,-176.172 132.03,0 0,-30.742 -171.37,0" /><path
         id="path3391"
         style="fill:#f68313;fill-opacity:1;fill-rule:nonzero;stroke:none"
         d="m 2087.89,516.387 c -9.14,21.601 -30.27,35.527 -55.23,35.527 -24.96,0 -46.06,-13.926 -55.2,-35.527 -5.27,-12.969 -6.25,-20.157 -7.19,-39.356 l 124.81,0 c -0.98,19.199 -1.92,26.387 -7.19,39.356 z m -117.62,-65.274 c 0,-51.836 24.5,-81.601 69.61,-81.601 27.35,0 43.21,8.164 61.92,26.875 l 23.51,-20.645 c -23.98,-24.004 -46.09,-36.484 -86.4,-36.484 -62.39,0 -103.21,37.441 -103.21,120.957 0,76.328 36.96,120.976 96.96,120.976 60.97,0 96.99,-44.16 96.99,-114.238 l 0,-15.84 -159.38,0" /></g></g></svg>