<?xml version="1.0" encoding="utf-8"?>
<!-- Generator: Adobe Illustrator 15.1.0, SVG Export Plug-In . SVG Version: 6.00 Build 0)  -->
<!DOCTYPE svg PUBLIC "-//W3C//DTD SVG 1.1//EN" "http://www.w3.org/Graphics/SVG/1.1/DTD/svg11.dtd">
<svg version="1.1" xmlns="http://www.w3.org/2000/svg" xmlns:xlink="http://www.w3.org/1999/xlink" x="0px" y="0px" width="1000px"
	 height="200px" viewBox="0 0 1000 200" enable-background="new 0 0 1000 200" xml:space="preserve">
<g id="Layer_3" display="none">
	<rect display="inline" fill="#FFFFFF" width="1000" height="200"/>
</g>
<g id="Layer_2">
	<g>
		<path d="M74.6,63.848h34.302l41.803,52.804V63.848h22.201v72.305h-34.602L96.801,83.949v52.203H74.6V63.848z"/>
		<path d="M211.4,63.848v72.305h-22.201V63.848H211.4z"/>
		<path d="M252.5,136.152V82.149h-31.002V63.848h84.105v18.302h-30.902v54.003H252.5z"/>
		<path d="M314.997,63.848h66.504c8.101,0,12.4,1.101,16.101,4.301c4.9,4.1,6.101,8.2,6.101,19.901c0,13.101-2.1,16.501-12.4,19.501
			v0.3c4.8,1.101,7.601,2.4,9.3,4.801c2.301,2.899,2.801,6,2.801,17.301v6.2h-22.201c0.199-2.4,0.199-4.7,0.199-5.301
			c0-11.8-1.199-13.4-10.5-13.4h-33.702v18.701h-22.201V63.848z M337.198,99.35H371.8c8.401,0,10.401-1.899,10.401-8.8
			c0-7.001-2.2-9.001-10.401-9.001h-34.602V99.35z"/>
		<path d="M417.096,89.75c0-10.401,2-16.102,7.2-20.502c6.101-5.301,12.301-6.2,38.703-6.2c31.901,0,36.102,0.399,42.302,3.5
			c5.5,2.7,8.701,7.001,10.102,12.801c0.799,3.601,1,8.701,1,23.702c0,16.001-0.602,19.801-4.4,25.001
			c-5.002,7.001-12.301,8.9-34.803,8.9c-37.302,0-41.603-0.3-47.202-2.9c-8.901-4.1-12.901-12-12.901-25.301V89.75z M480,118.352
			c5.5,0,8.8-0.801,10.601-2.7c2.3-2.101,2.8-5.7,2.8-18.201c0-8.301-0.8-11.701-3.2-13.501c-1.4-1.101-3.4-1.8-5.7-2
			c-1.2-0.2-15.801-0.4-21.901-0.4c-14.101,0-15.201,0.101-18.501,2.5c-3.2,2.4-4,5.301-4,15.602c0,11.9,0.6,14.301,3.6,16.601
			c2.2,1.601,5.101,2.101,10.701,2.101H480z"/>
		<path d="M552.096,63.848v41.103c0,9.701,3.199,13.401,12.102,13.401h23.1c9.201,0,11.801-2.9,11.801-12.602V63.848h22.203v44.703
			c0,11.9-1.4,16.801-6.502,21.501c-2.799,2.5-7.4,4.801-11.801,5.601c-3.9,0.8-17,1.3-30.701,1.3c-16.4,0-23.602-0.7-28.301-2.7
			c-10.301-4.1-14.102-11.301-14.102-26.001V63.848H552.096z"/>
		<path d="M656.797,112.351v1.301c0,2.8,1.1,5.1,3.1,6c1.301,0.7,2.801,1,6.6,1h27.902c6.4,0,8.9-1.8,8.9-6.2
			c0-5.4-2.6-6.101-18.4-6.301l-17.502-0.3c-16.701-0.3-22.4-1.1-27.102-4.5c-4-3.101-5.6-8.101-5.6-17.802
			c0-9.9,1.6-14.5,6.4-17.801c5.699-4,10.1-4.7,30.301-4.7c31.303,0,33.902,0.101,39.504,1.7c3.6,1,7.299,3.4,9,5.9
			c2,2.801,3,6.801,3,13.001v2.899H701.1V84.85c-0.301-4-2.701-5.601-8.801-5.601h-25.402c-7.199,0-10,1.7-10,6
			c0,2.101,0.801,3.7,2.301,4.4c2.1,0.9,4.1,1,16.701,1.3l16.301,0.301c15.9,0.199,18.801,0.6,23.102,2.399
			c7.699,3.001,10.6,8.701,10.6,20.602c0,11.4-2.199,16.301-9.301,19.501c-5.199,2.4-11.801,3.2-26.002,3.2
			c-41.902,0-43.502-0.1-49.203-4.1c-5.1-3.501-6.5-7.501-6.5-18.901v-1.601H656.797z"/>
		<path fill="#888888" d="M745.395,115.651h21.201v20.501h-21.201V115.651z"/>
		<path fill="#888888" d="M811.395,63.848v72.305h-22.201V63.848H811.395z"/>
		<path fill="#888888" d="M826.094,89.75c0-10.401,2-16.102,7.199-20.502c6.102-5.301,12.301-6.2,38.703-6.2
			c31.902,0,36.102,0.399,42.303,3.5c5.5,2.7,8.701,7.001,10.102,12.801c0.799,3.601,1,8.701,1,23.702
			c0,16.001-0.602,19.801-4.4,25.001c-5.002,7.001-12.301,8.9-34.803,8.9c-37.303,0-41.604-0.3-47.203-2.9
			c-8.9-4.1-12.9-12-12.9-25.301V89.75z M888.998,118.352c5.5,0,8.799-0.801,10.6-2.7c2.301-2.101,2.801-5.7,2.801-18.201
			c0-8.301-0.801-11.701-3.201-13.501c-1.4-1.101-3.4-1.8-5.699-2c-1.201-0.2-15.801-0.4-21.902-0.4c-14.1,0-15.201,0.101-18.5,2.5
			c-3.201,2.4-4,5.301-4,15.602c0,11.9,0.6,14.301,3.6,16.601c2.199,1.601,5.1,2.101,10.701,2.101H888.998z"/>
	</g>
</g>
</svg>
