<?xml version="1.0" encoding="UTF-8" standalone="no"?>
<svg
   xmlns:dc="http://purl.org/dc/elements/1.1/"
   xmlns:cc="http://creativecommons.org/ns#"
   xmlns:rdf="http://www.w3.org/1999/02/22-rdf-syntax-ns#"
   xmlns:svg="http://www.w3.org/2000/svg"
   xmlns="http://www.w3.org/2000/svg"
   viewBox="0 0 400.14999 47.912498"
   height="47.912498"
   width="400.14999"
   xml:space="preserve"
   version="1.1"
   id="svg3355"><metadata
     id="metadata3361"><rdf:RDF><cc:Work
         rdf:about=""><dc:format>image/svg+xml</dc:format><dc:type
           rdf:resource="http://purl.org/dc/dcmitype/StillImage" /><dc:title></dc:title></cc:Work></rdf:RDF></metadata><defs
     id="defs3359" /><g
     transform="matrix(1.25,0,0,-1.25,0,47.9125)"
     id="g3363"><g
       transform="scale(0.1,0.1)"
       id="g3365"><path
         id="path3367"
         style="fill:#317893;fill-opacity:1;fill-rule:nonzero;stroke:none"
         d="m 721.816,378.336 0,-69.309 -58.418,0 0,-304.08559 -73.789,0 0,304.08559 -57.961,0 0,69.309 190.168,0" /><path
         id="path3369"
         style="fill:#317893;fill-opacity:1;fill-rule:nonzero;stroke:none"
         d="m 816.887,378.336 0,-146.074 74.773,0 0,146.074 73.778,0 0,-373.39459 -73.778,0 0,157.98859 -74.773,0 0,-157.98859 -73.774,0 0,373.39459 73.774,0" /><path
         id="path3371"
         style="fill:#317893;fill-opacity:1;fill-rule:nonzero;stroke:none"
         d="m 1005.53,4.94141 73.7891,0 0,373.395 -73.7891,0 0,-373.395 z" /><path
         id="path3373"
         style="fill:#317893;fill-opacity:1;fill-rule:nonzero;stroke:none"
         d="m 1267.97,378.336 0,-69.309 -74.76,0 0,-81.211 65.88,0 0,-69.339 -65.88,0 0,-84.1801 75.75,0 0,-69.35549 -149.55,0 0,373.39459 148.56,0" /><path
         id="path3375"
         style="fill:#317893;fill-opacity:1;fill-rule:nonzero;stroke:none"
         d="m 1374.92,378.336 0,-304.0391 77.26,0 0,-69.35549 -151.05,0 0,373.39459 73.79,0" /><path
         id="path3377"
         style="fill:#77797a;fill-opacity:1;fill-rule:nonzero;stroke:none"
         d="m 1622.06,346.656 -84.67,0 0,-131.738 80.23,0 0,-31.699 -80.23,0 0,-178.27759 -34.66,0 0,373.39459 119.33,0 0,-31.68" /><path
         id="path3379"
         style="fill:#77797a;fill-opacity:1;fill-rule:nonzero;stroke:none"
         d="m 1684.96,191.656 c 0,-65.875 2.46,-157.9646 55.94,-157.9646 53.49,0 55.97,92.0896 55.97,157.9646 0,65.86 -2.48,157.969 -55.97,157.969 -53.48,2.461 -55.94,-92.109 -55.94,-157.969 z m 147.58,0 C 1832.54,121.836 1827.57,0 1740.9,0 c -81.7,0 -91.61,104.492 -91.61,191.656 0,94.578 12.4,191.641 91.61,191.641 84.21,0 91.64,-109.434 91.64,-191.641" /><path
         id="path3381"
         style="fill:#77797a;fill-opacity:1;fill-rule:nonzero;stroke:none"
         d="M 2023.67,123.301 C 2023.67,54.4922 2018.22,0 1945.42,0 c -74.78,0 -78.24,56.4453 -78.24,123.301 l 0,255.035 34.68,0 0,-253.063 c 0,-61.8941 3.45,-91.5816 43.56,-91.5816 39.61,0 43.6,29.6875 43.6,91.5816 l 0,253.063 34.65,0 0,-255.035" /><path
         id="path3383"
         style="fill:#77797a;fill-opacity:1;fill-rule:nonzero;stroke:none"
         d="m 2224.7,4.94141 -30.21,0 -84.18,251.07859 c -5.47,15.363 -8.43,32.199 -12.88,48.046 l -1.98,0 c 1.47,-24.246 3.96,-48.046 3.96,-72.312 l 0,-226.81259 -30.22,0 0,373.39459 30.22,0 85.68,-259.469 c 4.44,-12.89 7.91,-25.7811 11.38,-38.6522 l 1.48,0 c -0.98,16.3672 -3.46,33.2032 -3.46,49.5312 l 0,248.59 30.21,0 0,-373.39459" /><path
         id="path3385"
         style="fill:#77797a;fill-opacity:1;fill-rule:nonzero;stroke:none"
         d="m 2306.88,36.6406 9.91,0 c 66.86,0 75.26,47.0508 75.26,155.0154 0,128.25 -13.37,155 -79.22,155 l -5.95,0 0,-310.0154 z m -34.66,341.6954 37.62,0 c 71.3,0 117.87,-8.906 117.87,-186.68 0,-146.0896 -23.77,-186.71459 -115.41,-186.71459 l -40.08,0 0,373.39459" /><path
         id="path3387"
         style="fill:#77797a;fill-opacity:1;fill-rule:nonzero;stroke:none"
         d="m 2558.44,111.934 -24.78,143.089 c -4.46,25.254 -6.41,51.016 -9.4,76.29 l -1.98,0 c -3.47,-25.274 -5.96,-51.036 -9.92,-76.29 l -21.77,-143.089 67.85,0 z m 56.46,-106.99259 -37.17,0 -13.86,76.75779 -79.22,0 -13.37,-76.75779 -37.16,0 73.32,373.39459 32.66,0 74.8,-373.39459" /><path
         id="path3389"
         style="fill:#77797a;fill-opacity:1;fill-rule:nonzero;stroke:none"
         d="m 2734.75,346.656 -55.96,0 0,-341.71459 -34.66,0 0,341.71459 -55.96,0 0,31.68 146.58,0 0,-31.68" /><path
         id="path3391"
         style="fill:#77797a;fill-opacity:1;fill-rule:nonzero;stroke:none"
         d="m 2755.55,4.94141 34.668,0 0,373.395 -34.668,0 0,-373.395 z" /><path
         id="path3393"
         style="fill:#77797a;fill-opacity:1;fill-rule:nonzero;stroke:none"
         d="m 2861.99,191.656 c 0,-65.875 2.48,-157.9646 55.96,-157.9646 53.5,0 55.99,92.0896 55.99,157.9646 0,65.86 -2.49,157.969 -55.99,157.969 -53.48,2.461 -55.96,-92.109 -55.96,-157.969 z m 147.59,0 C 3009.58,121.836 3004.62,0 2917.95,0 c -81.68,0 -91.61,104.492 -91.61,191.656 0,94.578 12.4,191.641 91.61,191.641 84.21,0 91.63,-109.434 91.63,-191.641" /><path
         id="path3395"
         style="fill:#77797a;fill-opacity:1;fill-rule:nonzero;stroke:none"
         d="m 3201.22,4.94141 -30.24,0 L 3086.8,256.02 c -5.43,15.363 -8.4,32.199 -12.85,48.046 l -2.01,0 c 1.52,-24.246 3.96,-48.046 3.96,-72.312 l 0,-226.81259 -30.18,0 0,373.39459 30.18,0 85.69,-259.469 c 4.48,-12.89 7.92,-25.7811 11.39,-38.6522 l 1.47,0 c -0.98,16.3672 -3.47,33.2032 -3.47,49.5312 l 0,248.59 30.24,0 0,-373.39459" /><path
         id="path3397"
         style="fill:#3d3d3e;fill-opacity:1;fill-rule:nonzero;stroke:none"
         d="m 147.422,346.031 -56.2697,0 0,-343.58959 -34.871,0 0,343.58959 -56.2813,0 0,31.856 147.422,0 0,-31.856" /><path
         id="path3399"
         style="fill:#3d3d3e;fill-opacity:1;fill-rule:nonzero;stroke:none"
         d="m 324.172,2.44141 -34.856,0 0,193.67559 -86.14,0 0,-193.67559 -34.856,0 0,375.44559 34.856,0 0,-149.883 86.14,0 0,149.883 34.856,0 0,-375.44559" /><path
         id="path3401"
         style="fill:#3d3d3e;fill-opacity:1;fill-rule:nonzero;stroke:none"
         d="m 489.473,346.031 -83.145,0 0,-132.461 80.664,0 0,-31.886 -80.664,0 0,-147.3871 83.145,0 0,-31.85549 -117.996,0 0,375.44559 117.996,0 0,-31.856" /></g></g></svg>