<?xml version="1.0" encoding="UTF-8" standalone="no"?>
<svg width="200px" height="200px" viewBox="0 0 200 200" version="1.1" xmlns="http://www.w3.org/2000/svg" xmlns:xlink="http://www.w3.org/1999/xlink">
    <!-- Generator: Sketch 39.1 (31720) - http://www.bohemiancoding.com/sketch -->
    <title>Chat BW</title>
    <desc>Created with Sketch.</desc>
    <defs>
        <path d="M21.4956269,80.6157348 C32.5437371,80.6157354 41.5,71.6595802 41.5,60.6121036 L41.5,40.9966439 C41.5,36.5802194 45.0842667,33 49.4967337,33 L123.169933,33 C127.586407,33 131.166667,36.5849836 131.166667,41.0068556 L131.166667,105.993144 C131.166667,110.415209 127.581506,114 123.162431,114 L82.5113491,114 C60.4204484,114 29.8188075,101.355043 14.172003,85.7679874 L9,80.6157341 L21.4956269,80.6157348 Z" id="path-1"></path>
        <mask id="mask-2" maskContentUnits="userSpaceOnUse" maskUnits="objectBoundingBox" x="0" y="0" width="122.166667" height="81" fill="white">
            <use xlink:href="#path-1"></use>
        </mask>
        <path d="M47.4956269,129.615735 C58.5437371,129.615735 67.5,120.65362 67.5,109.623889 L67.5,100.000345 C67.5,95.5818763 71.0799381,92 75.5000255,92 L184.166641,92 C188.584933,92 192.166667,95.5817689 192.166667,100.006588 L192.166667,154.993412 C192.166667,159.415328 188.58274,163 184.172374,163 L104.008742,163 C84.4045625,163 57.2482534,151.779031 43.3593181,137.943132 L35,129.615734 L47.4956269,129.615735 Z" id="path-3"></path>
        <mask id="mask-4" maskContentUnits="userSpaceOnUse" maskUnits="objectBoundingBox" x="0" y="0" width="157.166667" height="71" fill="white">
            <use xlink:href="#path-3"></use>
        </mask>
    </defs>
    <g id="Slices" stroke="none" stroke-width="1" fill="none" fill-rule="evenodd">
        <g id="Chat-BW">
            <use id="Rectangle-11" stroke="#4A4A4A" mask="url(#mask-2)" stroke-width="6" fill="#FFFFFF" xlink:href="#path-1"></use>
            <use id="Rectangle-11" stroke="#4A4A4A" mask="url(#mask-4)" stroke-width="6" fill="#FFFFFF" transform="translate(113.583333, 127.500000) scale(-1, 1) translate(-113.583333, -127.500000) " xlink:href="#path-3"></use>
            <path d="M62.6280581,73.8538084 C63.1178717,73.2086879 63.6674105,72.5157912 64.2766909,71.7750974 C64.8859713,71.0344036 65.5191356,70.3444935 66.1762027,69.7053464 C66.8332698,69.0661993 67.4873404,68.5345802 68.1384341,68.1104733 C68.7895279,67.6863663 69.4017858,67.474316 69.9752262,67.474316 C70.1185863,67.474316 70.279864,67.5011957 70.4590641,67.5549557 C70.6382642,67.6087157 70.8085017,67.7072743 70.9697819,67.8506344 C71.131062,67.9939945 71.26546,68.1940983 71.3729801,68.4509518 C71.4805002,68.7078053 71.5342594,69.0393206 71.5342594,69.4455075 C71.5342594,70.2578814 71.4207677,71.0493367 71.1937809,71.8198972 C70.9667941,72.5904577 70.7189043,73.3610066 70.4501041,74.1315672 C70.1813039,74.9021277 69.9364008,75.6876097 69.7153873,76.4880369 C69.4943738,77.2884641 69.3838687,78.1247188 69.3838687,78.996826 C69.3838687,79.474693 69.4555477,79.8569809 69.5989078,80.1437011 C69.7422679,80.4304213 69.9274386,80.5737792 70.1544254,80.5737792 C70.4411456,80.5737792 70.7457812,80.5140467 71.0683414,80.39458 C71.3909016,80.2751132 71.713457,80.1198088 72.0360172,79.928662 C72.3585774,79.7375152 72.6751596,79.5194917 72.9857731,79.2745848 C73.2963866,79.029678 73.5890758,78.775815 73.8638493,78.5129881 C74.5209164,77.9037077 75.1660272,77.210811 75.7992009,76.4342772 L76.1038396,81.2009765 C75.8887994,81.3682299 75.6170167,81.5772936 75.2884831,81.8281738 C74.9599496,82.0790539 74.5955815,82.3448634 74.1953679,82.6256103 C73.7951543,82.9063572 73.3620938,83.1900864 72.8961735,83.4768066 C72.4302532,83.7635268 71.9613532,84.0173898 71.4894596,84.2384033 C71.017566,84.4594168 70.5456794,84.6416008 70.0737857,84.7849609 C69.6018921,84.928321 69.1509119,85 68.7208316,85 C68.0637645,85 67.4933194,84.8237892 67.009479,84.4713623 C66.5256387,84.1189354 66.1284177,83.6709418 65.8178042,83.1273681 C65.5071907,82.5837944 65.274234,81.9894563 65.1189272,81.3443359 C64.9636205,80.6992154 64.8859683,80.0899442 64.8859683,79.5165038 C64.8859683,79.1342102 64.9367409,78.707123 65.0382876,78.2352294 C65.1398343,77.7633357 65.2652725,77.2884625 65.414606,76.8105955 C65.5639394,76.3327286 65.7311903,75.8668152 65.9163638,75.4128416 C66.1015372,74.958868 66.2747614,74.5526871 66.4360415,74.1942869 C66.5973216,73.8358866 66.737693,73.5431975 66.8571597,73.3162107 C66.9766264,73.0892239 67.0542787,72.9578124 67.0901187,72.9219724 L66.7138003,72.8682126 C66.5107069,72.9996261 66.1672451,73.3341279 65.6834048,73.8717283 C65.1995645,74.4093286 64.6530123,75.0872923 64.0437319,75.9056395 C63.4344515,76.7239867 62.8042739,77.6438668 62.1531801,78.6653075 C61.5020863,79.6867482 60.9137214,80.7410264 60.3880678,81.8281738 C60.1252409,82.3657741 59.910204,82.8346741 59.7429506,83.2348877 C59.5756971,83.6351013 59.4114328,83.9636299 59.2501527,84.2204834 C59.0888726,84.4773369 58.9126618,84.6714674 58.721515,84.8028809 C58.5303682,84.9342943 58.2854651,85 57.9867982,85 C57.5925579,85 57.281949,84.8865083 57.0549622,84.6595215 C56.8279754,84.4325347 56.6547512,84.1308857 56.5352845,83.7545654 C56.4158177,83.3782452 56.3381655,82.9511579 56.3023255,82.473291 C56.2664855,81.995424 56.2485657,81.5056177 56.2485657,81.0038573 C56.2485657,80.2034301 56.2575256,79.1551252 56.2754456,77.858911 C56.2933656,76.5626968 56.3501115,75.1261307 56.4456849,73.5491697 C56.5412583,71.9722086 56.678643,70.3116458 56.8578431,68.5674313 C57.0370432,66.8232168 57.2909062,65.0999349 57.6194398,63.3975337 C57.9479733,61.6951326 58.3601274,60.0704092 58.8559144,58.5233149 C59.3517014,56.9762205 59.9549994,55.6143201 60.6658266,54.4375726 C61.3766537,53.2608252 62.2099218,52.3260119 63.1656557,51.6331048 C64.1213897,50.9401977 65.2204673,50.5937493 66.4629214,50.5937493 C67.1080418,50.5937493 67.6366743,50.6893212 68.0488345,50.880468 C68.4609948,51.0716148 68.7895234,51.340411 69.0344303,51.6868645 C69.2793371,52.0333181 69.4495746,52.4484588 69.545148,52.9322991 C69.6407214,53.4161395 69.6885074,53.9567184 69.6885074,54.5540521 C69.6885074,55.438106 69.5630692,56.4177186 69.312189,57.4929194 C69.0613089,58.5681201 68.7297936,59.6851174 68.3176334,60.8439448 C67.9054731,62.0027722 67.4365731,63.1765154 66.9109195,64.3652095 C66.3852658,65.5539037 65.8476735,66.7067405 65.2981265,67.8237545 C64.7485794,68.9407686 64.2080005,69.9950468 63.6763735,70.9866208 C63.1447465,71.9781948 62.6758465,72.850289 62.2696596,73.6029295 L62.6280581,73.8538084 Z M64.2229311,62.7792964 C64.9277849,60.9514552 65.4384976,59.4103573 65.7550845,58.1559565 C66.0716714,56.9015556 66.2299624,55.9757023 66.2299624,55.3783685 C66.2299624,54.4704213 66.1104975,54.0164544 65.871564,54.0164544 C65.5609504,54.0164544 65.1010104,54.5241805 64.49173,55.5396478 C63.8824496,56.5551152 63.1656598,58.0305073 62.3413393,59.9658686 C62.1382458,60.6229357 61.9500885,61.303886 61.7768617,62.0087398 C61.603635,62.7135936 61.4483305,63.4154502 61.3109438,64.1143306 C61.173557,64.8132111 61.0481188,65.5001346 60.9346254,66.1751217 C60.821132,66.8501088 60.7225734,67.4922329 60.6389467,68.1015133 C60.4358532,69.5231676 60.2805488,70.9149343 60.1730287,72.2768552 C60.4955889,71.5242147 60.8480105,70.7058798 61.2303041,69.8218259 C61.6125977,68.9377719 61.9889123,68.0626912 62.3592592,67.1965572 C62.7296061,66.3304233 63.0790411,65.5120884 63.4075747,64.7415279 C63.7361082,63.9709674 64.007891,63.3168968 64.2229311,62.7792964 L64.2229311,62.7792964 Z M77.9227117,84.3907226 C77.0804711,83.9845357 75.9607773,82.6385463 75.3992836,81.9516125 C75.269731,81.7931173 76.1770073,81.2009764 76.1770073,81.2009764 L75.8171208,76.6134768 L74.1483209,78.096267 C74.1483209,78.096267 74.1326481,77.7186851 74.1326481,77.5273924 C74.1326481,76.8583786 74.1983539,76.1505488 74.3297673,75.4038816 C74.4611807,74.6572145 74.6612845,73.9254916 74.9300847,73.2086912 C75.1988849,72.4918907 75.5363733,71.8079538 75.9425603,71.1568601 C76.3487472,70.5057663 76.8236204,69.9323345 77.3671941,69.4365475 C77.9107678,68.9407605 78.5200391,68.5465262 79.1950262,68.2538327 C79.8700133,67.9611391 80.6196559,67.8147946 81.4439764,67.8147946 C82.1129902,67.8147946 82.7342079,67.922313 83.3076483,68.1373532 C83.8810887,68.3523933 84.3798549,68.6540423 84.8039618,69.0423092 C85.2280688,69.4305762 85.559584,69.8994761 85.7985175,70.4490231 C86.037451,70.9985702 86.156916,71.6138147 86.156916,72.2947751 C86.156916,73.0354689 85.9747319,73.7761517 85.6103583,74.5168455 C85.2459848,75.2575393 84.7412453,75.9564093 84.0961249,76.6134764 C83.4510045,77.2705435 82.6834421,77.8559218 81.7934149,78.3696288 C80.9033876,78.8833358 79.9387081,79.2835434 78.8993475,79.5702636 C79.0785476,79.8928238 79.2547584,80.1616199 79.4279852,80.3766601 C79.6012119,80.5917002 79.7774227,80.7589511 79.9566229,80.8784179 C80.135823,80.9978846 80.3239803,81.0815101 80.5211004,81.1292968 C80.7182205,81.1770835 80.9302708,81.2009765 81.1572577,81.2009765 C81.8740581,81.2009765 82.629674,81.0576185 83.4241278,80.7708983 C84.2185817,80.4841782 84.9921173,80.1257833 85.7447577,79.695703 C86.4973982,79.2656227 87.4619738,78.6227484 87.4619738,78.6227484 L86.7459895,83.2232371 C86.7459895,83.2232371 85.6700947,83.8441637 85.0190009,84.1129638 C84.3679071,84.381764 83.6929301,84.5968009 82.9940497,84.758081 C82.2951692,84.9193612 81.5873394,85 80.8705389,85 C79.7475515,85 78.7649522,84.7969096 77.9227117,84.3907226 Z M78.4871892,76.5776365 C78.9172695,76.5776365 79.3861695,76.4671315 79.8939031,76.246118 C80.4016368,76.0251045 80.8735234,75.7413752 81.309577,75.3949217 C81.7456306,75.0484681 82.1129853,74.6721535 82.4116522,74.2659666 C82.7103191,73.8597796 82.8596503,73.4655453 82.8596503,73.0832517 C82.8596503,72.5456513 82.7610917,72.103631 82.5639716,71.7571775 C82.3668514,71.4107239 82.1249349,71.2374997 81.8382147,71.2374997 C81.3245077,71.2374997 80.885474,71.3330717 80.5211004,71.5242185 C80.1567268,71.7153653 79.8520912,71.963255 79.6071844,72.2678952 C79.3622776,72.5725354 79.1651604,72.9189838 79.0158269,73.3072507 C78.8664935,73.6955177 78.7530018,74.0867654 78.6753484,74.4810056 C78.597695,74.8752459 78.5469224,75.2575338 78.5230291,75.6278807 C78.4991357,75.9982276 78.4871892,76.3148097 78.4871892,76.5776365 L78.4871892,76.5776365 Z M86.7034736,83.9875244 C86.7572336,83.5036841 86.8289126,82.9183058 86.9185127,82.231372 C87.0081127,81.5444382 87.1186178,80.7828491 87.2500312,79.9465819 C87.3814446,79.1103147 87.5248026,78.2531537 87.6801094,77.3750731 C87.8354161,76.4969925 88.0026671,75.6248983 88.1818672,74.7587644 C88.3610673,73.8926305 88.546238,73.0802688 88.7373848,72.321655 C88.9285316,71.5630412 89.1226621,70.8910508 89.3197822,70.3056638 C89.5169024,69.7202767 89.7110329,69.2663099 89.9021797,68.9437497 C90.0694332,68.6689762 90.2665503,68.4539392 90.4935371,68.2986325 C90.720524,68.1433257 90.9684137,68.029834 91.2372139,67.9581539 C91.5060141,67.8864739 91.7867567,67.8416745 92.0794503,67.8237545 C92.3721438,67.8058345 92.6618463,67.7968746 92.9485665,67.7968746 C93.3667001,67.7968746 93.6683491,67.9223128 93.8535226,68.173193 C94.038696,68.4240732 94.1312814,68.6868961 94.1312814,68.9616696 C94.1312814,69.1050297 94.0984285,69.3320131 94.0327218,69.6426266 C93.9670151,69.9532402 93.8863762,70.287742 93.7908028,70.6461423 C93.6952294,71.0045425 93.5996575,71.3450176 93.5040841,71.6675778 C93.4085107,71.9901381 93.3368317,72.229068 93.289045,72.3843747 L92.2855294,75.2515623 C92.9545431,75.1440422 93.5996539,75.0693766 94.220881,75.0275633 C94.842108,74.9857499 95.5230583,74.9080977 96.2637521,74.7946043 C97.0044459,74.6811109 97.8407006,74.4899669 98.7725412,74.2211668 C99.7043818,73.9523666 100.815406,73.5312526 102.105647,72.9578122 L102.105647,76.3984373 C101.317166,76.8285176 100.525711,77.1600329 99.7312571,77.392993 C98.9368032,77.6259532 98.2170269,77.7961907 97.5719064,77.9037108 C96.8192659,78.0351242 96.0845565,78.1068032 95.367756,78.1187499 C95.6664229,78.8952837 95.9292458,79.7016721 96.1562326,80.5379394 C96.359326,81.2547398 96.5415101,82.0521684 96.7027902,82.930249 C96.8640703,83.8083296 96.9447092,84.6893836 96.9447092,85.5734375 C96.9447092,85.7287443 96.929776,86.0901258 96.8999093,86.6575928 C96.8700427,87.2250598 96.7983637,87.891077 96.6848703,88.6556641 C96.5713769,89.4202513 96.3921794,90.2296264 96.1472726,91.0838136 C95.9023658,91.9380008 95.5678639,92.7204963 95.143757,93.4313234 C94.71965,94.1421506 94.188031,94.7305155 93.5488839,95.1964358 C92.9097368,95.6623561 92.130228,95.8953127 91.210334,95.8953127 C90.3740668,95.8953127 89.6632503,95.6504096 89.0778633,95.1605959 C88.4924762,94.6707823 88.017603,93.9599658 87.6532295,93.0281252 C87.2888559,92.0962846 87.026033,90.9553942 86.8647529,89.60542 C86.7034728,88.2554458 86.6228339,86.7203211 86.6228339,85 C86.6228339,84.8088532 86.6497136,84.4713647 86.7034736,83.9875244 Z M91.7479317,76.9897948 C91.4373182,78.8415293 91.1744953,80.7111558 90.9594551,82.5987304 C90.744415,84.486305 90.6368965,86.4335837 90.6368965,88.4406251 C90.6368965,89.0976922 90.6787093,89.6442443 90.762336,90.080298 C90.8459627,90.5163516 90.9504945,90.8687732 91.0759346,91.1375734 C91.2013747,91.4063735 91.3268129,91.5975175 91.452253,91.7110109 C91.5776931,91.8245043 91.6881982,91.8812501 91.7837715,91.8812501 C92.1780118,91.8812501 92.4916073,91.6662132 92.7245675,91.2361329 C92.9575276,90.8060527 93.1307518,90.2744336 93.2442452,89.6412599 C93.3577386,89.0080861 93.4294176,88.3241493 93.4592843,87.5894288 C93.489151,86.8547083 93.5040841,86.1827179 93.5040841,85.5734375 C93.5040841,85.2269839 93.4772045,84.8357362 93.4234444,84.3996826 C93.3696844,83.963629 93.3039787,83.5126488 93.2263253,83.0467285 C93.1486719,82.5808082 93.0560866,82.1089216 92.9485665,81.6310546 C92.8410464,81.1531876 92.733528,80.6872743 92.6260079,80.2333007 C92.3631811,79.1819933 92.0704919,78.1008355 91.7479317,76.9897948 L91.7479317,76.9897948 Z M90.6010567,62.7613765 C90.6010567,62.486603 90.6607892,62.1759941 90.7802559,61.8295405 C90.8997226,61.483087 91.0938532,61.157545 91.3626534,60.8529048 C91.6314536,60.5482646 91.9898484,60.2914149 92.4378487,60.0823481 C92.885849,59.8732813 93.4443477,59.7687495 94.1133614,59.7687495 C94.531495,59.7687495 94.9257294,59.8165355 95.2960763,59.9121089 C95.6664232,60.0076822 95.9889786,60.1540268 96.2637521,60.3511469 C96.5385256,60.5482671 96.7565492,60.8081034 96.9178293,61.1306636 C97.0791094,61.4532238 97.1597482,61.8355116 97.1597482,62.2775386 C97.1597482,62.6837255 97.0940425,63.0779599 96.9626291,63.4602535 C96.8312157,63.842547 96.622152,64.1830222 96.3354318,64.481689 C96.0487116,64.7803559 95.6873301,65.0222724 95.2512765,65.2074459 C94.8152229,65.3926193 94.2925637,65.4852047 93.6832833,65.4852047 C92.6319759,65.4852047 91.8554537,65.2373149 91.3536934,64.7415279 C90.8519331,64.2457409 90.6010567,63.585697 90.6010567,62.7613765 L90.6010567,62.7613765 Z M106.119709,75.8249998 C106.239176,74.5944923 106.418374,73.3251772 106.657307,72.0170163 C106.896241,70.7088555 107.17101,69.4007142 107.481623,68.0925534 C107.792237,66.7843925 108.123752,65.4911844 108.476179,64.2128902 C108.828606,62.934596 109.178041,61.7100802 109.524495,60.5393061 C109.870948,59.368532 110.202463,58.2694545 110.51905,57.2420404 C110.835637,56.2146264 111.113393,55.288773 111.352327,54.4644525 C111.507633,53.8910121 111.73163,53.4280854 112.024324,53.0756585 C112.317017,52.7232316 112.642559,52.4484622 113.000959,52.2513421 C113.35936,52.054222 113.738661,51.9198239 114.138875,51.8481438 C114.539088,51.7764638 114.924363,51.7406243 115.29471,51.7406243 C115.485856,51.7406243 115.665054,51.7645173 115.832307,51.812304 C115.999561,51.8600907 116.142919,51.9467028 116.262385,52.0721429 C116.381852,52.197583 116.474437,52.3708071 116.540144,52.5918206 C116.605851,52.8128341 116.638704,53.0965634 116.638704,53.4430169 C116.638704,53.6819504 116.623771,53.9417867 116.593904,54.2225335 C116.564037,54.5032804 116.513265,54.8228491 116.441585,55.1812494 C116.142918,56.5790103 115.754657,57.9797369 115.27679,59.3834711 C114.798923,60.7872054 114.225491,62.2954504 113.556477,63.9082515 C112.887463,65.5210526 112.125874,67.2921205 111.271687,69.2215085 C110.4175,71.1508964 109.464767,73.3520382 108.413459,75.8249998 C108.389566,75.9564132 108.326847,76.0788648 108.2253,76.1923582 C108.123753,76.3058516 108.001302,76.4014236 107.857942,76.479077 C107.714582,76.5567304 107.559277,76.6164628 107.392024,76.6582762 C107.22477,76.7000896 107.063493,76.7209959 106.908186,76.7209959 C106.681199,76.7209959 106.487069,76.6732099 106.325788,76.5776365 C106.164508,76.4820631 106.08387,76.3207855 106.08387,76.0937986 C106.08387,76.0340653 106.095816,75.9444666 106.119709,75.8249998 L106.119709,75.8249998 Z M109.237776,81.6848144 C109.213882,81.7326011 109.192976,81.8460928 109.175056,82.0252929 C109.157136,82.204493 109.115323,82.4195299 109.049617,82.6704101 C108.98391,82.9212903 108.891325,83.1841132 108.771858,83.4588867 C108.652391,83.7336602 108.47618,83.9875232 108.24322,84.2204834 C108.01026,84.4534435 107.714584,84.6475741 107.356184,84.8028809 C106.997784,84.9581876 106.54979,85.0358398 106.01219,85.0358398 C105.570163,85.0358398 105.169955,84.979094 104.811555,84.8656006 C104.453155,84.7521072 104.145533,84.5758964 103.888679,84.3369629 C103.631826,84.0980294 103.431722,83.7933938 103.288362,83.4230468 C103.145002,83.0526999 103.073323,82.6106796 103.073323,82.0969726 C103.073323,81.6668923 103.136042,81.2457783 103.261482,80.8336181 C103.386922,80.4214578 103.581052,80.0541031 103.843879,79.7315429 C104.106706,79.4089826 104.447181,79.152133 104.865315,78.9609862 C105.283448,78.7698394 105.779228,78.6742674 106.352668,78.6742674 C107.284509,78.6742674 108.001299,78.9251438 108.503059,79.4269042 C109.004819,79.9286645 109.255696,80.6454542 109.255696,81.5772949 C109.255696,81.6250815 109.249722,81.660921 109.237776,81.6848144 L109.237776,81.6848144 Z" id="hej!" fill="#4A4A4A"></path>
            <path d="M52.6698312,128.325927 C53.2112401,127.649166 53.7067186,127.105348 54.1562814,126.694458 C54.6058442,126.283567 55.0529833,126.078125 55.4977121,126.078125 C56.0681251,126.078125 56.5756884,126.203807 57.0204172,126.455175 C57.465146,126.706544 57.842193,127.040085 58.1515696,127.45581 C58.4609461,127.871535 58.697809,128.350095 58.8621653,128.891504 C59.0265216,129.432913 59.1086985,129.998483 59.1086985,130.588232 C59.1086985,131.081301 59.0893628,131.547776 59.0506907,131.987671 C59.0120186,132.427565 58.9419266,132.857786 58.8404124,133.278345 C58.7388982,133.698903 58.598714,134.117039 58.4198557,134.532764 C58.2409974,134.948488 58.0065515,135.378709 57.716511,135.823437 C58.0645596,135.620409 58.4174369,135.422218 58.7751536,135.228857 C59.1328702,135.035497 59.4929985,134.822804 59.8555491,134.590771 C60.2180998,134.358739 60.8364255,133.961372 60.8364255,133.961372 C60.8364255,133.961372 60.9093459,134.894778 61.0047176,135.445308 C61.0698786,135.821448 61.3180234,136.74138 61.3180234,136.74138 C61.3180234,136.74138 60.5419777,137.131029 59.9860667,137.396899 C59.4301557,137.66277 58.8500834,137.892382 58.2458323,138.085742 C57.6415812,138.279102 57.0010847,138.453124 56.3243234,138.607812 C56.1599672,138.772169 55.9351891,138.936523 55.6499826,139.100879 C55.3647761,139.265235 55.0819908,139.415087 54.8016183,139.550439 C54.4825738,139.705128 54.1393643,139.85498 53.7719796,140 L53.4094308,140 C52.5876493,140 51.7731311,139.886403 50.9658516,139.659204 C50.1585722,139.432006 49.4262309,139.178224 48.7688057,138.897852 C48.0050323,138.578807 47.2751079,138.211428 46.5790107,137.795703 C46.6080147,137.012594 46.666022,136.127983 46.7530341,135.141846 C46.8303783,134.29106 46.9367249,133.288018 47.0720771,132.13269 C47.2074294,130.977362 47.3911189,129.689118 47.6231513,128.26792 C47.7778396,127.320454 47.9711971,126.264239 48.2032295,125.099243 C48.4352619,123.934247 48.7083793,122.754766 49.0225899,121.560766 C49.3368004,120.366766 49.6896778,119.206621 50.0812325,118.080297 C50.4727872,116.953973 50.9078414,115.950932 51.3864083,115.071142 C51.8649751,114.191352 52.3870402,113.485598 52.9526193,112.953857 C53.5181983,112.422116 54.1296912,112.156249 54.7871164,112.156249 C55.5218857,112.156249 56.1116259,112.281932 56.5563547,112.5333 C57.0010835,112.784669 57.344293,113.125461 57.5859934,113.555688 C57.8276938,113.985915 57.9872137,114.491061 58.0645579,115.071142 C58.141902,115.651223 58.1805735,116.269967 58.1805735,116.927392 C58.1805735,117.845854 58.0089688,118.793305 57.6657541,119.769775 C57.3225395,120.746245 56.8754004,121.720283 56.3243234,122.691919 C55.7732465,123.663554 55.1569196,124.613423 54.4753244,125.541552 C53.7937292,126.469682 53.1145611,127.344624 52.4377999,128.166406 L52.6698312,128.325927 Z M53.975007,129.38457 C53.6366264,129.38457 53.2982508,129.454662 52.9598702,129.594848 C52.6214896,129.735035 52.3072838,129.952562 52.0172433,130.247436 C51.7272027,130.542311 51.4710041,130.919358 51.2486397,131.378589 C51.0262753,131.837819 50.8619215,132.391305 50.7555733,133.039062 C50.6685611,133.561135 50.5960521,134.042112 50.538044,134.482007 C50.4800359,134.921901 50.4316965,135.311033 50.3930245,135.649414 C50.3543524,136.036135 50.3205148,136.39868 50.2915108,136.73706 C50.6105554,136.833741 50.9295951,136.915918 51.2486397,136.983594 C51.5290122,137.041602 51.8238823,137.094775 52.1332589,137.143115 C52.4426354,137.191455 52.7375055,137.215625 53.017878,137.215625 C53.3465906,137.215625 53.6462947,137.118946 53.9169992,136.925586 C54.1877037,136.732226 54.4294005,136.47361 54.6420968,136.149731 C54.8547932,135.825853 55.0384828,135.456057 55.1931711,135.040332 C55.3478594,134.624607 55.4735417,134.19197 55.5702219,133.742407 C55.666902,133.292844 55.7394111,132.848122 55.7877512,132.408227 C55.8360913,131.968333 55.8602609,131.564699 55.8602609,131.197314 C55.8602609,130.955614 55.8336743,130.726002 55.7805002,130.508471 C55.7273261,130.290941 55.6306474,130.100001 55.4904611,129.935644 C55.3502749,129.771288 55.1569174,129.638355 54.910383,129.536841 C54.6638485,129.435326 54.3520597,129.38457 53.975007,129.38457 L53.975007,129.38457 Z M55.3961984,116.100781 C55.3961984,116.062109 55.3889475,115.979932 55.3744455,115.854247 C55.3599435,115.728563 55.3261059,115.598047 55.2729318,115.462695 C55.2197577,115.327342 55.1448317,115.206494 55.0481515,115.100146 C54.9514714,114.993798 54.8209551,114.940624 54.6565988,114.940624 C54.4632384,114.940624 54.2626301,115.078392 54.0547677,115.35393 C53.8469054,115.629469 53.6414631,116.001682 53.4384347,116.47058 C53.2354063,116.939479 53.037215,117.48088 52.8438546,118.094799 C52.6504943,118.708718 52.4619707,119.351632 52.2782784,120.023559 C52.0945861,120.695486 51.9229814,121.379488 51.7634591,122.075585 C51.6039368,122.771683 51.4589187,123.431515 51.3284005,124.055102 C51.1978822,124.678689 51.0842847,125.249094 50.9876046,125.766333 C50.8909244,126.283572 50.8135814,126.701707 50.7555733,127.020752 C51.0166098,126.518015 51.3090629,125.99595 51.6329415,125.454541 C51.9568201,124.913132 52.2831108,124.349978 52.6118234,123.765063 C52.9405359,123.180148 53.2619927,122.58074 53.5762033,121.966821 C53.8904138,121.352902 54.1756161,120.72449 54.4318185,120.081567 C54.688021,119.438644 54.9007142,118.786062 55.0699045,118.123803 C55.2390948,117.461544 55.3478583,116.78721 55.3961984,116.100781 L55.3961984,116.100781 Z M70.6522535,129.138037 C70.932626,129.698782 71.1429022,130.290939 71.2830885,130.914526 C71.4232747,131.538113 71.4933668,132.135104 71.4933668,132.705517 C71.4933668,133.27593 71.4305256,133.851169 71.3048414,134.43125 C71.1791572,135.011331 70.9978846,135.572067 70.7610182,136.113476 C70.5241517,136.654885 70.2341156,137.162449 69.8909009,137.636182 C69.5476863,138.109914 69.1561375,138.520799 68.7162427,138.868848 C68.2763479,139.216896 67.7953713,139.492431 67.2732983,139.695459 C66.7512254,139.898487 66.1953227,140 65.6055737,140 C64.7547882,140 64.0272808,139.813893 63.4230297,139.441675 C62.8187786,139.069456 62.3233001,138.583646 61.9365794,137.984228 C61.5498588,137.384811 61.2670735,136.70806 61.0882152,135.953955 C60.9093568,135.19985 60.819929,134.436088 60.819929,133.662646 C60.819929,132.599164 60.9794489,131.605791 61.2984935,130.682495 C61.6175381,129.759199 62.074345,128.956766 62.6689281,128.275171 C63.2635112,127.593575 63.9910186,127.057008 64.8514721,126.665454 C65.7119256,126.273899 66.6787129,126.078125 67.7518628,126.078125 C68.6703244,126.078125 69.5307651,126.220726 70.3332105,126.505932 C71.135656,126.791139 71.887333,127.17302 72.5882643,127.651587 C73.2891956,128.130153 73.9417769,128.678805 74.546028,129.297558 C75.1502791,129.916311 75.2566527,129.694092 75.2566527,129.694092 L74.9599685,131.256592 C74.9599685,131.256592 73.9852883,131.323 73.4873854,130.936279 C72.9894825,130.549558 72.498838,130.184596 72.0154371,129.841382 C71.5320363,129.498167 71.1163178,129.210548 70.7682691,128.978515 L70.6522535,129.138037 Z M66.1711499,137.215625 C66.4998625,137.215625 66.8189022,137.048854 67.1282788,136.715308 C67.4376554,136.381761 67.7083558,135.961208 67.9403882,135.453638 C68.1724206,134.946067 68.3585272,134.38533 68.4987134,133.771411 C68.6388997,133.157492 68.7089917,132.570169 68.7089917,132.009424 C68.7089917,131.564695 68.6751542,131.151393 68.6074781,130.769507 C68.5398019,130.38762 68.4382893,130.056495 68.302937,129.776123 C68.1675848,129.49575 67.9935631,129.273389 67.7808667,129.109033 C67.5681703,128.944677 67.3119717,128.8625 67.0122632,128.8625 C66.6158745,128.8625 66.2388274,129.031687 65.8811108,129.370068 C65.5233942,129.708449 65.2091883,130.141086 64.9384838,130.667993 C64.6677793,131.1949 64.4550861,131.777389 64.3003979,132.415478 C64.1457096,133.053567 64.0683666,133.667477 64.0683666,134.257226 C64.0683666,134.663283 64.1070381,135.045164 64.1843822,135.402881 C64.2617264,135.760597 64.3825748,136.072386 64.5469311,136.338257 C64.7112874,136.604127 64.9288145,136.81682 65.199519,136.976343 C65.4702235,137.135865 65.7940972,137.215625 66.1711499,137.215625 L66.1711499,137.215625 Z M74.5242751,134.757544 C74.6016192,133.92126 74.6982979,133.070488 74.8143142,132.2052 C74.9303304,131.339912 75.0608466,130.506058 75.2058669,129.703613 C75.3508872,128.901168 75.4910713,128.214749 75.6264236,127.644336 C75.7327717,127.199607 75.938214,126.827394 76.2427566,126.527685 C76.5472991,126.227977 76.9606007,126.078125 77.4826736,126.078125 C78.0047465,126.078125 78.3672917,126.237645 78.5703201,126.556689 C78.7733485,126.875734 78.8748611,127.30112 78.8748611,127.832861 C78.8748611,127.977881 78.8603593,128.173656 78.8313553,128.42019 C78.8023512,128.666725 78.7660967,128.937425 78.7225906,129.2323 C78.6790845,129.527174 78.6331622,129.831712 78.5848221,130.145923 C78.536482,130.460133 78.4905596,130.750169 78.4470535,131.01604 C78.4035474,131.28191 78.3672929,131.513939 78.3382889,131.712134 C78.3092848,131.910328 78.294783,132.043261 78.294783,132.110937 L78.5848221,132.110937 C78.6428302,132.004589 78.734675,131.832984 78.8603592,131.596118 C78.9860434,131.359252 79.1310615,131.086134 79.2954178,130.776758 C79.4597741,130.467381 79.6362128,130.14109 79.8247391,129.797876 C80.0132654,129.454661 80.1897041,129.125953 80.3540604,128.811743 C80.5184167,128.497532 80.6682687,128.219581 80.8036209,127.977881 C80.9389732,127.73618 81.0404859,127.557324 81.108162,127.441308 C81.4175385,126.919235 81.7704159,126.561524 82.1668046,126.368164 C82.5631933,126.174803 83.0030815,126.078125 83.4864823,126.078125 C83.9698832,126.078125 84.3541811,126.28115 84.6393876,126.687207 C84.9245942,127.093263 85.0671953,127.654 85.0671953,128.369433 C85.0671953,128.475781 85.0454426,128.654637 85.0019365,128.906006 C84.9584304,129.157374 84.9028401,129.457078 84.835164,129.805127 C84.7674879,130.153175 84.6925619,130.535056 84.6103837,130.950781 C84.5282056,131.366506 84.4532796,131.791892 84.3856035,132.226953 C84.3179273,132.662014 84.2623371,133.092234 84.218831,133.517627 C84.1753249,133.94302 84.1535722,134.334568 84.1535722,134.692285 C84.1535722,135.291702 84.2284982,135.784764 84.3783525,136.171484 C84.5282068,136.558205 84.7626527,136.751562 85.0816972,136.751562 C85.2267175,136.751562 85.3934883,136.708057 85.5820146,136.621045 C85.770541,136.534033 86.3936387,136.171485 86.3936387,136.171485 L86.0080434,139.196154 C86.0080434,139.196154 85.2605571,139.625365 84.7771562,139.77522 C84.2937553,139.925074 83.786192,140 83.2544511,140 C82.7227101,140 82.275571,139.615702 81.9130204,138.847095 C81.5504697,138.078487 81.3691971,136.954597 81.3691971,135.475391 C81.3691971,134.895309 81.4078686,134.269315 81.4852128,133.597388 C81.5625569,132.92546 81.6592356,132.202787 81.7752518,131.429345 L81.5432206,131.429345 L77.7437088,138.970361 C77.5503484,139.36675 77.3328213,139.63745 77.0911209,139.782471 C76.8494204,139.927491 76.5690521,140 76.2500076,140 C75.8536188,140 75.5345791,139.915406 75.2928786,139.746216 C75.0511782,139.577026 74.8650716,139.349831 74.7345534,139.064624 C74.6040352,138.779417 74.5170243,138.455544 74.4735182,138.092993 C74.4300122,137.730442 74.4082595,137.355812 74.4082595,136.969092 C74.4082595,136.331003 74.4469309,135.593827 74.5242751,134.757544 Z M86.0605791,139.18064 C86.1040852,138.789085 86.1620924,138.315359 86.2346025,137.759448 C86.3071127,137.203537 86.3965405,136.58721 86.5028887,135.910449 C86.6092369,135.233688 86.7252513,134.540018 86.8509356,133.829419 C86.9766198,133.11882 87.11197,132.413065 87.2569903,131.712134 C87.4020105,131.011202 87.5518625,130.353787 87.7065508,129.739868 C87.8612391,129.125949 88.018342,128.582131 88.1778643,128.108398 C88.3373866,127.634665 88.4944895,127.267286 88.6491778,127.00625 C88.78453,126.783885 88.9440499,126.609864 89.1277423,126.484179 C89.3114346,126.358495 89.5120429,126.26665 89.7295733,126.208642 C89.9471037,126.150634 90.1742987,126.11438 90.4111651,126.099878 C90.6480316,126.085376 90.8824775,126.078125 91.1145099,126.078125 C91.4528905,126.078125 91.6970043,126.179637 91.8468585,126.382666 C91.9967128,126.585694 92.0716388,126.798387 92.0716388,127.020752 C92.0716388,127.136768 92.0450522,127.320457 91.9918781,127.571826 C91.938704,127.823194 91.8734458,128.093895 91.7961017,128.383935 C91.7187576,128.673976 91.6414146,128.94951 91.5640704,129.210547 C91.4867263,129.471583 91.4287191,129.664941 91.390047,129.790625 L90.5779376,132.110937 C91.1193466,132.023925 91.6414117,131.963501 92.1441486,131.929663 C92.6468855,131.895825 93.1979542,131.832984 93.7973713,131.741137 C94.3967884,131.649291 95.0735394,131.494605 95.8276448,131.277075 C96.5817501,131.059545 97.0522461,131.02179 97.0522461,131.02179 C97.0522461,131.02179 96.8485938,131.69781 96.7945289,132.352394 C96.733517,133.091088 96.6034993,133.843921 96.6034993,133.843921 C96.6034993,133.843921 95.3780868,134.170214 94.8560139,134.257226 C94.2469288,134.363575 93.6523546,134.421582 93.0722736,134.43125 C93.313974,135.059671 93.5266672,135.712252 93.7103596,136.389014 C93.8747159,136.969095 94.0221509,137.614425 94.1526691,138.325024 C94.2831874,139.035624 94.3484455,139.748629 94.3484455,140.464063 C94.3484455,140.589747 94.3363607,140.8822 94.3121906,141.341431 C94.2880206,141.800662 94.2300134,142.339645 94.1381672,142.958399 C94.046321,143.577152 93.9013029,144.23215 93.7031086,144.923413 C93.5049142,145.614676 93.2342138,146.247922 92.8909992,146.823169 C92.5477846,147.398416 92.1175643,147.874559 91.6003253,148.251612 C91.0830864,148.628664 90.4522577,148.817188 89.7078204,148.817188 C89.0310592,148.817188 88.4558208,148.618996 87.9820879,148.222608 C87.5083551,147.826219 87.1240572,147.250981 86.8291826,146.496875 C86.5343081,145.74277 86.3216149,144.819488 86.1910967,143.727002 C86.0605784,142.634516 85.9953203,141.392194 85.9953203,140 C85.9953203,139.845312 86.017073,139.572194 86.0605791,139.18064 Z M90.142879,133.517627 C89.8915106,135.016169 89.6788174,136.529191 89.504793,138.056738 C89.3307687,139.584285 89.2437579,141.160148 89.2437579,142.784375 C89.2437579,143.316116 89.2775954,143.758421 89.3452716,144.111304 C89.4129477,144.464186 89.4975416,144.749389 89.5990557,144.966919 C89.7005699,145.184449 89.8020826,145.339135 89.9035968,145.430982 C90.005111,145.522828 90.0945388,145.56875 90.1718829,145.56875 C90.4909275,145.56875 90.7447091,145.394728 90.9332355,145.04668 C91.1217618,144.698631 91.261946,144.268411 91.3537921,143.756006 C91.4456383,143.243601 91.5036455,142.690115 91.5278156,142.095532 C91.5519856,141.500949 91.5640704,140.957131 91.5640704,140.464063 C91.5640704,140.18369 91.5423177,139.867067 91.4988117,139.514185 C91.4553056,139.161302 91.4021323,138.79634 91.3392902,138.419287 C91.2764481,138.042234 91.201522,137.660353 91.1145099,137.273633 C91.0274977,136.886912 90.9404869,136.509865 90.8534747,136.14248 C90.6407783,135.291695 90.4039155,134.416752 90.142879,133.517627 L90.142879,133.517627 Z M89.214754,122.003076 C89.214754,121.780711 89.2630933,121.529347 89.3597735,121.248974 C89.4564537,120.968602 89.6135566,120.705152 89.831087,120.458618 C90.0486174,120.212083 90.3386536,120.004224 90.7012042,119.835034 C91.0637549,119.665843 91.5157279,119.581249 92.0571369,119.581249 C92.3955175,119.581249 92.7145573,119.619921 93.0142658,119.697265 C93.3139743,119.774609 93.5750069,119.893041 93.7973713,120.052563 C94.0197357,120.212085 94.1961744,120.422361 94.3266926,120.683398 C94.4572108,120.944434 94.522469,121.253806 94.522469,121.611523 C94.522469,121.940236 94.4692957,122.259275 94.3629475,122.568652 C94.2565993,122.878028 94.0874115,123.153563 93.8553791,123.395263 C93.6233467,123.636964 93.3308935,123.832738 92.9780109,123.982592 C92.6251283,124.132447 92.2021589,124.207373 91.70909,124.207373 C90.8583045,124.207373 90.2298928,124.006764 89.823836,123.605542 C89.4177793,123.204319 89.214754,122.670169 89.214754,122.003076 L89.214754,122.003076 Z M106.501083,129.138037 C106.781455,129.698782 106.991731,130.290939 107.131918,130.914526 C107.272104,131.538113 107.342196,132.135104 107.342196,132.705517 C107.342196,133.27593 107.279355,133.851169 107.15367,134.43125 C107.027986,135.011331 106.846714,135.572067 106.609847,136.113476 C106.372981,136.654885 106.082945,137.162449 105.73973,137.636182 C105.396515,138.109914 105.004967,138.520799 104.565072,138.868848 C104.125177,139.216896 103.6442,139.492431 103.122127,139.695459 C102.600054,139.898487 102.044152,140 101.454403,140 C100.603617,140 99.8761098,139.813893 99.2718587,139.441675 C98.6676076,139.069456 98.1721292,138.583646 97.7854085,137.984228 C97.3986878,137.384811 97.1159025,136.70806 96.9370442,135.953955 C96.7581859,135.19985 96.6687581,134.436088 96.6687581,133.662646 C96.6687581,132.599164 96.828278,131.605791 97.1473225,130.682495 C97.4663671,129.759199 97.9231741,128.956766 98.5177571,128.275171 C99.1123402,127.593575 99.8398476,127.057008 100.700301,126.665454 C101.560755,126.273899 102.527542,126.078125 103.600692,126.078125 C104.519153,126.078125 105.379594,126.220726 106.18204,126.505932 C106.984485,126.791139 107.736162,127.17302 108.437093,127.651587 C109.138025,128.130153 110.72283,129.319255 110.72283,129.319255 L110.394857,131.305735 C110.394857,131.305735 108.347667,130.184596 107.864266,129.841382 C107.380865,129.498167 106.965147,129.210548 106.617098,128.978515 L106.501083,129.138037 Z M102.019979,137.215625 C102.348692,137.215625 102.667731,137.048854 102.977108,136.715308 C103.286484,136.381761 103.557185,135.961208 103.789217,135.453638 C104.02125,134.946067 104.207356,134.38533 104.347542,133.771411 C104.487729,133.157492 104.557821,132.570169 104.557821,132.009424 C104.557821,131.564695 104.523983,131.151393 104.456307,130.769507 C104.388631,130.38762 104.287118,130.056495 104.151766,129.776123 C104.016414,129.49575 103.842392,129.273389 103.629696,129.109033 C103.416999,128.944677 103.160801,128.8625 102.861092,128.8625 C102.464704,128.8625 102.087656,129.031687 101.72994,129.370068 C101.372223,129.708449 101.058017,130.141086 100.787313,130.667993 C100.516608,131.1949 100.303915,131.777389 100.149227,132.415478 C99.9945386,133.053567 99.9171957,133.667477 99.9171957,134.257226 C99.9171957,134.663283 99.9558671,135.045164 100.033211,135.402881 C100.110555,135.760597 100.231404,136.072386 100.39576,136.338257 C100.560116,136.604127 100.777644,136.81682 101.048348,136.976343 C101.319053,137.135865 101.642926,137.215625 102.019979,137.215625 L102.019979,137.215625 Z M121.017538,128.086645 C120.95953,128.536208 120.884604,129.029269 120.792758,129.565844 C120.700912,130.102419 120.601816,130.655905 120.495468,131.226318 C120.389119,131.796731 120.290024,132.328464 120.198178,132.821533 C120.106331,133.314602 120.031405,133.747239 119.973397,134.119458 C119.915389,134.491677 119.886386,134.750292 119.886386,134.895312 C119.886386,135.166017 119.89122,135.414965 119.900888,135.642163 C119.910556,135.869361 119.939559,136.067553 119.987899,136.236743 C120.036239,136.405933 120.111165,136.53645 120.21268,136.628296 C120.314194,136.720142 120.461629,136.766064 120.654989,136.766064 C120.867686,136.766064 121.126301,136.712891 121.430844,136.606543 C121.735386,136.500195 122.05926,136.357594 122.402475,136.178735 C122.745689,135.999877 123.09615,135.796852 123.453866,135.569653 C123.811583,135.342455 124.307152,134.938818 124.307152,134.938818 L124.200717,138.013232 C124.200717,138.013232 123.412779,138.486962 122.982553,138.709326 C122.552326,138.931691 122.119689,139.127465 121.684628,139.296655 C121.249567,139.465846 120.819347,139.601196 120.393954,139.70271 C119.968561,139.804224 119.572178,139.85498 119.204794,139.85498 C118.837409,139.85498 118.523203,139.782471 118.262167,139.637451 C118.00113,139.492431 117.776352,139.289406 117.587826,139.028369 C117.3993,138.767333 117.23978,138.455544 117.109262,138.092993 C116.978743,137.730442 116.865146,137.326809 116.768466,136.88208 C116.420417,137.336477 116.053038,137.754612 115.666317,138.136499 C115.279596,138.518386 114.885631,138.84951 114.484408,139.129883 C114.083185,139.410255 113.677135,139.630199 113.266244,139.789722 C112.855353,139.949244 112.456553,140.029004 112.069833,140.029004 C111.750788,140.029004 111.451084,139.975831 111.170712,139.869482 C110.890339,139.763134 110.641391,139.584279 110.423861,139.33291 C110.206331,139.081542 110.034726,138.750417 109.909042,138.339526 C109.783357,137.928636 109.720516,137.418655 109.720516,136.80957 C109.720516,136.065133 109.809944,135.117681 109.988802,133.967187 C110.167661,132.816693 110.387605,131.501863 110.648641,130.022656 C110.667977,129.877636 110.704232,129.681861 110.757406,129.435327 C110.81058,129.188792 110.883089,128.920509 110.974935,128.630468 C111.066781,128.340428 111.180379,128.045558 111.315731,127.745849 C111.451083,127.446141 111.610603,127.17544 111.794296,126.93374 C111.977988,126.692039 112.193098,126.493848 112.439633,126.33916 C112.686167,126.184472 112.964118,126.102295 113.273495,126.092627 C113.7859,126.111963 114.153279,126.177221 114.375643,126.288403 C114.598008,126.399585 114.709188,126.537352 114.709188,126.701709 C114.622176,127.214114 114.527914,127.784518 114.4264,128.412939 C114.324886,129.04136 114.220956,129.674606 114.114608,130.312695 C114.00826,130.950784 113.906747,131.571945 113.810067,132.176196 C113.713387,132.780447 113.626376,133.319431 113.549032,133.793164 C113.471688,134.266897 113.411264,134.648778 113.367758,134.938818 C113.324251,135.228859 113.302499,135.378711 113.302499,135.388379 C113.302499,135.562403 113.319418,135.729174 113.353256,135.888696 C113.387094,136.048218 113.43785,136.19082 113.505526,136.316504 C113.573202,136.442188 113.660213,136.543701 113.766561,136.621045 C113.872909,136.698389 113.998592,136.73706 114.143612,136.73706 C114.356308,136.73706 114.573836,136.68147 114.7962,136.570288 C115.018564,136.459106 115.228841,136.299586 115.427035,136.091724 C115.625229,135.883861 115.801668,135.627663 115.956356,135.32312 C116.111045,135.018577 116.227059,134.672951 116.304403,134.28623 L117.740097,126.919238 C117.788437,126.687206 117.984211,126.491431 118.327426,126.331909 C118.67064,126.172387 119.059772,126.092627 119.494833,126.092627 C119.987902,126.092627 120.379451,126.179637 120.669491,126.353662 C120.959532,126.527686 121.10455,126.750047 121.10455,127.020752 C121.10455,127.281788 121.075546,127.637082 121.017538,128.086645 Z M124.207968,136.969092 C124.207968,136.543699 124.232137,136.04822 124.280478,135.482641 C124.328818,134.917062 124.394076,134.320071 124.476254,133.69165 C124.558432,133.063229 124.655111,132.422733 124.766293,131.770141 C124.877475,131.11755 124.995907,130.496389 125.121591,129.90664 C125.247275,129.316891 125.372957,128.77549 125.498642,128.282422 C125.624326,127.789353 125.750008,127.383302 125.875692,127.064257 C125.953037,126.851561 126.03038,126.682373 126.107724,126.556689 C126.185068,126.431005 126.274496,126.331909 126.37601,126.259399 C126.477524,126.186889 126.603206,126.13855 126.753061,126.11438 C126.902915,126.090209 127.089021,126.078125 127.311386,126.078125 C127.562754,126.078125 127.758529,126.090209 127.898715,126.11438 C128.038901,126.13855 128.142831,126.196557 128.210507,126.288403 C128.278183,126.380249 128.319272,126.513182 128.333774,126.687207 C128.348276,126.861231 128.355526,127.098094 128.355526,127.397802 L128.355526,128.695727 C128.355526,129.203298 128.365194,129.703611 128.38453,130.196679 L128.544052,130.196679 C128.737412,129.809959 128.954939,129.377321 129.19664,128.898755 C129.43834,128.420188 129.718709,127.973049 130.037753,127.557324 C130.356798,127.141599 130.719343,126.791139 131.1254,126.505932 C131.531456,126.220726 132.000348,126.078125 132.532089,126.078125 C132.715781,126.078125 132.894637,126.109545 133.068661,126.172387 C133.242686,126.235229 133.394955,126.324657 133.525473,126.440673 C133.655991,126.55669 133.759921,126.699291 133.837265,126.868481 C133.914609,127.037671 133.953281,127.228612 133.953281,127.441308 C133.953281,127.605665 133.929111,127.835277 133.880771,128.130151 C133.832431,128.425026 133.779257,128.734398 133.721249,129.058276 C133.663241,129.382155 133.610068,129.696361 133.561728,130.000903 C133.513388,130.305446 133.489218,130.559227 133.489218,130.762256 C133.489218,131.110304 133.523056,131.40034 133.590732,131.632373 C133.658408,131.864405 133.747836,132.050512 133.859018,132.190698 C133.9702,132.330884 134.095882,132.42998 134.236069,132.487988 C134.376255,132.545996 134.52369,132.575 134.678378,132.575 C135.113439,132.575 135.562995,132.478321 136.02706,132.284961 C136.491125,132.0916 136.916511,131.874073 137.303232,131.632373 C137.757629,131.352 138.202351,131.032961 138.637411,130.675244 L138.419882,134.068701 C138.168514,134.233057 137.883312,134.416747 137.564267,134.619775 C137.245222,134.822804 136.90443,135.013744 136.541879,135.192602 C136.179329,135.371461 135.802282,135.521313 135.410727,135.642163 C135.019172,135.763013 134.620372,135.823437 134.214316,135.823437 C133.489214,135.823437 132.904308,135.676002 132.459579,135.381128 C132.014851,135.086253 131.661973,134.699538 131.400937,134.220972 C131.1399,133.742405 130.946543,133.205838 130.820859,132.611255 C130.695174,132.016672 130.593662,131.414847 130.516318,130.805761 L130.284286,130.805761 L127.688437,138.042236 C127.553084,138.419289 127.424985,138.731078 127.304135,138.977612 C127.183285,139.224147 127.060019,139.424755 126.934335,139.579443 C126.808651,139.734132 126.673301,139.842895 126.52828,139.905737 C126.38326,139.968579 126.22374,140 126.049716,140 C125.653327,140 125.334287,139.915406 125.092587,139.746216 C124.850886,139.577026 124.66478,139.349831 124.534262,139.064624 C124.403743,138.779417 124.316733,138.455544 124.273227,138.092993 C124.22972,137.730442 124.207968,137.355812 124.207968,136.969092 L124.207968,136.969092 Z M140.914218,132.575 C141.010898,131.579194 141.155916,130.551983 141.349277,129.493335 C141.542637,128.434687 141.764998,127.376055 142.016367,126.317407 C142.267735,125.258759 142.536019,124.212212 142.821225,123.177734 C143.106432,122.143256 143.389217,121.152299 143.669589,120.204833 C143.949962,119.257368 144.218245,118.367924 144.474448,117.536474 C144.73065,116.705025 144.955428,115.955764 145.148789,115.288671 C145.274473,114.824606 145.455745,114.449976 145.692612,114.16477 C145.929478,113.879563 146.192928,113.657202 146.482968,113.49768 C146.773009,113.338158 147.079964,113.229394 147.403842,113.171386 C147.727721,113.113378 148.03951,113.084374 148.339218,113.084374 C148.493907,113.084374 148.638925,113.10371 148.774277,113.142382 C148.909629,113.181054 149.025644,113.251146 149.122324,113.35266 C149.219004,113.454175 149.29393,113.594359 149.347104,113.773217 C149.400278,113.952075 149.426865,114.181687 149.426865,114.46206 C149.426865,114.65542 149.41478,114.865696 149.39061,115.092895 C149.36644,115.320093 149.325352,115.578709 149.267343,115.868749 C149.025643,116.999907 148.711437,118.133465 148.324716,119.269457 C147.937996,120.40545 147.473938,121.626018 146.932529,122.931201 C146.39112,124.236383 145.774793,125.669645 145.08353,127.23103 C144.392267,128.792415 143.621254,130.57372 142.770468,132.575 C142.751132,132.681348 142.700376,132.780444 142.618198,132.87229 C142.53602,132.964136 142.436924,133.041479 142.320908,133.104321 C142.204891,133.167163 142.079209,133.215503 141.943857,133.249341 C141.808505,133.283179 141.677988,133.300097 141.552304,133.300097 C141.368612,133.300097 141.211509,133.261426 141.080991,133.184082 C140.950472,133.106738 140.885214,132.976221 140.885214,132.792529 C140.885214,132.744189 140.894882,132.67168 140.914218,132.575 L140.914218,132.575 Z M143.437558,137.317139 C143.418222,137.355811 143.401303,137.447655 143.386801,137.592676 C143.372299,137.737696 143.338462,137.911718 143.285288,138.114746 C143.232113,138.317774 143.157187,138.530468 143.060507,138.752832 C142.963827,138.975196 142.821226,139.180639 142.6327,139.369165 C142.444173,139.557691 142.204894,139.714794 141.914853,139.840479 C141.624812,139.966163 141.262267,140.029004 140.827206,140.029004 C140.46949,140.029004 140.145616,139.983082 139.855576,139.891235 C139.565535,139.799389 139.316587,139.656788 139.108725,139.463428 C138.900863,139.270067 138.738926,139.023537 138.62291,138.723828 C138.506893,138.42412 138.448886,138.066408 138.448886,137.650684 C138.448886,137.302635 138.499642,136.961842 138.601157,136.628296 C138.702671,136.294749 138.859774,135.997462 139.07247,135.736426 C139.285166,135.475389 139.560701,135.26753 139.899081,135.112842 C140.237462,134.958153 140.638679,134.88081 141.102744,134.88081 C141.856849,134.88081 142.436921,135.083836 142.842978,135.489892 C143.249035,135.895949 143.45206,136.476022 143.45206,137.230127 C143.45206,137.268799 143.447226,137.297803 143.437558,137.317139 L143.437558,137.317139 Z" id="bonjour!" fill="#4A4A4A"></path>
        </g>
    </g>
</svg>