<?xml version="1.0" encoding="UTF-8" standalone="no"?>
<svg width="200px" height="200px" viewBox="0 0 200 200" version="1.1" xmlns="http://www.w3.org/2000/svg" xmlns:xlink="http://www.w3.org/1999/xlink">
    <!-- Generator: Sketch 39.1 (31720) - http://www.bohemiancoding.com/sketch -->
    <title>Events New</title>
    <desc>Created with Sketch.</desc>
    <defs></defs>
    <g id="Slices" stroke="none" stroke-width="1" fill="none" fill-rule="evenodd">
        <g id="Events-New">
            <path d="M102.417619,85.2843394 L104.9,91 L91.675,91 L94.1129177,85.3867152 C83.2614735,83.4352665 75,73.2642988 75,57.6216216 C75,40.1574822 85.2974508,26 98,26 C110.702549,26 121,40.1574822 121,57.6216216 C121,73.0083592 113.006657,83.1009746 102.417619,85.2843394 Z" id="Combined-Shape" stroke="#E42D40" stroke-width="3" fill="#FDFFBF"></path>
            <path d="M53.13904,130.625241 L55.6214208,136.340901 L42.3964208,136.340901 L44.8343384,130.727617 C33.9828942,128.776168 25.7214208,118.6052 25.7214208,102.962523 C25.7214208,85.4983836 36.0188715,71.3409014 48.7214208,71.3409014 C61.42397,71.3409014 71.7214208,85.4983836 71.7214208,102.962523 C71.7214208,118.349261 63.728078,128.441876 53.13904,130.625241 Z" id="Combined-Shape" stroke="#E42D40" stroke-width="3" fill="#D1F6FF" transform="translate(48.721421, 103.840901) rotate(-13.000000) translate(-48.721421, -103.840901) "></path>
            <path d="M158.417619,108.356105 L160.9,114.071766 L147.675,114.071766 L150.112918,108.458481 C139.261473,106.507032 131,96.3360647 131,80.6933875 C131,63.2292481 141.297451,49.0717659 154,49.0717659 C166.702549,49.0717659 177,63.2292481 177,80.6933875 C177,96.0801251 169.006657,106.17274 158.417619,108.356105 Z" id="Combined-Shape" stroke="#E42D40" stroke-width="3" fill="#D1F5FF" transform="translate(154.000000, 81.571766) rotate(15.000000) translate(-154.000000, -81.571766) "></path>
            <g id="Group" transform="translate(82.000000, 49.000000)" fill="#E42D40">
                <path d="M3.97297297,7.94594595 C6.16718536,7.94594595 7.94594595,6.16718536 7.94594595,3.97297297 C7.94594595,1.77876059 6.16718536,0 3.97297297,0 C1.77876059,0 0,1.77876059 0,3.97297297 C0,6.16718536 1.77876059,7.94594595 3.97297297,7.94594595 Z" id="Combined-Shape"></path>
                <ellipse id="Combined-Shape" cx="27.8108108" cy="3.97297297" rx="3.97297297" ry="3.97297297"></ellipse>
                <path d="M6.70515011,13.0540541 C7.70559214,13.0540541 25.2133277,13.0540541 26.2137693,13.0540541 C27.2142109,13.0540541 26.2779276,15.0274751 26.2779276,15.0274751 C24.1500625,18.6309139 20.5466105,21 16.4594597,21 C12.372349,21 8.76885838,18.6309139 6.64099076,15.0274751 C6.64099076,15.0274751 5.70470807,13.0540541 6.70515011,13.0540541 Z" id="Fill-3"></path>
            </g>
            <path d="M41.6416625,109.440442 L32.4315182,103.744523 L32.4315182,101.706534 L41.6416625,96.036743 L41.6416625,98.9761508 L35.2794777,102.725529 L41.6416625,106.501035 L41.6416625,109.440442 Z M53.7128303,93.0712072 L46.5929315,112.170826 L43.2485387,112.170826 L50.3684375,93.0712072 L53.7128303,93.0712072 Z M55.2543863,106.501035 L61.6557632,102.725529 L55.2543863,98.9761508 L55.2543863,96.036743 L64.4645306,101.706534 L64.4645306,103.744523 L55.2543863,109.440442 L55.2543863,106.501035 Z" id="&lt;/&gt;" fill="#E42D40" transform="translate(48.448024, 102.621016) rotate(-13.000000) translate(-48.448024, -102.621016) "></path>
            <path d="M56.9977109,134.247754 C57.066267,139.654446 61.2160522,150.350225 69.9232175,160 C77.3263905,168.204617 89.4201389,175.474143 90.22776,180" id="Path-6" stroke="#E42D40" stroke-width="3"></path>
            <path d="" id="Path-7" stroke="#979797"></path>
            <path d="" id="Path-8" stroke="#979797"></path>
            <path d="M97.9648143,90.0166682 C97.4975994,92.6596441 93.3411012,113.12347 94.7142665,119 C96.8739988,128.242683 110.185676,130.056791 114.321736,138.000002 C118.457797,145.943212 115.261167,152.372507 113.275989,159.999998" id="Path-9" stroke="#E42D40" stroke-width="3"></path>
            <path d="" id="Path-10" stroke="#979797"></path>
            <path d="M145.968611,111.466142 C145.722987,128.769972 152.14162,155.428379 133.55506,165.701058" id="Path-11" stroke="#E42D40" stroke-width="3"></path>
            <g id="Group-2" transform="translate(156.139489, 76.690685) rotate(-71.000000) translate(-156.139489, -76.690685) translate(148.639489, 60.690685)" fill="#E42D40">
                <path d="M4.39756147,28.1416453 C5.92505958,24.4159589 6.76802108,20.3313742 6.76802108,16.0479167 C6.76802108,11.7644591 5.92505958,7.6798744 4.39756147,3.954188 L0.753080544,5.53188542 C2.07511414,8.77334738 2.80432578,12.3246136 2.80432578,16.0479167 C2.80432578,19.7712197 2.07511414,23.322486 0.753080544,26.5639479 L4.39756147,28.1416453 L4.39756147,28.1416453 L4.39756147,28.1416453 Z" id="Path"></path>
                <path d="M11.5737042,31.2482006 C13.583761,26.4538432 14.6954118,21.1818246 14.6954118,15.6475434 C14.6954118,10.3738594 13.6859866,5.33832071 11.8516535,0.727308356 L8.20641839,2.3053322 C9.83573373,6.4318256 10.7317164,10.9339936 10.7317164,15.6475434 C10.7317164,20.6216615 9.73393462,25.3603812 7.92951372,29.670629 L11.5737042,31.2482006 L11.5737042,31.2482006 L11.5737042,31.2482006 Z" id="Path"></path>
            </g>
            <circle id="Oval-4" fill="#E42D40" cx="152" cy="88" r="4"></circle>
        </g>
    </g>
</svg>