<?xml version="1.0" encoding="UTF-8" standalone="no"?>
<svg width="200px" height="200px" viewBox="0 0 200 200" version="1.1" xmlns="http://www.w3.org/2000/svg" xmlns:xlink="http://www.w3.org/1999/xlink">
    <!-- Generator: Sketch 39.1 (31720) - http://www.bohemiancoding.com/sketch -->
    <title>Partnerships</title>
    <desc>Created with Sketch.</desc>
    <defs></defs>
    <g id="Page-1" stroke="none" stroke-width="1" fill="none" fill-rule="evenodd">
        <g id="Partnerships">
            <path d="M29.9642404,98.007894 C54.3210457,98.007894 74.0661299,121.933285 74.0661299,151.446762 C74.0661299,151.446762 86.8354775,161.467764 93.2201513,166.478265 C96.5378932,169.08193 104.291763,172.631184 104.291763,172.631184 C104.291763,174.58046 87.1013034,184.691899 75.8302054,178.201124 C63.9263608,171.345965 56.7799902,149.517516 56.4253741,151.446762 C54.4505068,162.190791 5.60743506,98.007894 29.9642404,98.007894 Z" id="Fill-3" stroke="#E42D40" stroke-width="3" fill="#E42D40" transform="translate(63.732570, 139.178023) rotate(-34.000000) translate(-63.732570, -139.178023) "></path>
            <path d="M88.294964,119.892218 C86.3408743,116.421388 100.966116,103.069999 108.155334,102.603914 C131.409464,101.096322 157.644749,116.828891 157.644749,139.372739 C157.644749,139.372739 158.280222,140.574775 164.664896,145.585276 C166.629825,147.127294 181.012816,147.166805 183.237551,148.912711 C184.769234,150.11473 186.751996,162.215237 186.751996,162.215237 C186.751996,164.164512 170.679922,172.617876 159.408824,166.127101 C147.50498,159.271942 140.358609,137.443493 140.003993,139.372739 C138.029126,150.116768 97.0942155,135.521338 88.294964,119.892218 Z" id="Fill-3" stroke="#E42D40" stroke-width="3" fill="#FFFFFF" transform="translate(137.434482, 135.521340) scale(-1, -1) rotate(-34.000000) translate(-137.434482, -135.521340) "></path>
            <path d="M86.5,144.5 L97.5,136.5" id="Line" stroke="#E42D40" stroke-width="3" stroke-linecap="square"></path>
            <path d="M100,154.787216 L110.367582,146.037655" id="Line" stroke="#FFFFFF" stroke-width="3" stroke-linecap="square"></path>
            <rect id="Rectangle-2" fill="#E42D40" x="50" y="66" width="16" height="4" rx="2"></rect>
            <rect id="Rectangle-2" fill="#E42D40" x="134" y="66" width="15" height="4" rx="2"></rect>
            <path d="M98,20.4930964 C98,19.668482 98.6785455,19 99.5008327,19 L100.499167,19 C101.328054,19 102,19.6638858 102,20.4930964 L102,32.5069036 C102,33.331518 101.321455,34 100.499167,34 L99.5008327,34 C98.6719457,34 98,33.3361142 98,32.5069036 L98,20.4930964 Z" id="Rectangle-2" fill="#E42D40"></path>
            <path d="M127.717514,32.7106108 C127.717514,31.8859964 128.39606,31.2175144 129.218347,31.2175144 L130.216682,31.2175144 C131.045569,31.2175144 131.717514,31.8814003 131.717514,32.7106108 L131.717514,44.7244181 C131.717514,45.5490324 131.038969,46.2175144 130.216682,46.2175144 L129.218347,46.2175144 C128.38946,46.2175144 127.717514,45.5536286 127.717514,44.7244181 L127.717514,32.7106108 Z" id="Rectangle-2" fill="#E42D40" transform="translate(129.717514, 38.717514) rotate(45.000000) translate(-129.717514, -38.717514) "></path>
            <path d="M67.7175144,32.7106108 C67.7175144,31.8859964 68.3960599,31.2175144 69.2183472,31.2175144 L70.2166817,31.2175144 C71.0455687,31.2175144 71.7175144,31.8814003 71.7175144,32.7106108 L71.7175144,44.7244181 C71.7175144,45.5490324 71.0389689,46.2175144 70.2166817,46.2175144 L69.2183472,46.2175144 C68.3894601,46.2175144 67.7175144,45.5536286 67.7175144,44.7244181 L67.7175144,32.7106108 Z" id="Rectangle-2" fill="#E42D40" transform="translate(69.717514, 38.717514) scale(-1, 1) rotate(45.000000) translate(-69.717514, -38.717514) "></path>
            <path d="M85.8676023,90.3454559 C86.549465,90.7799037 88.1531941,100.205513 88.1531941,100.205513 C88.3453982,101.291473 89.397571,102.171817 90.5017832,102.171817 L109.729365,102.171817 C110.834251,102.171817 111.891308,101.295566 112.095401,100.20496 C112.095401,100.20496 113.844145,90.5350833 114.363546,90.1964796 C121.571447,85.4975609 126.336084,77.3644282 126.336084,68.1184549 C126.336084,53.5734371 114.545018,41.7823704 100,41.7823704 C85.4549822,41.7823704 73.6639155,53.5734371 73.6639155,68.1184549 C73.6639155,77.4629093 78.530592,85.6706904 85.8676023,90.3454559 Z" id="Oval" stroke="#E42D40" stroke-width="3" fill="#FEFFD0"></path>
            <rect id="Rectangle" fill="#E42D40" x="89.4655662" y="104.988973" width="21.0688676" height="3.95041267" rx="1.97520633"></rect>
            <rect id="Rectangle" fill="#E42D40" x="92.0991747" y="111.572994" width="15.8016507" height="3.95041267" rx="1.97520633"></rect>
        </g>
    </g>
</svg>